<svg width="662" height="367" viewBox="0 0 662 367" fill="none" xmlns="http://www.w3.org/2000/svg">
<path d="M445.062 361.943C445.009 362.031 444.974 362.113 444.944 362.189C445.032 362.143 445.085 362.066 445.062 361.943Z" fill="white"/>
<path d="M657.386 211.254C657.474 211.307 657.556 211.342 657.632 211.371C657.586 211.284 657.509 211.231 657.386 211.254Z" fill="white"/>
<path d="M661.877 158.553C661.865 158.295 661.842 157.966 661.66 157.896C660.622 157.521 660.616 156.143 660.265 155.1C659.96 154.695 659.954 154.273 660.235 153.839C660.235 153.746 660.235 153.652 660.235 153.552C659.872 153.048 660.012 152.391 660.007 151.799C659.995 150.633 659.807 149.548 659.327 148.616C658.987 147.965 658.975 147.18 658.781 146.476C658.77 146.377 658.77 146.277 658.77 146.177C658.582 145.966 658.547 145.662 658.541 145.345C658.523 143.557 658.336 141.787 658.412 139.993C658.465 138.814 658.77 137.712 658.834 136.516C658.899 135.285 658.928 134.066 658.905 132.835C658.875 130.982 658.834 129.13 658.799 127.278C658.787 127.178 658.781 127.072 658.787 126.973C658.441 125.536 658.524 123.995 658.266 122.535C658.201 122.166 658.183 121.72 658.441 121.409C658.436 121.204 658.43 121.005 658.424 120.8C658.254 120.671 658.213 120.442 658.201 120.19C657.972 120.008 657.697 119.92 657.527 119.604C657.451 119.51 657.38 119.416 657.304 119.317C657.234 119.211 657.169 119.088 657.087 119C657.076 118.9 657.07 118.801 657.07 118.701C656.349 117.241 656.296 115.682 656.466 113.929C656.624 112.276 656.566 110.541 656.313 108.87C656.272 108.595 656.243 108.378 656.401 108.172C656.401 107.868 656.401 107.563 656.395 107.258C656.395 107.053 656.384 106.848 656.378 106.642C656.009 105.722 656.003 104.79 656.308 103.84C656.237 100.557 656.132 97.2746 656.12 93.9976C656.12 92.4089 656.032 90.8378 655.991 89.255C655.979 88.6395 656.003 88.0122 655.674 87.5022C655.604 87.3967 655.54 87.2267 655.54 87.0918C655.587 85.3742 655.041 83.6448 655.598 81.9389C655.657 81.7513 655.762 81.5227 655.733 81.3644C655.381 79.6058 656.02 78.0464 656.261 76.4284C656.478 74.9746 656.595 73.4914 656.864 72.0552C656.958 71.5686 656.864 71.1348 656.618 70.7772C656.026 69.9448 655.88 68.9072 655.956 67.7933C656.096 65.7415 655.575 63.8422 655.264 61.9018C655.135 61.0811 655.159 60.3952 655.417 59.6741C655.545 59.3107 655.657 58.9238 655.745 58.531C655.891 57.8803 655.909 57.1768 656.624 57.1182C656.911 57.0947 657.21 56.4909 657.199 55.9223C657.169 54.7381 657.24 53.5657 657.345 52.3932C657.404 51.7073 657.093 51.1152 656.964 50.4821C656.7 49.21 656.607 47.8441 655.844 46.8768C655.674 46.6599 655.645 46.2789 655.704 46.0034C656.014 44.5613 655.534 43.166 655.598 41.7415C655.803 37.5735 655.616 33.4113 655.534 29.2491C655.522 28.5808 655.551 27.9066 655.346 27.2735C655.299 27.1387 655.264 26.9628 655.288 26.8221C655.739 24.0786 654.819 21.4875 654.842 18.7791C654.848 17.6829 654.514 16.6042 654.772 15.4493C654.871 15.0097 654.865 14.5641 655.17 14.2652C655.276 14.1597 655.387 13.9134 655.375 13.7493C655.241 12.272 655.669 10.8006 655.387 9.33503C655.288 8.81329 655.311 8.32672 655.422 7.81671C655.534 7.31255 655.545 6.77909 655.323 6.32183C654.971 5.59492 655.082 4.94421 655.375 4.28763C655.34 4.28763 655.305 4.28763 655.27 4.28763C654.59 4.23487 653.869 4.4635 653.224 4.19384C653.177 4.18211 653.136 4.16453 653.089 4.13522C652.679 4.14108 652.274 4.14694 651.864 4.15867C651.758 4.15867 651.659 4.15867 651.553 4.16453C651.448 4.16453 651.348 4.16453 651.243 4.16453C649.941 4.35212 648.646 4.34626 647.309 4.2935C645.31 4.21729 643.293 4.35212 641.283 4.38143C640.515 4.39316 639.741 4.47523 638.985 4.28177C638.58 4.18211 638.181 4.34039 637.783 4.36384C635.379 4.50454 632.976 4.69799 630.561 4.41074C629.757 4.31695 628.96 4.11177 628.538 3.719C627.342 2.59931 625.578 2.48206 623.819 2.2124C622.289 1.98377 620.653 2.03067 619.229 1.49721C617.265 1.0165 615.207 0.893395 613.144 0.764425C612.458 0.72339 611.737 0.688216 611.133 0.406828C610.353 0.477175 609.597 0.377517 608.882 0.189925C608.231 0.0199204 607.581 0.0550938 606.918 0.0785428C606.66 0.084405 606.332 0.107854 606.262 0.283721C605.886 1.27444 604.509 1.2803 603.465 1.62031C603.061 1.91343 602.639 1.91929 602.205 1.64962C602.111 1.64962 602.017 1.64962 601.918 1.64962C601.414 1.9955 600.757 1.86653 600.165 1.87239C598.998 1.88411 597.914 2.05998 596.982 2.5231C596.331 2.84552 595.545 2.85725 594.842 3.04484C594.742 3.0507 594.643 3.05656 594.543 3.05656C594.332 3.23829 594.027 3.27347 593.711 3.27347C591.923 3.29105 590.152 3.47278 588.358 3.39657C587.18 3.34968 586.078 3.0507 584.882 2.99208C583.651 2.92759 582.432 2.90414 581.2 2.92173C579.348 2.95104 577.496 2.98622 575.643 3.02139C575.543 3.03311 575.438 3.03311 575.338 3.03311C573.902 3.3614 572.36 3.28519 570.901 3.53141C570.531 3.59589 570.086 3.60761 569.775 3.36726C569.57 3.37312 569.37 3.37899 569.165 3.38485C569.036 3.54899 568.808 3.59003 568.556 3.60175C568.374 3.82452 568.286 4.08246 567.969 4.2466C567.876 4.31695 567.782 4.38729 567.682 4.45764C567.577 4.52799 567.454 4.58661 567.366 4.66282C567.266 4.67454 567.166 4.68041 567.067 4.68041C565.607 5.37215 564.048 5.42491 562.295 5.26077C560.642 5.10835 558.906 5.16111 557.236 5.40732C556.96 5.44836 556.743 5.47181 556.538 5.32525C556.233 5.32525 555.928 5.32525 555.624 5.33111C555.418 5.33111 555.213 5.34284 555.008 5.3487C554.093 5.70044 553.155 5.7063 552.206 5.41319C548.923 5.47767 545.64 5.58319 542.363 5.59492C540.774 5.59492 539.203 5.68285 537.621 5.71802C537.005 5.72975 536.378 5.7063 535.868 6.017C535.762 6.08148 535.592 6.14597 535.457 6.14597C533.74 6.09907 532.01 6.62667 530.304 6.08734C530.117 6.02872 529.888 5.92906 529.73 5.95837C527.971 6.29838 526.412 5.68285 524.794 5.45422C523.34 5.24904 521.857 5.1318 520.421 4.87386C519.934 4.78593 519.5 4.87386 519.143 5.10835C518.31 5.67112 517.273 5.81768 516.159 5.74147C514.107 5.60664 512.208 6.11079 510.267 6.40391C509.447 6.52701 508.761 6.50356 508.04 6.25735C507.676 6.13424 507.289 6.02872 506.897 5.94665C506.246 5.80596 505.542 5.78837 505.484 5.10835C505.46 4.83282 504.856 4.54557 504.288 4.5573C503.104 4.58075 501.931 4.51626 500.759 4.4166C500.073 4.35798 499.481 4.65696 498.848 4.78006C497.576 5.03214 496.21 5.12594 495.242 5.85285C495.025 6.017 494.644 6.04631 494.369 5.98769C492.927 5.68871 491.532 6.15183 490.107 6.08734C485.939 5.89389 481.777 6.06976 477.615 6.15183C476.946 6.16355 476.272 6.13424 475.639 6.3277C475.504 6.36873 475.328 6.40977 475.188 6.38632C472.444 5.95251 469.853 6.83185 467.145 6.81426C466.048 6.8084 464.97 7.13082 463.815 6.88461C463.375 6.79081 462.93 6.79668 462.631 6.4977C462.525 6.39804 462.279 6.28666 462.115 6.30425C460.638 6.43322 459.166 6.02286 457.701 6.29252C457.179 6.38632 456.692 6.36287 456.182 6.25735C455.678 6.15183 455.145 6.1401 454.687 6.35114C453.931 6.70288 453.245 6.57391 452.565 6.26321C451.651 6.29838 450.73 6.25149 449.822 6.4508C448.854 6.66184 447.799 6.48011 446.832 6.4508C445.009 6.39804 443.203 6.76736 441.38 6.48598C440.149 6.29838 438.953 6.48598 437.775 6.73219C437.394 6.81426 437.013 6.96082 436.585 6.83771C436.491 6.81426 436.38 6.82012 436.28 6.8084C435.424 6.70874 435.096 7.6936 434.304 7.36531C433.583 7.06048 433.021 7.04875 432.311 7.24221C431.918 7.34773 431.502 7.3829 431.274 7.03117C431.01 6.62081 430.435 6.61495 429.884 6.50943C427.627 6.07562 425.224 5.80009 423.377 4.7742C422.316 4.18211 421.226 3.90659 419.954 3.78934C419.438 3.80107 418.922 3.81279 418.406 3.82452C418.207 3.82452 418.001 3.83038 417.802 3.83624C417.591 3.8421 417.386 3.85383 417.175 3.85969C417.069 3.86555 416.97 3.87142 416.864 3.85969C416.348 3.87142 415.832 3.87728 415.322 3.889C415.217 3.889 415.117 3.89486 415.012 3.90073C414.66 3.93004 414.373 3.79521 414.074 3.70727C413.734 3.71313 413.376 3.76589 413.136 3.52554C412.045 2.95691 410.926 2.92173 409.536 3.07415C407.244 3.32623 404.923 3.78348 402.549 3.36726C402.355 3.33209 402.121 3.32036 401.939 3.35554C399.494 3.87142 397.085 3.22657 394.658 3.27933C393.017 2.71069 391.258 3.18553 389.558 3.07415C388.426 3.0038 387.617 2.71069 386.826 2.32964C385.513 1.70238 384.182 1.67894 382.758 2.04239C382.377 2.14205 381.996 2.24171 381.632 2.37068C381.304 2.48793 380.964 2.54069 380.594 2.54069C380.049 2.82207 379.487 2.8338 378.924 2.64621C378.853 2.63448 378.783 2.61689 378.713 2.58172C378.508 2.51137 378.302 2.44103 378.103 2.37068C377.998 2.3062 377.898 2.24171 377.804 2.17723H377.792C377.687 2.10688 377.587 2.04239 377.487 1.97791C377.247 1.74928 376.89 1.79618 376.55 1.79032C376.409 1.95446 376.186 2.00136 375.928 2.00722C375.834 2.01895 375.741 2.01895 375.641 2.01895C375.53 2.08343 375.424 2.14792 375.324 2.2124C375.019 2.22412 374.721 2.24171 374.416 2.25344C374.076 2.53482 373.595 2.44103 373.155 2.46448C372.956 2.4762 372.763 2.48793 372.563 2.49379C372.024 2.85725 371.326 2.66379 370.705 2.72242C370.599 2.72242 370.488 2.72242 370.382 2.72828C370.283 2.74 370.183 2.74 370.078 2.74C369.878 2.74586 369.685 2.75759 369.486 2.76345C369.368 2.82794 369.251 2.88656 369.157 2.96277C369.063 2.97449 368.964 2.98035 368.87 2.98035C368.759 3.04484 368.641 3.10346 368.553 3.17967C368.354 3.19139 368.149 3.19726 367.95 3.20898C367.727 3.43761 367.363 3.42002 367.029 3.4552C366.93 3.51968 366.83 3.59003 366.73 3.65451C366.525 3.93004 366.232 4.14694 365.816 4.28763C365.722 4.29936 365.628 4.30522 365.529 4.30522C365.423 4.4166 365.312 4.42833 365.206 4.30522H365.2C365.095 4.23487 364.989 4.17039 364.878 4.10591C363.705 4.14108 362.545 4.18211 361.443 4.49868C360.329 4.81524 359.238 4.2466 358.119 4.42833C356.647 3.85383 354.865 3.86555 353.382 3.29692C351.811 3.35554 350.234 3.48451 348.68 3.50796C346.676 3.53727 344.548 3.57244 342.654 2.99794C340.608 2.37654 338.597 2.47034 336.557 2.8807C336.018 2.98622 335.572 3.02725 335.103 2.82794C334.998 2.76931 334.887 2.71655 334.781 2.65793C334.681 2.65793 334.576 2.65793 334.476 2.64621C332.026 2.26516 329.71 2.69897 327.442 3.23243C325.982 3.5783 324.809 3.27347 323.514 2.83966C322.4 2.46448 321.046 2.57586 319.926 2.8807C318.613 3.23829 317.441 3.13277 316.221 2.81621C316.116 2.81621 316.01 2.81621 315.905 2.81035C315.799 2.75173 315.688 2.68724 315.576 2.62862C315.377 2.62862 315.178 2.62862 314.978 2.62862C314.873 2.62862 314.767 2.64034 314.662 2.64621C314.369 2.74586 314.093 2.8807 313.741 2.87483C313.519 3.11519 313.161 3.08587 312.815 3.09174C312.716 3.10346 312.616 3.10346 312.516 3.0976C312.258 3.10932 312.024 3.07415 311.877 2.91587C311.778 2.91587 311.684 2.91587 311.584 2.90414C311.232 2.93346 310.945 2.81035 310.64 2.72828C310.435 2.72828 310.224 2.72828 310.019 2.72828C309.292 2.68138 308.518 2.94518 307.838 2.58172C306.578 2.58758 305.394 2.41172 304.391 1.87239C303.77 1.53824 303.289 1.61445 302.797 1.98377C302.316 2.34723 301.888 2.7869 301.284 3.01553C299.52 3.68382 297.72 4.29936 295.656 4.53385C294.138 4.70385 292.655 4.73317 291.137 4.65696C290.533 4.62765 289.988 4.92076 289.407 5.04973C288.118 5.33111 286.834 5.80009 285.433 5.27835C285.04 5.1318 284.712 5.24318 284.542 5.49526C284.149 6.06976 283.516 6.10493 282.748 5.89389C282.701 5.88217 282.648 5.8763 282.601 5.87044C281.335 5.6125 280.11 5.44836 278.732 5.68285C277.601 5.87044 276.381 5.7063 275.355 5.23732C274.711 4.94421 273.995 4.96765 273.274 4.97938C272.753 4.95007 272.178 5.15525 271.733 4.80937H271.727C271.621 4.74489 271.516 4.6804 271.41 4.61006C271.299 4.54557 271.182 4.48109 271.07 4.4166C270.971 4.4166 270.871 4.4166 270.777 4.40488C270.672 4.34039 270.56 4.28177 270.443 4.22315C270.343 4.22901 270.249 4.22901 270.15 4.22315C269.487 4.4635 268.708 4.55144 268.127 4.90903C267.641 5.20801 267.107 5.07318 266.556 4.97352C265.577 4.79179 264.575 4.66282 263.69 5.1787C263.59 5.1787 263.473 5.20801 263.385 5.19042C262.171 4.92662 260.923 4.83869 259.651 4.85041C258.414 4.87386 257.177 4.90317 255.94 4.92662C255.834 4.92662 255.735 4.92662 255.629 4.93248C255.189 4.93248 254.726 5.038 254.369 4.76834C254.281 4.76834 254.187 4.7742 254.099 4.76834C253.788 5.02042 253.472 5.038 253.132 4.79179C252.827 4.78006 252.499 4.81524 252.217 4.75661C250.4 4.35212 248.465 4.6042 246.63 4.29936C244.637 4.87386 242.849 4.1997 241.009 3.87728C240.499 3.78348 239.994 3.82452 239.484 3.81279C238.945 4.07073 238.306 4.12349 237.714 4.04142C236.571 3.87728 235.463 4.43419 234.267 4.52799C234.138 4.53971 233.962 4.46936 233.857 4.39902C232.79 3.70141 231.535 5.22559 230.363 4.6042V4.5573C229.014 4.4635 227.578 4.58661 226.177 4.7273C225.005 4.84455 223.721 4.79179 222.578 4.58661C221.722 4.42833 220.907 4.34039 220.039 4.34039C218.826 3.98866 217.56 4.27591 216.323 4.21143C216.112 4.21143 215.906 4.22315 215.695 4.22901C215.015 4.17625 214.294 4.40488 213.65 4.13522C213.603 4.12349 213.562 4.10591 213.515 4.07659C213.104 4.08246 212.7 4.08832 212.289 4.10004C212.184 4.10004 212.084 4.10004 211.979 4.10591C211.873 4.10591 211.774 4.10591 211.668 4.10591C210.367 4.2935 209.071 4.28763 207.734 4.23487C205.735 4.15867 203.719 4.2935 201.708 4.32281C200.94 4.33453 200.166 4.4166 199.41 4.22315C199.006 4.12349 198.607 4.28177 198.208 4.30522C195.805 4.44592 193.401 4.63937 190.986 4.35212C190.183 4.25832 189.386 4.05314 188.964 3.66037C187.768 2.54069 186.003 2.42344 184.244 2.15378C182.714 1.92515 181.079 1.97205 179.654 1.43858C177.69 0.95788 175.633 0.834772 173.569 0.705803C172.883 0.664767 172.162 0.629594 171.559 0.348206C170.779 0.418553 170.023 0.318895 169.307 0.131303C168.657 -0.0387021 168.006 -0.00352863 167.344 0.0199203C167.086 0.0257826 166.757 0.0492316 166.687 0.225099C166.312 1.21582 164.934 1.22168 163.891 1.56169C163.486 1.8548 163.064 1.86067 162.63 1.591C162.537 1.591 162.443 1.591 162.343 1.591C161.839 1.93687 161.182 1.80791 160.59 1.81377C159.424 1.82549 158.339 2.00136 157.407 2.46448C156.756 2.7869 155.971 2.79862 155.267 2.98622C155.168 2.99208 155.068 2.99794 154.968 2.99794C154.757 3.17967 154.453 3.21484 154.136 3.21484C152.348 3.23243 150.578 3.41416 148.784 3.33795C147.605 3.29105 146.503 2.99208 145.307 2.93346C144.076 2.86897 142.857 2.84552 141.626 2.86311C139.773 2.89242 137.921 2.92759 136.069 2.96277C135.969 2.97449 135.863 2.97449 135.764 2.97449C134.327 3.30278 132.786 3.22657 131.326 3.47278C130.957 3.53727 130.511 3.54899 130.2 3.30864C129.995 3.3145 129.796 3.32036 129.591 3.32623C129.462 3.49037 129.233 3.5314 128.981 3.54313C128.799 3.76589 128.711 4.02383 128.395 4.18798C128.301 4.25832 128.207 4.32867 128.108 4.39902C128.002 4.46936 127.879 4.52799 127.791 4.6042C127.691 4.61592 127.592 4.62178 127.492 4.62178C126.032 5.31353 124.473 5.36629 122.72 5.20214C121.067 5.04973 119.332 5.10249 117.661 5.3487C117.386 5.38974 117.169 5.41319 116.964 5.26663C116.659 5.26663 116.354 5.26663 116.049 5.27249C115.844 5.27249 115.639 5.28422 115.433 5.29008C114.519 5.64181 113.581 5.64768 112.631 5.35456C109.348 5.41905 106.066 5.52457 102.789 5.53629C101.2 5.53629 99.6288 5.62423 98.046 5.6594C97.4305 5.67112 96.8032 5.64768 96.2932 5.95837C96.1877 6.02286 96.0177 6.08734 95.8829 6.08734C94.1652 6.04045 92.4359 6.56805 90.73 6.02872C90.5424 5.9701 90.3137 5.87044 90.1555 5.89975C88.3968 6.23976 86.8374 5.62423 85.2194 5.3956C83.7656 5.19042 82.2825 5.07318 80.8462 4.81524C80.3596 4.7273 79.9258 4.81524 79.5682 5.04973C78.7358 5.6125 77.6982 5.75906 76.5844 5.68285C74.5326 5.54802 72.6332 6.05217 70.6928 6.34528C69.8721 6.46839 69.1862 6.44494 68.4652 6.19873C68.1017 6.07562 67.7148 5.9701 67.322 5.88803C66.6713 5.74733 65.9678 5.72975 65.9092 5.04973C65.8858 4.7742 65.282 4.48695 64.7133 4.49868C63.5291 4.52212 62.3567 4.45764 61.1842 4.35798C60.4984 4.29936 59.9063 4.59833 59.2732 4.72144C58.001 4.97352 56.6351 5.06731 55.6679 5.79423C55.451 5.95837 55.0699 5.98769 54.7944 5.92906C53.3523 5.63009 51.9571 6.09321 50.5325 6.02872C46.3645 5.83527 42.2023 6.01113 38.0401 6.09321C37.3718 6.10493 36.6977 6.07562 36.0645 6.26907C35.9297 6.31011 35.7538 6.35114 35.6131 6.3277C32.8696 5.89389 30.2785 6.77323 27.5701 6.75564C26.4739 6.74978 25.3952 7.0722 24.2404 6.82599C23.8007 6.73219 23.3552 6.73805 23.0562 6.43908C22.9507 6.33942 22.7045 6.22804 22.5403 6.24562C21.063 6.37459 19.5916 5.96424 18.1261 6.2339C17.6043 6.3277 17.1178 6.30425 16.6077 6.19873C16.1036 6.09321 15.5701 6.08148 15.1129 6.29252C14.3566 6.64426 13.6708 6.51529 12.9907 6.20459C12.0762 6.23976 11.1559 6.19286 10.2472 6.39218C9.27993 6.60322 8.22473 6.42149 7.25746 6.39218C5.4343 6.33942 3.62873 6.70874 1.80557 6.42735C1.42453 6.36873 1.04348 6.35114 0.668296 6.35114C0.668296 7.20703 0.633122 8.0512 0.504153 8.89536C0.504153 9.00088 0.504153 9.10054 0.504153 9.20606C0.504153 9.31158 0.504153 9.41124 0.498291 9.51676C0.492429 9.92711 0.480704 10.3316 0.474842 10.742C0.498291 10.783 0.52174 10.8299 0.533464 10.8768C0.814852 11.5216 0.5745 12.2486 0.633122 12.9227C0.633122 13.1338 0.621398 13.3389 0.615536 13.55C0.68002 14.7869 0.381046 16.0532 0.744505 17.2666C0.744505 18.1284 0.838301 18.9491 1.00244 19.805C1.21935 20.9481 1.27211 22.232 1.149 23.4044C1.00244 24.7996 0.873474 26.2359 0.96727 27.5901H1.02003C1.66488 28.7566 0.0703469 30.017 0.803127 31.0781C0.873474 31.1836 0.943821 31.3595 0.937959 31.4885C0.844163 32.6902 0.257939 33.7982 0.427944 34.9355C0.515878 35.5217 0.457255 36.1665 0.187592 36.7058C0.193454 37.2159 0.158281 37.72 0.252077 38.23C0.592087 40.0708 1.29556 41.8588 0.697607 43.8519C1.02003 45.6868 0.750367 47.6213 1.17245 49.4386C1.23693 49.72 1.20176 50.0483 1.21348 50.3532C1.47729 50.6873 1.45384 51.0097 1.19004 51.3204C1.19004 51.4142 1.19004 51.5022 1.19004 51.5901C1.47142 51.9477 1.3659 52.4167 1.36004 52.8505C1.36004 52.956 1.36004 53.0557 1.35418 53.1612C1.32487 54.3981 1.30142 55.635 1.27211 56.872C1.26038 58.1382 1.35418 59.3869 1.6297 60.6062C1.64729 60.7 1.62384 60.8114 1.61798 60.9111C1.07865 61.7963 1.21348 62.7928 1.40108 63.7777C1.5066 64.3346 1.64729 64.8622 1.33659 65.3488C0.961408 65.9291 0.873474 66.7088 0.615536 67.3713C0.615536 67.4709 0.615536 67.5647 0.615536 67.6644C0.674158 67.7757 0.738643 67.8871 0.80899 67.9985C0.820714 68.0982 0.820714 68.1978 0.826576 68.2916C0.891061 68.403 0.961408 68.5203 1.02589 68.6316C1.09624 68.7372 1.16072 68.8427 1.23107 68.9482C1.59453 69.3996 1.37763 69.98 1.40694 70.4958C1.39521 71.2169 1.37177 71.9321 1.6766 72.5769C2.16317 73.6028 2.33904 74.8222 2.14558 75.9536C1.90523 77.3253 2.07523 78.5564 2.3449 79.8227C2.35662 79.8696 2.35662 79.9223 2.37421 79.9692C2.59697 80.7372 2.5618 81.3644 1.95799 81.7631C1.69419 81.9331 1.57694 82.2614 1.72936 82.6541C2.27455 84.0552 1.78212 85.339 1.48901 86.6287C1.36004 87.2091 1.04934 87.7543 1.07865 88.3581C1.16072 89.8764 1.13141 91.3596 0.949684 92.8779C0.785541 94.2907 0.427944 95.5804 0 96.8232V151.741C0.275525 152.937 0.381046 154.226 0.832439 155.334C0.638985 156.454 1.23693 157.544 0.902786 158.658C0.5745 159.766 0.527602 160.927 0.492429 162.093C0.556913 162.205 0.62726 162.31 0.697607 162.416C0.826576 162.527 0.814852 162.639 0.697607 162.744C0.697607 162.838 0.691745 162.938 0.68002 163.031C0.533464 163.448 0.304837 163.741 0.0175867 163.946C0.0117245 163.958 0.00586224 163.963 0 163.975V210.562C0.0879337 210.779 0.0586224 211.049 0.0527602 211.301C0.146556 211.606 0.281388 211.887 0.252077 212.239C0.252077 212.345 0.246214 212.444 0.240352 212.55C0.228628 213.066 0.222765 213.582 0.211041 214.092C0.211041 214.197 0.211041 214.297 0.211041 214.402C0.205179 214.613 0.193454 214.818 0.187592 215.029C0.187592 215.229 0.175867 215.434 0.175867 215.633C0.164143 216.149 0.152418 216.665 0.140694 217.181C0.257939 218.459 0.551051 219.543 1.16659 220.604C2.23938 222.445 2.52663 224.855 2.97802 227.112C3.0894 227.663 3.09527 228.237 3.52321 228.501C3.88667 228.724 3.85736 229.146 3.74597 229.539C3.54666 230.248 3.55838 230.805 3.87494 231.532C4.22082 232.323 3.19492 232.651 3.29458 233.507C3.30631 233.607 3.29458 233.718 3.32389 233.812C3.45286 234.24 3.30044 234.621 3.21251 235.002C2.94871 236.18 2.75525 237.376 2.95457 238.607C3.24768 240.425 2.86078 242.23 2.91354 244.059C2.94285 245.027 3.13044 246.082 2.91354 247.049C2.70836 247.958 2.75525 248.872 2.72008 249.793C3.0425 250.473 3.17734 251.158 2.81388 251.915C2.59697 252.366 2.6087 252.9 2.71422 253.41C2.8256 253.92 2.84905 254.406 2.74939 254.928C2.468 256.393 2.89009 257.871 2.76112 259.342C2.74939 259.5 2.86078 259.753 2.9663 259.858C3.27113 260.157 3.27113 260.603 3.36493 261.042C3.62287 262.197 3.28286 263.276 3.28872 264.372C3.31217 267.08 2.3918 269.671 2.84319 272.415C2.86664 272.55 2.8256 272.732 2.78457 272.866C2.57939 273.499 2.61456 274.18 2.59697 274.842C2.5149 279.004 2.32731 283.172 2.53249 287.334C2.60284 288.759 2.11627 290.148 2.42697 291.596C2.48559 291.878 2.45628 292.259 2.28628 292.47C1.52418 293.437 1.43039 294.803 1.16659 296.075C1.03176 296.714 0.726918 297.306 0.785541 297.986C0.885199 299.159 0.955546 300.331 0.932097 301.515C0.920372 302.09 1.22521 302.688 1.5066 302.711C2.22179 302.77 2.23352 303.473 2.38593 304.124C2.47387 304.517 2.57939 304.898 2.71422 305.267C2.97216 305.988 2.99561 306.674 2.86664 307.495C2.5618 309.435 2.0342 311.329 2.17489 313.386C2.2511 314.5 2.10455 315.538 1.51246 316.37C1.26038 316.728 1.17245 317.161 1.26624 317.648C1.53591 319.084 1.65902 320.567 1.87006 322.021C2.11041 323.639 2.74939 325.199 2.39766 326.957C2.36248 327.121 2.468 327.35 2.53249 327.532C3.09527 329.238 2.54421 330.967 2.59111 332.685C2.59111 332.82 2.52663 332.99 2.45628 333.095C2.12799 333.605 2.15731 334.232 2.13972 334.848C2.10455 336.431 2.01661 338.002 2.01661 339.59C2.00489 342.873 1.89937 346.156 1.82902 349.433C2.13386 350.383 2.12799 351.321 1.75867 352.235C1.75867 352.44 1.74695 352.646 1.74109 352.857C1.74109 353.162 1.74109 353.466 1.73522 353.771C1.88764 353.971 1.86419 354.193 1.82316 354.469C1.57108 356.14 1.51246 357.875 1.67074 359.528C1.73522 360.19 1.76454 360.818 1.74109 361.427C2.15144 361.463 2.5618 361.509 2.94871 361.586C3.8046 361.75 4.61945 361.844 5.48706 361.844C6.70055 362.207 7.96679 361.914 9.20372 361.973C9.41476 361.973 9.61994 361.961 9.83098 361.955C10.511 362.014 11.2321 361.773 11.8769 362.055C11.9238 362.066 11.9648 362.084 12.0117 362.113C12.4221 362.107 12.8266 362.096 13.2369 362.09C13.3425 362.09 13.4421 362.09 13.5476 362.084C13.6532 362.084 13.7528 362.084 13.8583 362.084C15.1598 361.89 16.4553 361.896 17.7919 361.949C19.7909 362.031 21.8075 361.89 23.8183 361.861C24.5863 361.849 25.3601 361.767 26.1163 361.961C26.5208 362.066 26.9194 361.896 27.3181 361.873C29.7216 361.726 32.1251 361.527 34.5403 361.826C35.3435 361.926 36.1407 362.137 36.5628 362.547C37.7587 363.714 39.5233 363.837 41.2819 364.118C42.812 364.358 44.4475 364.306 45.8721 364.863C47.8359 365.361 49.8936 365.49 51.9571 365.625C52.643 365.672 53.364 365.701 53.9678 366C54.7475 365.93 55.5037 366.029 56.2189 366.229C56.8696 366.41 57.5203 366.369 58.1828 366.346C58.4407 366.334 58.769 366.311 58.8393 366.129C59.2145 365.091 60.5922 365.085 61.6356 364.734C62.0401 364.429 62.4622 364.423 62.896 364.704C62.9898 364.704 63.0836 364.704 63.1833 364.704C63.6874 364.341 64.344 364.482 64.9361 364.476C66.1027 364.464 67.1872 364.276 68.1193 363.796C68.77 363.456 69.5555 363.444 70.259 363.25C70.3587 363.245 70.4583 363.239 70.558 363.239C70.769 363.051 71.0738 363.016 71.3904 363.01C73.1784 362.993 74.9488 362.805 76.7426 362.881C77.921 362.934 79.0231 363.239 80.2189 363.303C81.45 363.368 82.6694 363.397 83.9004 363.374C85.7529 363.344 87.6054 363.303 89.4579 363.268C89.5575 363.256 89.663 363.25 89.7627 363.256C91.1989 362.91 92.7407 362.993 94.2004 362.735C94.5697 362.67 95.0153 362.653 95.326 362.91C95.5311 362.905 95.7304 362.899 95.9356 362.893C96.0646 362.723 96.2932 362.682 96.5453 362.67C96.727 362.441 96.815 362.166 97.1315 361.996C97.2253 361.92 97.3191 361.849 97.4188 361.773C97.5243 361.703 97.6474 361.638 97.7353 361.556C97.835 361.545 97.9347 361.539 98.0343 361.539C99.494 360.818 101.053 360.765 102.806 360.935C104.459 361.093 106.195 361.035 107.865 360.782C108.141 360.741 108.358 360.712 108.563 360.87C108.868 360.87 109.173 360.87 109.477 360.865C109.683 360.865 109.888 360.853 110.093 360.847C111.007 360.478 111.945 360.472 112.895 360.777C116.178 360.706 119.461 360.601 122.738 360.589C124.326 360.589 125.898 360.501 127.48 360.466C128.096 360.454 128.723 360.478 129.233 360.149C129.339 360.079 129.509 360.015 129.644 360.015C131.361 360.061 133.091 359.516 134.796 360.073C134.984 360.132 135.213 360.237 135.371 360.208C137.13 359.856 138.689 360.495 140.307 360.736C141.761 360.952 143.244 361.07 144.68 361.339C145.167 361.433 145.601 361.339 145.958 361.093C146.791 360.501 147.828 360.355 148.942 360.431C150.994 360.571 152.893 360.05 154.834 359.739C155.654 359.61 156.34 359.633 157.061 359.891C157.425 360.02 157.812 360.132 158.204 360.22C158.855 360.366 159.559 360.384 159.617 361.099C159.641 361.386 160.244 361.685 160.813 361.674C161.997 361.644 163.17 361.715 164.342 361.82C165.028 361.879 165.62 361.568 166.253 361.439C167.525 361.175 168.891 361.081 169.859 360.319C170.075 360.149 170.456 360.12 170.732 360.179C172.174 360.489 173.569 360.009 174.994 360.073C179.162 360.278 183.324 360.091 187.486 360.009C188.155 359.997 188.829 360.026 189.462 359.821C189.597 359.774 189.773 359.739 189.913 359.762C192.657 360.214 195.248 359.293 197.956 359.317C199.053 359.323 200.131 358.989 201.286 359.247C201.726 359.346 202.171 359.34 202.47 359.645C202.576 359.751 202.822 359.862 202.986 359.85C204.463 359.716 205.935 360.143 207.4 359.862C207.922 359.762 208.409 359.786 208.919 359.897C209.423 360.009 209.956 360.02 210.414 359.798C211.17 359.434 211.856 359.563 212.536 359.891C213.45 359.856 214.371 359.903 215.279 359.698C216.246 359.475 217.302 359.669 218.269 359.698C220.092 359.757 221.898 359.364 223.721 359.657C224.952 359.856 226.148 359.657 227.326 359.399C227.707 359.317 228.088 359.164 228.516 359.288C228.61 359.317 228.721 359.305 228.821 359.317C229.677 359.422 230.005 358.391 230.797 358.737C231.518 359.053 232.08 359.065 232.79 358.866C233.182 358.754 233.599 358.719 233.827 359.088C234.091 359.516 234.666 359.522 235.217 359.633C237.474 360.085 239.877 360.372 241.724 361.445C242.785 362.06 243.875 362.354 245.147 362.471C245.663 362.459 246.179 362.447 246.695 362.436C246.894 362.436 247.099 362.424 247.299 362.424C247.51 362.418 247.715 362.406 247.926 362.4C248.032 362.395 248.131 362.389 248.237 362.4C248.753 362.389 249.268 362.383 249.779 362.371C249.884 362.371 249.984 362.365 250.089 362.359C250.441 362.33 250.728 362.471 251.027 362.559C251.367 362.553 251.725 362.5 251.965 362.746C253.056 363.338 254.175 363.374 255.565 363.215C257.857 362.952 260.178 362.477 262.552 362.91C262.746 362.946 262.98 362.963 263.162 362.922C265.607 362.383 268.016 363.057 270.443 362.998C272.084 363.59 273.843 363.098 275.543 363.209C276.674 363.286 277.483 363.59 278.275 363.989C279.588 364.646 280.919 364.669 282.343 364.288C282.724 364.188 283.105 364.077 283.469 363.948C283.797 363.831 284.137 363.772 284.506 363.772C285.052 363.479 285.614 363.467 286.177 363.661C286.248 363.673 286.318 363.696 286.388 363.731C286.593 363.807 286.799 363.878 286.998 363.954C287.103 364.018 287.203 364.089 287.297 364.159H287.309C287.414 364.229 287.514 364.3 287.613 364.364C287.854 364.599 288.211 364.558 288.551 364.558C288.692 364.388 288.915 364.341 289.173 364.329C289.267 364.317 289.36 364.317 289.46 364.317C289.571 364.253 289.677 364.183 289.777 364.112C290.081 364.095 290.38 364.083 290.685 364.065C291.025 363.772 291.506 363.866 291.946 363.843C292.145 363.831 292.338 363.819 292.538 363.807C293.077 363.432 293.775 363.632 294.396 363.567C294.502 363.567 294.613 363.567 294.718 363.561C294.818 363.549 294.918 363.549 295.023 363.549C295.223 363.538 295.416 363.532 295.615 363.52C295.733 363.456 295.85 363.391 295.944 363.309C296.037 363.297 296.137 363.292 296.231 363.292C296.342 363.221 296.46 363.163 296.547 363.08C296.747 363.069 296.952 363.057 297.151 363.051C297.374 362.817 297.738 362.834 298.072 362.799C298.171 362.729 298.271 362.658 298.371 362.594C298.576 362.307 298.869 362.078 299.285 361.931C299.379 361.92 299.473 361.908 299.572 361.914C299.678 361.797 299.789 361.791 299.895 361.914H299.901C300.006 361.984 300.112 362.055 300.223 362.119C301.396 362.078 302.556 362.037 303.658 361.703C304.772 361.369 305.863 361.967 306.982 361.773C308.454 362.371 310.236 362.359 311.719 362.952C313.29 362.887 314.867 362.752 316.421 362.729C318.425 362.699 320.553 362.658 322.447 363.262C324.493 363.913 326.504 363.813 328.544 363.385C329.083 363.274 329.528 363.233 329.997 363.444C330.103 363.503 330.214 363.561 330.32 363.62C330.42 363.62 330.525 363.62 330.625 363.632C333.075 364.03 335.391 363.579 337.659 363.016C339.119 362.658 340.292 362.975 341.587 363.426C342.701 363.813 344.055 363.702 345.175 363.385C346.488 363.016 347.66 363.121 348.88 363.45C348.985 363.45 349.091 363.45 349.196 363.456C349.302 363.52 349.413 363.585 349.525 363.643C349.724 363.643 349.923 363.643 350.123 363.643C350.228 363.643 350.334 363.632 350.439 363.626C350.732 363.52 351.008 363.379 351.359 363.385C351.582 363.133 351.94 363.168 352.286 363.163C352.385 363.151 352.485 363.151 352.585 363.151C352.843 363.139 353.077 363.174 353.224 363.338C353.323 363.338 353.417 363.338 353.517 363.35C353.869 363.321 354.156 363.444 354.461 363.532C354.666 363.532 354.877 363.532 355.082 363.532C355.809 363.579 356.583 363.303 357.263 363.684C358.523 363.678 359.707 363.86 360.71 364.423C361.331 364.769 361.812 364.693 362.304 364.306C362.785 363.93 363.213 363.467 363.817 363.227C365.581 362.529 367.381 361.89 369.445 361.644C370.963 361.468 372.446 361.433 373.964 361.515C374.568 361.55 375.113 361.24 375.694 361.105C376.983 360.812 378.267 360.319 379.668 360.865C380.061 361.017 380.389 360.9 380.559 360.636C380.952 360.032 381.585 360.003 382.353 360.22C382.4 360.231 382.453 360.237 382.5 360.249C383.766 360.519 384.991 360.689 386.369 360.448C387.5 360.249 388.72 360.425 389.745 360.917C390.39 361.222 391.106 361.199 391.827 361.187C392.348 361.222 392.923 360.999 393.368 361.363H393.374C393.48 361.433 393.585 361.498 393.691 361.568C393.802 361.633 393.919 361.703 394.031 361.767C394.13 361.767 394.23 361.767 394.324 361.785C394.429 361.849 394.541 361.914 394.658 361.978C394.758 361.973 394.851 361.973 394.951 361.978C395.614 361.726 396.393 361.632 396.974 361.257C397.46 360.941 397.994 361.081 398.545 361.193C399.524 361.38 400.526 361.515 401.411 360.976C401.511 360.976 401.628 360.947 401.716 360.964C402.93 361.24 404.178 361.334 405.45 361.322C406.687 361.292 407.924 361.269 409.161 361.24C409.267 361.24 409.366 361.24 409.472 361.234C409.912 361.234 410.375 361.122 410.732 361.404C410.82 361.404 410.914 361.398 411.002 361.404C411.313 361.14 411.629 361.122 411.969 361.38C412.274 361.392 412.602 361.351 412.884 361.421C414.701 361.844 416.636 361.58 418.47 361.896C420.464 361.298 422.252 361.996 424.092 362.342C424.602 362.436 425.107 362.4 425.617 362.406C426.156 362.137 426.795 362.078 427.387 362.166C428.53 362.336 429.638 361.756 430.834 361.656C430.963 361.644 431.139 361.72 431.244 361.791C432.311 362.524 433.566 360.929 434.738 361.574V361.627C436.087 361.726 437.523 361.591 438.924 361.445C440.096 361.322 441.38 361.375 442.523 361.591C443.379 361.756 444.194 361.849 445.062 361.849C446.275 362.213 447.541 361.92 448.778 361.978C448.989 361.978 449.194 361.967 449.406 361.961C450.086 362.019 450.807 361.779 451.451 362.06C451.498 362.072 451.539 362.09 451.586 362.119C451.997 362.113 452.401 362.101 452.811 362.096C452.917 362.096 453.017 362.096 453.122 362.09C453.228 362.09 453.327 362.09 453.433 362.09C454.734 361.896 456.03 361.902 457.366 361.955C459.365 362.037 461.382 361.896 463.393 361.867C464.161 361.855 464.935 361.773 465.691 361.967C466.095 362.072 466.494 361.902 466.893 361.879C469.296 361.732 471.7 361.533 474.115 361.832C474.918 361.931 475.715 362.143 476.137 362.553C477.333 363.719 479.098 363.843 480.856 364.124C482.387 364.364 484.022 364.312 485.447 364.868C487.41 365.367 489.468 365.496 491.532 365.631C492.217 365.677 492.939 365.707 493.542 366.006C494.322 365.935 495.078 366.035 495.793 366.234C496.444 366.416 497.095 366.375 497.757 366.352C498.015 366.34 498.344 366.316 498.414 366.135C498.789 365.097 500.167 365.091 501.21 364.739C501.615 364.435 502.037 364.429 502.471 364.71C502.564 364.71 502.658 364.71 502.758 364.71C503.262 364.347 503.919 364.487 504.511 364.482C505.677 364.47 506.762 364.282 507.694 363.802C508.345 363.462 509.13 363.45 509.834 363.256C509.933 363.25 510.033 363.245 510.133 363.245C510.344 363.057 510.648 363.022 510.965 363.016C512.753 362.998 514.523 362.811 516.317 362.887C517.495 362.94 518.598 363.245 519.793 363.309C521.025 363.374 522.244 363.403 523.475 363.379C525.327 363.35 527.18 363.309 529.032 363.274C529.132 363.262 529.238 363.256 529.337 363.262C530.773 362.916 532.315 362.998 533.775 362.74C534.144 362.676 534.59 362.658 534.9 362.916C535.106 362.91 535.305 362.905 535.51 362.899C535.639 362.729 535.868 362.688 536.12 362.676C536.302 362.447 536.39 362.172 536.706 362.002C536.8 361.926 536.894 361.855 536.993 361.779C537.099 361.709 537.222 361.644 537.31 361.562C537.41 361.55 537.509 361.545 537.609 361.545C539.069 360.823 540.628 360.771 542.381 360.941C544.034 361.099 545.769 361.04 547.44 360.788C547.715 360.747 547.932 360.718 548.137 360.876C548.442 360.876 548.747 360.876 549.052 360.87C549.257 360.87 549.462 360.859 549.667 360.853C550.582 360.483 551.52 360.478 552.47 360.782C555.752 360.712 559.035 360.607 562.312 360.595C563.901 360.595 565.472 360.507 567.055 360.472C567.67 360.46 568.298 360.483 568.808 360.155C568.913 360.085 569.083 360.02 569.218 360.02C570.936 360.067 572.665 359.522 574.371 360.079C574.559 360.138 574.787 360.243 574.945 360.214C576.704 359.862 578.264 360.501 579.881 360.741C581.335 360.958 582.818 361.076 584.255 361.345C584.741 361.439 585.175 361.345 585.533 361.099C586.365 360.507 587.403 360.36 588.517 360.437C590.568 360.577 592.468 360.056 594.408 359.745C595.229 359.616 595.915 359.639 596.636 359.897C596.999 360.026 597.386 360.138 597.779 360.226C598.43 360.372 599.133 360.39 599.192 361.105C599.215 361.392 599.819 361.691 600.388 361.679C601.572 361.65 602.744 361.72 603.917 361.826C604.603 361.885 605.195 361.574 605.828 361.445C607.1 361.181 608.466 361.087 609.433 360.325C609.65 360.155 610.031 360.126 610.307 360.185C611.749 360.495 613.144 360.015 614.568 360.079C618.736 360.284 622.899 360.097 627.061 360.015C627.729 360.003 628.403 360.032 629.036 359.827C629.171 359.78 629.347 359.745 629.488 359.768C632.231 360.22 634.822 359.299 637.531 359.323C638.627 359.329 639.706 358.994 640.861 359.252C641.3 359.352 641.746 359.346 642.045 359.651C642.15 359.757 642.396 359.868 642.561 359.856C644.038 359.721 645.509 360.149 646.975 359.868C647.497 359.768 647.983 359.792 648.493 359.903C648.997 360.015 649.531 360.026 649.988 359.803C650.744 359.44 651.43 359.569 652.11 359.897C653.025 359.862 653.945 359.909 654.854 359.704C655.821 359.481 656.876 359.675 657.844 359.704C658.101 359.71 658.359 359.704 658.611 359.704C658.611 359.704 658.611 359.698 658.606 359.692C658.594 359.493 658.582 359.288 658.576 359.088C658.342 358.866 658.359 358.502 658.324 358.168C658.254 358.068 658.183 357.969 658.119 357.869C657.832 357.664 657.603 357.371 657.457 356.954C657.445 356.861 657.433 356.767 657.439 356.667C657.322 356.562 657.316 356.45 657.439 356.345C657.503 356.227 657.58 356.128 657.644 356.016C657.609 354.844 657.562 353.683 657.234 352.581C656.9 351.467 657.498 350.377 657.304 349.257C657.902 347.786 657.89 346.004 658.482 344.521C658.418 342.95 658.283 341.373 658.26 339.819C658.23 337.814 658.189 335.686 658.793 333.793C659.444 331.747 659.344 329.736 658.916 327.696C658.805 327.157 658.764 326.711 658.975 326.242C659.033 326.137 659.092 326.025 659.151 325.92C659.151 325.82 659.151 325.715 659.163 325.615C659.561 323.164 659.11 320.849 658.547 318.58C658.189 317.12 658.506 315.948 658.957 314.652C659.344 313.539 659.233 312.184 658.916 311.065C658.547 309.752 658.652 308.579 658.981 307.36C658.981 307.254 658.981 307.149 658.987 307.043C659.051 306.938 659.116 306.826 659.174 306.715C659.174 306.516 659.174 306.316 659.174 306.117C659.174 306.012 659.163 305.906 659.157 305.8C659.051 305.507 658.91 305.232 658.916 304.88C658.664 304.657 658.699 304.3 658.693 303.954C658.682 303.854 658.682 303.755 658.682 303.655C658.67 303.397 658.705 303.162 658.869 303.016C658.869 302.916 658.869 302.822 658.881 302.723C658.852 302.371 658.975 302.084 659.063 301.779C659.063 301.574 659.063 301.363 659.063 301.158C659.11 300.431 658.834 299.657 659.215 298.977C659.209 297.716 659.391 296.532 659.954 295.53C660.3 294.908 660.224 294.428 659.837 293.935C659.461 293.455 658.998 293.027 658.758 292.423C658.06 290.658 657.416 288.859 657.175 286.795C656.999 285.277 656.964 283.794 657.046 282.275C657.081 281.671 656.771 281.126 656.636 280.546C656.343 279.256 655.85 277.972 656.395 276.571C656.548 276.179 656.431 275.85 656.167 275.68C655.563 275.287 655.534 274.654 655.751 273.886C655.762 273.84 655.768 273.787 655.78 273.74C656.05 272.474 656.22 271.248 655.979 269.871C655.78 268.739 655.956 267.52 656.448 266.494C656.753 265.849 656.73 265.134 656.718 264.413C656.753 263.891 656.53 263.317 656.894 262.871C656.958 262.754 657.029 262.648 657.099 262.549C657.163 262.437 657.234 262.32 657.298 262.209C657.298 262.109 657.298 262.01 657.316 261.916C657.38 261.81 657.445 261.699 657.509 261.582C657.503 261.482 657.503 261.388 657.509 261.288C657.257 260.626 657.163 259.846 656.788 259.266C656.472 258.779 656.612 258.246 656.724 257.695C656.911 256.716 657.046 255.713 656.507 254.828C656.507 254.729 656.478 254.611 656.495 254.523C656.771 253.31 656.864 252.061 656.853 250.789C656.823 249.552 656.8 248.315 656.771 247.078C656.771 246.973 656.771 246.873 656.765 246.768C656.765 246.328 656.653 245.865 656.935 245.507C656.935 245.419 656.929 245.326 656.935 245.238C656.671 244.927 656.653 244.61 656.911 244.27C656.923 243.966 656.882 243.637 656.952 243.356C657.375 241.539 657.111 239.604 657.427 237.769C656.829 235.776 657.527 233.988 657.873 232.147C657.967 231.637 657.931 231.133 657.937 230.623C657.668 230.084 657.609 229.445 657.697 228.853C657.867 227.71 657.287 226.602 657.187 225.406C657.175 225.277 657.251 225.101 657.322 224.995C658.055 223.928 656.46 222.674 657.105 221.501H657.158C657.257 220.153 657.122 218.717 656.976 217.316C656.853 216.143 656.905 214.859 657.122 213.716C657.287 212.86 657.38 212.046 657.38 211.178C657.744 209.964 657.451 208.698 657.509 207.461C657.509 207.25 657.498 207.045 657.492 206.834C657.55 206.154 657.31 205.433 657.591 204.788C657.603 204.741 657.621 204.7 657.65 204.653C657.644 204.243 657.632 203.838 657.627 203.428C657.627 203.323 657.627 203.223 657.621 203.117C657.621 203.012 657.621 202.912 657.621 202.807C657.427 201.505 657.433 200.21 657.486 198.873C657.568 196.874 657.427 194.857 657.398 192.847C657.386 192.079 657.304 191.305 657.498 190.549C657.603 190.144 657.433 189.746 657.41 189.347C657.263 186.943 657.064 184.54 657.363 182.125C657.462 181.322 657.673 180.524 658.084 180.102C659.25 178.906 659.374 177.142 659.655 175.383C659.895 173.853 659.843 172.217 660.399 170.793C660.898 168.829 661.027 166.771 661.161 164.708C661.208 164.022 661.238 163.301 661.537 162.697C661.466 161.918 661.566 161.161 661.765 160.446C661.947 159.795 661.906 159.145 661.883 158.482L661.877 158.553Z" fill="white"/>
<path d="M0.498291 17.4835C0.5745 17.4542 0.656571 17.4191 0.744505 17.3663C0.621398 17.3429 0.551051 17.3956 0.498291 17.4835Z" fill="white"/>
<path d="M5.4812 361.943C5.42844 362.031 5.39326 362.113 5.36395 362.189C5.45189 362.143 5.50465 362.066 5.4812 361.943Z" fill="white"/>
<path d="M220.039 4.40488C220.092 4.32281 220.127 4.2466 220.157 4.17039C220.069 4.21729 220.016 4.28763 220.039 4.40488Z" fill="white"/>
</svg>
