<svg width="463" height="383" viewBox="0 0 463 383" fill="none" xmlns="http://www.w3.org/2000/svg">
<path d="M311.234 377.795C311.197 377.887 311.173 377.973 311.152 378.052C311.214 378.004 311.251 377.924 311.234 377.795Z" fill="white"/>
<path d="M459.714 220.507C459.776 220.562 459.833 220.598 459.886 220.629C459.854 220.537 459.8 220.482 459.714 220.507Z" fill="white"/>
<path d="M462.854 165.497C462.846 165.228 462.83 164.885 462.703 164.812C461.977 164.42 461.973 162.982 461.727 161.893C461.514 161.471 461.51 161.03 461.707 160.577C461.707 160.479 461.707 160.381 461.707 160.277C461.452 159.751 461.551 159.066 461.547 158.448C461.539 157.23 461.407 156.098 461.071 155.125C460.833 154.446 460.825 153.626 460.69 152.892C460.682 152.788 460.682 152.684 460.682 152.58C460.551 152.359 460.526 152.041 460.522 151.711C460.51 149.844 460.378 147.997 460.432 146.124C460.469 144.894 460.682 143.744 460.727 142.496C460.772 141.211 460.792 139.938 460.776 138.653C460.756 136.719 460.727 134.786 460.702 132.852C460.694 132.748 460.69 132.638 460.694 132.534C460.452 131.035 460.51 129.425 460.329 127.902C460.284 127.516 460.272 127.051 460.452 126.727C460.448 126.513 460.444 126.305 460.44 126.091C460.321 125.956 460.292 125.717 460.284 125.454C460.124 125.264 459.932 125.173 459.813 124.842C459.759 124.744 459.71 124.646 459.657 124.542C459.608 124.432 459.563 124.304 459.505 124.212C459.497 124.108 459.493 124.004 459.493 123.9C458.989 122.376 458.952 120.749 459.071 118.919C459.181 117.193 459.14 115.382 458.964 113.638C458.935 113.351 458.915 113.124 459.026 112.91C459.026 112.592 459.026 112.274 459.021 111.956C459.021 111.741 459.013 111.527 459.009 111.313C458.751 110.352 458.747 109.38 458.96 108.388C458.911 104.962 458.837 101.535 458.829 98.1145C458.829 96.4562 458.767 94.8163 458.739 93.1642C458.73 92.5217 458.747 91.867 458.517 91.3346C458.468 91.2245 458.423 91.047 458.423 90.9063C458.456 89.1134 458.074 87.3083 458.464 85.5277C458.505 85.3319 458.579 85.0932 458.558 84.928C458.312 83.0923 458.759 81.4647 458.927 79.7758C459.079 78.2583 459.161 76.7102 459.349 75.211C459.415 74.7032 459.349 74.2504 459.177 73.8771C458.763 73.0082 458.661 71.9251 458.714 70.7625C458.812 68.6209 458.448 66.6383 458.23 64.6129C458.14 63.7563 458.156 63.0404 458.337 62.2877C458.427 61.9083 458.505 61.5045 458.566 61.0945C458.669 60.4153 458.681 59.681 459.181 59.6198C459.382 59.5954 459.591 58.9651 459.583 58.3716C459.563 57.1355 459.612 55.9117 459.686 54.6879C459.727 53.972 459.509 53.354 459.419 52.6931C459.235 51.3653 459.169 49.9396 458.636 48.9299C458.517 48.7035 458.497 48.3058 458.538 48.0182C458.755 46.5129 458.419 45.0566 458.464 43.5697C458.607 39.2191 458.476 34.8746 458.419 30.5301C458.411 29.8325 458.431 29.1289 458.288 28.468C458.255 28.3273 458.23 28.1437 458.247 27.9969C458.562 25.1332 457.919 22.4286 457.935 19.6016C457.939 18.4573 457.706 17.3314 457.886 16.126C457.956 15.6671 457.951 15.202 458.165 14.89C458.238 14.7798 458.316 14.5228 458.308 14.3515C458.214 12.8095 458.513 11.2736 458.316 9.74388C458.247 9.19929 458.263 8.69141 458.341 8.15906C458.419 7.63283 458.427 7.076 458.271 6.59872C458.025 5.83996 458.103 5.16075 458.308 4.47542C458.284 4.47542 458.259 4.47542 458.234 4.47542C457.759 4.42035 457.255 4.65899 456.804 4.37752C456.771 4.36528 456.742 4.34692 456.709 4.31633C456.422 4.32245 456.139 4.32857 455.853 4.34081C455.779 4.34081 455.709 4.34081 455.635 4.34692C455.561 4.34692 455.492 4.34692 455.418 4.34692C454.508 4.54273 453.602 4.53661 452.667 4.48154C451.269 4.402 449.859 4.54273 448.453 4.57333C447.916 4.58557 447.375 4.67123 446.846 4.4693C446.563 4.36528 446.284 4.53049 446.005 4.55497C444.325 4.70183 442.644 4.90375 440.955 4.60392C440.393 4.50602 439.836 4.29185 439.541 3.88188C438.704 2.71315 437.47 2.59077 436.24 2.3093C435.171 2.07066 434.027 2.11961 433.031 1.56278C431.657 1.06102 430.218 0.932523 428.775 0.797906C428.296 0.755073 427.791 0.718359 427.369 0.424647C426.824 0.498075 426.295 0.394052 425.795 0.198244C425.34 0.0207928 424.885 0.0575068 424.422 0.0819828C424.241 0.0881018 424.012 0.112578 423.963 0.296148C423.7 1.33026 422.737 1.33638 422.007 1.69128C421.724 1.99723 421.429 2.00335 421.126 1.72187C421.06 1.72187 420.994 1.72187 420.925 1.72187C420.572 2.0829 420.113 1.94828 419.699 1.9544C418.883 1.96663 418.125 2.1502 417.473 2.6336C417.018 2.97015 416.469 2.98239 415.977 3.1782C415.907 3.18431 415.837 3.19043 415.768 3.19043C415.62 3.38012 415.407 3.41684 415.185 3.41684C413.935 3.43519 412.697 3.62488 411.443 3.54534C410.619 3.49638 409.848 3.18431 409.012 3.12312C408.151 3.05582 407.298 3.03134 406.437 3.0497C405.142 3.08029 403.846 3.11701 402.551 3.15372C402.481 3.16596 402.407 3.16596 402.338 3.16596C401.333 3.50862 400.255 3.42907 399.234 3.68607C398.976 3.75338 398.664 3.76562 398.447 3.51474C398.304 3.52086 398.164 3.52698 398.021 3.5331C397.931 3.70443 397.771 3.74726 397.594 3.7595C397.467 3.99202 397.406 4.26126 397.185 4.43259C397.119 4.50602 397.053 4.57945 396.984 4.65287C396.91 4.7263 396.824 4.78749 396.762 4.86704C396.693 4.87928 396.623 4.8854 396.553 4.8854C395.532 5.60744 394.442 5.66251 393.216 5.49118C392.06 5.33208 390.847 5.38715 389.678 5.64415C389.486 5.68698 389.334 5.71146 389.19 5.55849C388.977 5.55849 388.764 5.55849 388.551 5.5646C388.407 5.5646 388.264 5.57684 388.121 5.58296C387.481 5.9501 386.825 5.95622 386.161 5.65027C383.865 5.71758 381.57 5.82772 379.278 5.83996C378.167 5.83996 377.068 5.93174 375.961 5.96846C375.531 5.9807 375.092 5.95622 374.736 6.28053C374.662 6.34784 374.543 6.41515 374.449 6.41515C373.248 6.36619 372.038 6.9169 370.845 6.35396C370.714 6.29277 370.554 6.18874 370.443 6.21934C369.214 6.57424 368.123 5.93174 366.992 5.6931C365.975 5.47894 364.938 5.35656 363.933 5.08732C363.593 4.99554 363.29 5.08732 363.04 5.33208C362.458 5.91951 361.732 6.07248 360.953 5.99293C359.518 5.8522 358.19 6.37843 356.833 6.68438C356.259 6.81288 355.78 6.7884 355.275 6.53141C355.021 6.40291 354.751 6.29277 354.476 6.2071C354.021 6.06024 353.529 6.04189 353.488 5.33208C353.472 5.04449 353.049 4.74466 352.652 4.7569C351.824 4.78137 351.004 4.71406 350.184 4.61004C349.704 4.54885 349.29 4.86092 348.847 4.98942C347.958 5.25254 347.002 5.35044 346.326 6.1092C346.174 6.28053 345.908 6.31112 345.715 6.24993C344.707 5.93786 343.731 6.42126 342.735 6.35396C339.82 6.15203 336.91 6.3356 333.999 6.42126C333.532 6.4335 333.06 6.40291 332.617 6.60483C332.523 6.64767 332.4 6.6905 332.302 6.66602C330.383 6.21322 328.571 7.13107 326.677 7.11271C325.911 7.10659 325.156 7.44314 324.349 7.18614C324.041 7.08824 323.73 7.09435 323.521 6.78229C323.447 6.67826 323.275 6.562 323.16 6.58036C322.127 6.71498 321.098 6.28665 320.073 6.56812C319.708 6.66602 319.368 6.64155 319.011 6.53141C318.659 6.42126 318.285 6.40903 317.966 6.62931C317.437 6.99645 316.957 6.86183 316.482 6.53753C315.842 6.57424 315.199 6.52529 314.563 6.73333C313.887 6.95362 313.149 6.76393 312.472 6.73333C311.197 6.67826 309.935 7.06376 308.66 6.77005C307.799 6.57424 306.963 6.77005 306.139 7.02705C305.872 7.11271 305.606 7.26569 305.306 7.13719C305.241 7.11271 305.163 7.11883 305.093 7.10659C304.495 7.00257 304.265 8.03056 303.712 7.6879C303.207 7.36971 302.814 7.35747 302.318 7.5594C302.043 7.66954 301.752 7.70625 301.592 7.33911C301.408 6.91078 301.006 6.90467 300.621 6.79452C299.042 6.34172 297.362 6.05412 296.07 4.9833C295.328 4.36528 294.566 4.07769 293.676 3.95531C293.315 3.96755 292.955 3.97978 292.594 3.99202C292.454 3.99202 292.311 3.99814 292.172 4.00426C292.024 4.01038 291.881 4.02262 291.733 4.02874C291.659 4.03486 291.589 4.04097 291.516 4.02874C291.155 4.04097 290.794 4.04709 290.438 4.05933C290.364 4.05933 290.294 4.06545 290.22 4.07157C289.974 4.10216 289.773 3.96143 289.564 3.86964C289.327 3.87576 289.077 3.93083 288.908 3.67995C288.146 3.08641 287.363 3.0497 286.391 3.20879C284.788 3.47191 283.165 3.94919 281.505 3.51474C281.369 3.47803 281.205 3.46579 281.078 3.5025C279.369 4.04097 277.684 3.36788 275.987 3.42296C274.839 2.82941 273.609 3.32505 272.42 3.20879C271.629 3.13536 271.063 2.82941 270.51 2.43168C269.592 1.77695 268.661 1.75247 267.665 2.13185C267.398 2.23587 267.132 2.33989 266.878 2.47451C266.648 2.59689 266.41 2.65196 266.152 2.65196C265.771 2.94567 265.377 2.95791 264.984 2.7621C264.935 2.74987 264.885 2.73151 264.836 2.69479C264.693 2.62137 264.549 2.54794 264.41 2.47451C264.336 2.4072 264.266 2.33989 264.201 2.27258H264.193C264.119 2.19916 264.049 2.13185 263.979 2.06454C263.811 1.8259 263.561 1.87485 263.323 1.86873C263.225 2.04006 263.069 2.08901 262.889 2.09513C262.823 2.10737 262.758 2.10737 262.688 2.10737C262.61 2.17468 262.536 2.24199 262.467 2.3093C262.253 2.32154 262.044 2.33989 261.831 2.35213C261.593 2.64584 261.257 2.54794 260.95 2.57242C260.81 2.58465 260.675 2.59689 260.536 2.60301C260.159 2.98239 259.671 2.78046 259.236 2.84165C259.162 2.84165 259.085 2.84165 259.011 2.84777C258.941 2.86001 258.871 2.86001 258.798 2.86001C258.658 2.86613 258.523 2.87836 258.384 2.88448C258.302 2.95179 258.22 3.01298 258.154 3.09253C258.088 3.10477 258.019 3.11089 257.953 3.11089C257.875 3.1782 257.793 3.23939 257.732 3.31893C257.592 3.33117 257.449 3.33729 257.309 3.34953C257.154 3.58817 256.9 3.56981 256.666 3.60653C256.596 3.67383 256.526 3.74726 256.457 3.81457C256.313 4.10216 256.108 4.32857 255.817 4.47542C255.752 4.48766 255.686 4.49378 255.616 4.49378C255.543 4.61004 255.465 4.62228 255.391 4.49378H255.387C255.313 4.42035 255.239 4.35304 255.161 4.28573C254.341 4.32245 253.53 4.36528 252.759 4.69571C251.98 5.02613 251.218 4.43259 250.435 4.62228C249.406 4.02262 248.159 4.03486 247.122 3.44131C246.024 3.5025 244.921 3.63712 243.834 3.6616C242.432 3.69219 240.944 3.72891 239.62 3.12924C238.189 2.48063 236.783 2.57853 235.357 3.00686C234.979 3.11701 234.668 3.15984 234.34 2.95179C234.266 2.8906 234.188 2.83553 234.114 2.77434C234.045 2.77434 233.971 2.77434 233.901 2.7621C232.188 2.36437 230.568 2.81717 228.982 3.374C227.961 3.73502 227.141 3.41684 226.235 2.96403C225.456 2.57241 224.509 2.68868 223.726 3.00686C222.808 3.38012 221.988 3.26998 221.135 2.93955C221.062 2.93955 220.988 2.93955 220.914 2.93344C220.84 2.87225 220.762 2.80494 220.684 2.74375C220.545 2.74375 220.406 2.74375 220.266 2.74375C220.193 2.74375 220.119 2.75598 220.045 2.7621C219.84 2.86613 219.647 3.00686 219.401 3.00074C219.246 3.25162 218.995 3.22103 218.754 3.22715C218.684 3.23939 218.614 3.23939 218.545 3.23327C218.364 3.2455 218.2 3.20879 218.098 3.04358C218.028 3.04358 217.962 3.04358 217.893 3.03134C217.647 3.06193 217.446 2.93344 217.233 2.84777C217.089 2.84777 216.942 2.84777 216.798 2.84777C216.29 2.79882 215.749 3.07417 215.273 2.69479C214.392 2.70091 213.564 2.51734 212.863 1.9544C212.428 1.60561 212.092 1.68516 211.748 2.07066C211.411 2.45003 211.112 2.90896 210.69 3.1476C209.456 3.84517 208.197 4.48766 206.754 4.73242C205.693 4.90987 204.655 4.94047 203.594 4.86092C203.171 4.83033 202.79 5.13627 202.384 5.27089C201.482 5.5646 200.585 6.05412 199.605 5.50953C199.33 5.35656 199.101 5.47282 198.982 5.73594C198.707 6.3356 198.264 6.37231 197.727 6.15203C197.694 6.13979 197.658 6.13367 197.625 6.12755C196.739 5.85832 195.882 5.68699 194.919 5.93175C194.128 6.12755 193.275 5.95622 192.558 5.4667C192.107 5.16075 191.607 5.18523 191.102 5.19746C190.738 5.16687 190.336 5.38103 190.024 5.02001H190.02C189.946 4.9527 189.873 4.8854 189.799 4.81197C189.721 4.74466 189.639 4.67735 189.561 4.61004C189.491 4.61004 189.422 4.61004 189.356 4.5978C189.282 4.53049 189.204 4.4693 189.122 4.40811C189.053 4.41423 188.987 4.41423 188.917 4.40811C188.454 4.65899 187.909 4.75078 187.503 5.12404C187.163 5.43611 186.79 5.29537 186.404 5.19135C185.72 5.00166 185.019 4.86704 184.4 5.40551C184.33 5.40551 184.248 5.43611 184.187 5.41775C183.338 5.14239 182.465 5.05061 181.575 5.06285C180.71 5.08732 179.845 5.11792 178.98 5.14239C178.906 5.14239 178.837 5.14239 178.763 5.14851C178.455 5.14851 178.132 5.25866 177.882 4.97718C177.82 4.97718 177.754 4.9833 177.693 4.97718C177.476 5.2403 177.254 5.25866 177.017 5.00166C176.803 4.98942 176.574 5.02613 176.377 4.96494C175.106 4.54273 173.753 4.80585 172.47 4.48766C171.076 5.08732 169.826 4.38364 168.539 4.04709C168.182 3.94919 167.83 3.99202 167.473 3.97978C167.096 4.24902 166.649 4.30409 166.235 4.21843C165.435 4.04709 164.661 4.6284 163.824 4.7263C163.734 4.73854 163.611 4.66511 163.537 4.59168C162.791 3.86352 161.914 5.45446 161.094 4.80585V4.7569C160.151 4.65899 159.147 4.78749 158.167 4.93435C157.347 5.05673 156.449 5.00166 155.65 4.78749C155.051 4.62228 154.482 4.53049 153.875 4.53049C153.026 4.16335 152.141 4.46319 151.276 4.39588C151.128 4.39588 150.985 4.40811 150.837 4.41423C150.362 4.35916 149.857 4.5978 149.406 4.31633C149.374 4.30409 149.345 4.28573 149.312 4.25514C149.025 4.26126 148.742 4.26738 148.455 4.27962C148.382 4.27962 148.312 4.27962 148.238 4.28573C148.164 4.28573 148.095 4.28573 148.021 4.28573C147.111 4.48154 146.205 4.47542 145.27 4.42035C143.872 4.34081 142.462 4.48154 141.056 4.51214C140.519 4.52438 139.978 4.61004 139.449 4.40811C139.166 4.30409 138.887 4.4693 138.608 4.49378C136.928 4.64064 135.247 4.84256 133.558 4.54273C132.996 4.44483 132.439 4.23066 132.143 3.82069C131.307 2.65196 130.073 2.52958 128.843 2.24811C127.773 2.00947 126.63 2.05842 125.633 1.50159C124.26 0.999832 122.821 0.871334 121.378 0.736716C120.898 0.693883 120.394 0.657169 119.972 0.363457C119.427 0.436885 118.898 0.332862 118.398 0.137054C117.943 -0.0403972 117.488 -0.00368318 117.024 0.0207928C116.844 0.0269118 116.614 0.0513878 116.565 0.234958C116.303 1.26907 115.34 1.27519 114.61 1.63009C114.327 1.93604 114.032 1.94216 113.728 1.66068C113.663 1.66068 113.597 1.66068 113.528 1.66068C113.175 2.02171 112.716 1.88709 112.302 1.89321C111.486 1.90544 110.728 2.08901 110.076 2.57242C109.621 2.90896 109.071 2.9212 108.579 3.11701C108.51 3.12312 108.44 3.12924 108.37 3.12924C108.223 3.31893 108.01 3.35565 107.788 3.35565C106.538 3.374 105.3 3.56369 104.045 3.48415C103.221 3.43519 102.451 3.12312 101.614 3.06193C100.754 2.99463 99.9008 2.97015 99.0399 2.98851C97.7445 3.0191 96.449 3.05582 95.1536 3.09253C95.0839 3.10477 95.0101 3.10477 94.9404 3.10477C93.936 3.44743 92.8579 3.36788 91.8371 3.62488C91.5788 3.69219 91.2673 3.70443 91.05 3.45355C90.9065 3.45967 90.7671 3.46579 90.6236 3.47191C90.5334 3.64324 90.3736 3.68607 90.1973 3.69831C90.0702 3.93083 90.0087 4.20007 89.7873 4.3714C89.7217 4.44483 89.6561 4.51826 89.5865 4.59168C89.5127 4.66511 89.4266 4.7263 89.3651 4.80585C89.2954 4.81809 89.2257 4.82421 89.156 4.82421C88.1352 5.54625 87.0448 5.60132 85.819 5.42999C84.663 5.27089 83.4495 5.32596 82.2811 5.58296C82.0885 5.62579 81.9368 5.65027 81.7933 5.4973C81.5801 5.4973 81.367 5.4973 81.1538 5.50341C81.0103 5.50341 80.8668 5.51565 80.7233 5.52177C80.0838 5.88891 79.4279 5.89503 78.7638 5.58908C76.468 5.65639 74.1723 5.76653 71.8807 5.77877C70.7697 5.77877 69.6711 5.87056 68.5642 5.90727C68.1338 5.91951 67.6951 5.89503 67.3384 6.21934C67.2647 6.28665 67.1458 6.35396 67.0515 6.35396C65.8503 6.305 64.641 6.85571 63.448 6.29277C63.3168 6.23158 63.157 6.12755 63.0463 6.15815C61.8164 6.51305 60.7259 5.87055 59.5945 5.63191C58.5778 5.41775 57.5406 5.29537 56.5363 5.02613C56.196 4.93435 55.8926 5.02613 55.6426 5.27089C55.0604 5.85832 54.3348 6.01129 53.5559 5.93175C52.1211 5.79101 50.7929 6.31724 49.4359 6.62319C48.862 6.75169 48.3823 6.72721 47.8781 6.47022C47.6239 6.34172 47.3534 6.23158 47.0787 6.14591C46.6237 5.99905 46.1317 5.9807 46.0907 5.27089C46.0743 4.9833 45.6521 4.68347 45.2544 4.69571C44.4263 4.72018 43.6064 4.65287 42.7865 4.54885C42.3069 4.48766 41.8928 4.79973 41.4501 4.92823C40.5605 5.19135 39.6053 5.28925 38.9289 6.04801C38.7772 6.21934 38.5107 6.24993 38.3181 6.18874C37.3096 5.87667 36.3339 6.36007 35.3377 6.29277C32.423 6.09084 29.5123 6.27441 26.6017 6.36007C26.1343 6.37231 25.6629 6.34172 25.2201 6.54364C25.1259 6.58648 25.0029 6.62931 24.9045 6.60483C22.9859 6.15203 21.1739 7.06988 19.28 7.05152C18.5134 7.0454 17.759 7.38195 16.9514 7.12495C16.644 7.02705 16.3324 7.03316 16.1233 6.7211C16.0496 6.61707 15.8774 6.50081 15.7626 6.51917C14.7295 6.65379 13.7005 6.22546 12.6757 6.50693C12.3108 6.60483 11.9706 6.58036 11.6139 6.47022C11.2613 6.36007 10.8883 6.34784 10.5685 6.56812C10.0397 6.93526 9.56004 6.80064 9.0845 6.47634C8.44498 6.51305 7.80136 6.4641 7.16593 6.67214C6.48951 6.89243 5.7516 6.70274 5.07519 6.67214C3.80024 6.61707 2.53759 7.00257 1.26265 6.70886C0.996179 6.64767 0.729712 6.62931 0.467343 6.62931C0.467343 7.52268 0.442746 8.40382 0.352557 9.28496C0.352557 9.3951 0.352557 9.49912 0.352557 9.60926C0.352557 9.7194 0.352557 9.82343 0.348458 9.93357C0.344358 10.3619 0.336159 10.7841 0.33206 11.2124C0.348458 11.2553 0.364856 11.3042 0.373055 11.3532C0.569831 12.0263 0.401751 12.785 0.442746 13.4887C0.442746 13.709 0.434547 13.9232 0.430448 14.1434C0.475542 15.4345 0.266468 16.7563 0.520637 18.0229C0.520637 18.9224 0.586229 19.779 0.701015 20.6724C0.852697 21.8656 0.889592 23.2057 0.803503 24.4295C0.701015 25.8858 0.610826 27.385 0.676418 28.7984H0.713314C1.16426 30.0161 0.049194 31.3317 0.561632 32.4392C0.610826 32.5494 0.66002 32.733 0.655921 32.8676C0.590329 34.122 0.180378 35.2785 0.299264 36.4655C0.360756 37.0774 0.319761 37.7505 0.131184 38.3135C0.135284 38.8458 0.110687 39.3721 0.176279 39.9044C0.41405 41.8258 0.90599 43.6921 0.487841 45.7725C0.713314 47.6878 0.524736 49.7071 0.819901 51.6039C0.864995 51.8977 0.840398 52.2403 0.848597 52.5585C1.03307 52.9073 1.01668 53.2438 0.832199 53.5681C0.832199 53.666 0.832199 53.7578 0.832199 53.8496C1.02898 54.2229 0.955184 54.7124 0.951085 55.1652C0.951085 55.2753 0.951085 55.3794 0.946985 55.4895C0.926488 56.7806 0.91009 58.0717 0.889592 59.3628C0.881393 60.6845 0.946985 61.9879 1.13966 63.2606C1.15196 63.3585 1.13556 63.4748 1.13146 63.5788C0.754309 64.5028 0.848597 65.543 0.979781 66.571C1.05357 67.1523 1.15196 67.703 0.934687 68.2109C0.672319 68.8167 0.610826 69.6305 0.430448 70.322C0.430448 70.426 0.430448 70.5239 0.430448 70.6279C0.471443 70.7442 0.516537 70.8604 0.565732 70.9767C0.573931 71.0807 0.573931 71.1847 0.57803 71.2826C0.623125 71.3989 0.672319 71.5213 0.717413 71.6375C0.766607 71.7477 0.811702 71.8578 0.860896 71.968C1.11506 72.4391 0.963383 73.0449 0.983881 73.5834C0.975682 74.336 0.959284 75.0825 1.17246 75.7556C1.51272 76.8265 1.6357 78.0992 1.50042 79.2802C1.33234 80.712 1.45122 81.997 1.6398 83.3187C1.648 83.3677 1.648 83.4227 1.6603 83.4717C1.81608 84.2733 1.79148 84.928 1.36923 85.3441C1.18476 85.5216 1.10277 85.8642 1.20935 86.2742C1.59061 87.7366 1.24625 89.0767 1.04127 90.4229C0.951085 91.0287 0.733811 91.5977 0.754309 92.228C0.811702 93.8128 0.791204 95.3609 0.66412 96.9457C0.549333 98.4204 0.299264 99.7666 0 101.064V158.387C0.192677 159.635 0.266468 160.981 0.58213 162.138C0.446846 163.306 0.864995 164.444 0.631324 165.607C0.401751 166.763 0.368955 167.975 0.344358 169.193C0.389453 169.309 0.438647 169.419 0.487841 169.529C0.57803 169.646 0.569831 169.762 0.487841 169.872C0.487841 169.97 0.483741 170.074 0.475542 170.172C0.373055 170.606 0.213174 170.912 0.0122985 171.126C0.008199 171.139 0.0040995 171.145 0 171.157V219.785C0.0614926 220.011 0.040995 220.292 0.0368955 220.556C0.102488 220.874 0.196776 221.167 0.176279 221.535C0.176279 221.645 0.172179 221.749 0.16808 221.859C0.159881 222.397 0.155781 222.936 0.147582 223.468C0.147582 223.578 0.147582 223.682 0.147582 223.793C0.143483 224.013 0.135284 224.227 0.131184 224.447C0.131184 224.655 0.122985 224.869 0.122985 225.078C0.114786 225.616 0.106587 226.154 0.0983881 226.693C0.180378 228.027 0.385353 229.159 0.815801 230.266C1.56601 232.188 1.76689 234.703 2.08255 237.059C2.16044 237.634 2.16454 238.233 2.4638 238.509C2.71797 238.741 2.69747 239.182 2.61958 239.592C2.4802 240.332 2.4884 240.914 2.70977 241.672C2.95164 242.498 2.23423 242.841 2.30392 243.734C2.31212 243.838 2.30392 243.955 2.32442 244.053C2.41461 244.499 2.30802 244.897 2.24653 245.295C2.06205 246.525 1.92677 247.773 2.06615 249.058C2.27113 250.955 2.00056 252.839 2.03745 254.749C2.05795 255.758 2.18913 256.86 2.03745 257.869C1.89397 258.818 1.92677 259.772 1.90217 260.733C2.12764 261.443 2.22193 262.159 1.96776 262.948C1.81608 263.419 1.82428 263.976 1.89807 264.508C1.97596 265.041 1.99236 265.549 1.92267 266.093C1.72589 267.623 2.02106 269.165 1.93087 270.701C1.92267 270.866 2.00056 271.129 2.07435 271.239C2.28752 271.551 2.28752 272.016 2.35312 272.475C2.53349 273.681 2.29572 274.807 2.29982 275.951C2.31622 278.778 1.6726 281.482 1.98826 284.346C2.00466 284.487 1.97596 284.677 1.94726 284.817C1.80378 285.478 1.82838 286.188 1.81608 286.879C1.75869 291.224 1.6275 295.575 1.77099 299.919C1.82018 301.406 1.47992 302.856 1.69719 304.368C1.73819 304.661 1.71769 305.059 1.59881 305.279C1.06587 306.289 1.00028 307.715 0.815801 309.042C0.721513 309.709 0.508338 310.327 0.549334 311.037C0.619025 312.261 0.668219 313.485 0.651821 314.721C0.643622 315.321 0.856796 315.945 1.05357 315.969C1.55371 316.03 1.56191 316.765 1.6685 317.444C1.72999 317.854 1.80378 318.251 1.89807 318.637C2.07845 319.39 2.09485 320.106 2.00466 320.962C1.79148 322.988 1.42253 324.964 1.52092 327.112C1.57421 328.274 1.47172 329.357 1.05767 330.226C0.881393 330.6 0.819901 331.052 0.885493 331.56C1.07407 333.059 1.16016 334.608 1.30774 336.125C1.47582 337.814 1.92267 339.442 1.6767 341.277C1.6521 341.449 1.72589 341.687 1.77099 341.877C2.16454 343.658 1.77918 345.463 1.81198 347.256C1.81198 347.396 1.76689 347.574 1.71769 347.684C1.48812 348.216 1.50862 348.871 1.49632 349.513C1.47172 351.166 1.41023 352.806 1.41023 354.464C1.40203 357.89 1.32824 361.317 1.27905 364.738C1.49222 365.729 1.48812 366.708 1.22985 367.662C1.22985 367.877 1.22165 368.091 1.21755 368.311C1.21755 368.629 1.21755 368.947 1.21345 369.266C1.32004 369.474 1.30364 369.706 1.27495 369.994C1.09867 371.738 1.05767 373.549 1.16836 375.274C1.21345 375.966 1.23395 376.621 1.21755 377.257C1.50452 377.294 1.79148 377.343 2.06205 377.422C2.66058 377.594 3.23041 377.691 3.83714 377.691C4.68573 378.071 5.57123 377.765 6.43622 377.826C6.5838 377.826 6.72729 377.814 6.87487 377.808C7.35041 377.869 7.85465 377.618 8.30559 377.912C8.33839 377.924 8.36709 377.942 8.39988 377.973C8.68685 377.967 8.96971 377.955 9.25668 377.948C9.33047 377.948 9.40016 377.948 9.47395 377.942C9.54774 377.942 9.61744 377.942 9.69123 377.942C10.6013 377.74 11.5073 377.747 12.442 377.802C13.8399 377.887 15.2502 377.74 16.6563 377.71C17.1933 377.698 17.7345 377.612 18.2633 377.814C18.5462 377.924 18.8249 377.747 19.1037 377.722C20.7845 377.569 22.4653 377.361 24.1543 377.673C24.7159 377.777 25.2734 377.997 25.5686 378.426C26.4049 379.643 27.6389 379.772 28.8687 380.066C29.9387 380.317 31.0824 380.261 32.0786 380.843C33.452 381.363 34.8909 381.497 36.3339 381.638C36.8135 381.687 37.3178 381.718 37.74 382.03C38.2853 381.956 38.8141 382.06 39.3142 382.268C39.7693 382.458 40.2243 382.415 40.6876 382.391C40.868 382.379 41.0975 382.354 41.1467 382.164C41.4091 381.081 42.3725 381.075 43.1022 380.708C43.385 380.39 43.6802 380.384 43.9836 380.678C44.0492 380.678 44.1148 380.678 44.1845 380.678C44.537 380.298 44.9962 380.445 45.4102 380.439C46.226 380.427 46.9844 380.231 47.6362 379.729C48.0913 379.374 48.6406 379.362 49.1326 379.16C49.2022 379.154 49.2719 379.148 49.3416 379.148C49.4892 378.952 49.7024 378.915 49.9238 378.909C51.1741 378.891 52.4122 378.695 53.6666 378.775C54.4906 378.83 55.2613 379.148 56.0976 379.215C56.9585 379.282 57.8112 379.313 58.6721 379.288C59.9675 379.258 61.263 379.215 62.5584 379.178C62.6281 379.166 62.7019 379.16 62.7716 379.166C63.776 378.805 64.8542 378.891 65.8749 378.622C66.1332 378.554 66.4448 378.536 66.662 378.805C66.8055 378.799 66.9449 378.793 67.0884 378.787C67.1786 378.609 67.3384 378.566 67.5147 378.554C67.6418 378.316 67.7033 378.028 67.9247 377.851C67.9903 377.771 68.0559 377.698 68.1256 377.618C68.1993 377.545 68.2854 377.477 68.3469 377.392C68.4166 377.379 68.4863 377.373 68.556 377.373C69.5768 376.621 70.6672 376.566 71.893 376.743C73.0491 376.908 74.2625 376.847 75.4309 376.584C75.6235 376.541 75.7752 376.51 75.9187 376.676C76.1319 376.676 76.3451 376.676 76.5582 376.67C76.7017 376.67 76.8452 376.657 76.9887 376.651C77.6282 376.266 78.2841 376.26 78.9482 376.578C81.244 376.504 83.5397 376.394 85.8313 376.382C86.9423 376.382 88.0409 376.29 89.1478 376.254C89.5783 376.241 90.0169 376.266 90.3736 375.923C90.4474 375.85 90.5662 375.782 90.6605 375.782C91.8617 375.831 93.071 375.262 94.264 375.844C94.3952 375.905 94.5551 376.015 94.6657 375.984C95.8956 375.617 96.9861 376.284 98.1175 376.535C99.1342 376.761 100.171 376.884 101.176 377.165C101.516 377.263 101.819 377.165 102.069 376.908C102.652 376.29 103.377 376.137 104.156 376.217C105.591 376.364 106.919 375.819 108.276 375.495C108.85 375.36 109.33 375.385 109.834 375.654C110.088 375.788 110.359 375.905 110.633 375.997C111.088 376.149 111.58 376.168 111.621 376.914C111.638 377.214 112.06 377.526 112.458 377.514C113.286 377.483 114.106 377.557 114.925 377.667C115.405 377.728 115.819 377.404 116.262 377.269C117.152 376.994 118.107 376.896 118.783 376.101C118.935 375.923 119.201 375.892 119.394 375.954C120.402 376.278 121.378 375.776 122.374 375.844C125.289 376.058 128.2 375.862 131.11 375.776C131.578 375.764 132.049 375.795 132.492 375.58C132.586 375.531 132.709 375.495 132.808 375.519C134.726 375.99 136.538 375.03 138.432 375.054C139.199 375.06 139.953 374.712 140.761 374.981C141.068 375.085 141.38 375.079 141.589 375.397C141.662 375.507 141.835 375.623 141.949 375.611C142.982 375.47 144.011 375.917 145.036 375.623C145.401 375.519 145.741 375.544 146.098 375.66C146.451 375.776 146.824 375.788 147.143 375.556C147.672 375.177 148.152 375.311 148.628 375.654C149.267 375.617 149.911 375.666 150.546 375.452C151.222 375.219 151.96 375.421 152.637 375.452C153.912 375.513 155.174 375.103 156.449 375.409C157.31 375.617 158.147 375.409 158.971 375.14C159.237 375.054 159.503 374.895 159.803 375.024C159.868 375.054 159.946 375.042 160.016 375.054C160.614 375.164 160.844 374.087 161.397 374.448C161.902 374.779 162.295 374.791 162.791 374.583C163.066 374.467 163.357 374.43 163.517 374.816C163.701 375.262 164.103 375.268 164.488 375.385C166.067 375.856 167.748 376.156 169.039 377.275C169.781 377.918 170.543 378.224 171.433 378.346C171.794 378.334 172.155 378.322 172.515 378.309C172.655 378.309 172.798 378.297 172.938 378.297C173.085 378.291 173.229 378.279 173.376 378.273C173.45 378.267 173.52 378.261 173.593 378.273C173.954 378.261 174.315 378.254 174.672 378.242C174.745 378.242 174.815 378.236 174.889 378.23C175.135 378.199 175.336 378.346 175.545 378.438C175.783 378.432 176.033 378.377 176.201 378.634C176.963 379.252 177.746 379.289 178.718 379.123C180.321 378.848 181.944 378.352 183.604 378.805C183.74 378.842 183.904 378.86 184.031 378.817C185.74 378.254 187.425 378.958 189.122 378.897C190.27 379.515 191.5 379.001 192.689 379.117C193.48 379.197 194.046 379.515 194.599 379.931C195.518 380.616 196.448 380.641 197.444 380.243C197.711 380.139 197.977 380.023 198.231 379.888C198.461 379.766 198.699 379.705 198.957 379.705C199.338 379.399 199.732 379.386 200.125 379.588C200.175 379.601 200.224 379.625 200.273 379.662C200.417 379.741 200.56 379.815 200.699 379.894C200.773 379.962 200.843 380.035 200.908 380.108H200.917C200.99 380.182 201.06 380.255 201.13 380.323C201.298 380.567 201.548 380.525 201.786 380.525C201.884 380.347 202.04 380.298 202.22 380.286C202.286 380.274 202.352 380.274 202.421 380.274C202.499 380.206 202.573 380.133 202.643 380.059C202.856 380.041 203.065 380.029 203.278 380.011C203.516 379.705 203.852 379.803 204.159 379.778C204.299 379.766 204.434 379.754 204.573 379.741C204.951 379.35 205.438 379.558 205.873 379.49C205.947 379.49 206.025 379.49 206.098 379.484C206.168 379.472 206.238 379.472 206.312 379.472C206.451 379.46 206.586 379.454 206.726 379.441C206.808 379.374 206.89 379.307 206.955 379.221C207.021 379.209 207.091 379.203 207.156 379.203C207.234 379.129 207.316 379.068 207.377 378.983C207.517 378.97 207.66 378.958 207.8 378.952C207.956 378.707 208.21 378.726 208.443 378.689C208.513 378.615 208.583 378.542 208.652 378.475C208.796 378.175 209.001 377.936 209.292 377.783C209.358 377.771 209.423 377.759 209.493 377.765C209.567 377.642 209.645 377.636 209.718 377.765H209.722C209.796 377.838 209.87 377.912 209.948 377.979C210.768 377.936 211.579 377.893 212.35 377.545C213.129 377.196 213.892 377.82 214.675 377.618C215.704 378.242 216.95 378.23 217.987 378.848C219.086 378.781 220.188 378.64 221.275 378.615C222.677 378.585 224.165 378.542 225.489 379.172C226.92 379.851 228.326 379.747 229.753 379.301C230.13 379.184 230.441 379.142 230.769 379.362C230.843 379.423 230.921 379.484 230.995 379.546C231.064 379.546 231.138 379.545 231.208 379.558C232.922 379.974 234.541 379.503 236.127 378.915C237.148 378.542 237.968 378.872 238.874 379.344C239.653 379.747 240.6 379.631 241.383 379.301C242.301 378.915 243.121 379.025 243.974 379.368C244.048 379.368 244.121 379.368 244.195 379.374C244.269 379.441 244.347 379.509 244.425 379.57C244.564 379.57 244.703 379.57 244.843 379.57C244.917 379.57 244.99 379.558 245.064 379.552C245.269 379.442 245.462 379.295 245.708 379.301C245.864 379.038 246.114 379.074 246.356 379.068C246.425 379.056 246.495 379.056 246.565 379.056C246.745 379.044 246.909 379.08 247.011 379.252C247.081 379.252 247.147 379.252 247.216 379.264C247.462 379.233 247.663 379.362 247.877 379.454C248.02 379.454 248.168 379.454 248.311 379.454C248.819 379.503 249.361 379.215 249.836 379.613C250.717 379.607 251.546 379.796 252.247 380.384C252.681 380.745 253.017 380.665 253.362 380.261C253.698 379.87 253.997 379.386 254.419 379.136C255.653 378.407 256.912 377.74 258.355 377.483C259.417 377.3 260.454 377.263 261.516 377.349C261.938 377.386 262.319 377.061 262.725 376.92C263.627 376.615 264.525 376.101 265.504 376.67C265.779 376.829 266.009 376.706 266.127 376.431C266.402 375.801 266.845 375.77 267.382 375.997C267.415 376.009 267.452 376.015 267.484 376.027C268.37 376.309 269.227 376.486 270.19 376.235C270.981 376.027 271.834 376.211 272.551 376.725C273.002 377.043 273.502 377.018 274.007 377.006C274.372 377.043 274.773 376.81 275.085 377.19H275.089C275.163 377.263 275.237 377.33 275.31 377.404C275.388 377.471 275.47 377.545 275.548 377.612C275.618 377.612 275.688 377.612 275.753 377.63C275.827 377.698 275.905 377.765 275.987 377.832C276.056 377.826 276.122 377.826 276.192 377.832C276.655 377.569 277.2 377.471 277.606 377.08C277.946 376.749 278.319 376.896 278.705 377.012C279.389 377.208 280.09 377.349 280.709 376.786C280.779 376.786 280.861 376.755 280.923 376.774C281.771 377.061 282.644 377.159 283.534 377.147C284.399 377.116 285.264 377.092 286.129 377.061C286.203 377.061 286.272 377.061 286.346 377.055C286.654 377.055 286.978 376.939 287.228 377.233C287.289 377.233 287.355 377.226 287.416 377.233C287.633 376.957 287.855 376.939 288.093 377.208C288.306 377.22 288.535 377.177 288.732 377.251C290.003 377.691 291.356 377.416 292.639 377.747C294.033 377.122 295.283 377.851 296.57 378.212C296.927 378.309 297.28 378.273 297.636 378.279C298.013 377.997 298.46 377.936 298.874 378.028C299.674 378.205 300.449 377.6 301.285 377.496C301.375 377.483 301.498 377.563 301.572 377.636C302.318 378.401 303.195 376.737 304.015 377.41V377.465C304.958 377.569 305.962 377.428 306.942 377.275C307.762 377.147 308.66 377.202 309.459 377.428C310.058 377.6 310.628 377.698 311.234 377.698C312.083 378.077 312.968 377.771 313.833 377.832C313.981 377.832 314.124 377.82 314.272 377.814C314.748 377.875 315.252 377.624 315.703 377.918C315.736 377.93 315.764 377.948 315.797 377.979C316.084 377.973 316.367 377.961 316.654 377.955C316.728 377.955 316.797 377.955 316.871 377.948C316.945 377.948 317.015 377.948 317.088 377.948C317.998 377.747 318.904 377.753 319.839 377.808C321.237 377.893 322.647 377.747 324.053 377.716C324.59 377.704 325.132 377.618 325.66 377.82C325.943 377.93 326.222 377.753 326.501 377.728C328.182 377.575 329.862 377.367 331.551 377.679C332.113 377.783 332.671 378.004 332.966 378.432C333.802 379.65 335.036 379.778 336.266 380.072C337.336 380.323 338.48 380.268 339.476 380.849C340.849 381.369 342.288 381.504 343.731 381.644C344.211 381.693 344.715 381.724 345.137 382.036C345.682 381.963 346.211 382.067 346.711 382.275C347.166 382.464 347.622 382.421 348.085 382.397C348.265 382.385 348.495 382.36 348.544 382.171C348.806 381.087 349.77 381.081 350.499 380.714C350.782 380.396 351.077 380.39 351.381 380.684C351.446 380.684 351.512 380.684 351.582 380.684C351.934 380.304 352.393 380.451 352.807 380.445C353.623 380.433 354.382 380.237 355.033 379.735C355.488 379.38 356.038 379.368 356.53 379.166C356.599 379.16 356.669 379.154 356.739 379.154C356.886 378.958 357.1 378.921 357.321 378.915C358.571 378.897 359.809 378.701 361.064 378.781C361.888 378.836 362.658 379.154 363.495 379.221C364.356 379.289 365.208 379.319 366.069 379.295C367.365 379.264 368.66 379.221 369.956 379.184C370.025 379.172 370.099 379.166 370.169 379.172C371.173 378.811 372.251 378.897 373.272 378.628C373.53 378.56 373.842 378.542 374.059 378.811C374.203 378.805 374.342 378.799 374.486 378.793C374.576 378.615 374.736 378.573 374.912 378.56C375.039 378.322 375.101 378.034 375.322 377.857C375.387 377.777 375.453 377.704 375.523 377.624C375.597 377.551 375.683 377.483 375.744 377.398C375.814 377.386 375.884 377.379 375.953 377.379C376.974 376.627 378.064 376.572 379.29 376.749C380.446 376.914 381.66 376.853 382.828 376.59C383.021 376.547 383.172 376.517 383.316 376.682C383.529 376.682 383.742 376.682 383.955 376.676C384.099 376.676 384.242 376.663 384.386 376.657C385.025 376.272 385.681 376.266 386.345 376.584C388.641 376.51 390.937 376.4 393.229 376.388C394.339 376.388 395.438 376.296 396.545 376.26C396.975 376.247 397.414 376.272 397.771 375.929C397.845 375.856 397.963 375.788 398.058 375.788C399.259 375.837 400.468 375.268 401.661 375.85C401.792 375.911 401.952 376.021 402.063 375.99C403.293 375.623 404.383 376.29 405.515 376.541C406.531 376.767 407.569 376.89 408.573 377.171C408.913 377.269 409.217 377.171 409.467 376.914C410.049 376.296 410.774 376.143 411.553 376.223C412.988 376.37 414.316 375.825 415.673 375.501C416.247 375.366 416.727 375.391 417.231 375.66C417.485 375.795 417.756 375.911 418.031 376.003C418.486 376.156 418.977 376.174 419.018 376.92C419.035 377.22 419.457 377.532 419.855 377.52C420.683 377.49 421.503 377.563 422.323 377.673C422.802 377.734 423.216 377.41 423.659 377.275C424.549 377 425.504 376.902 426.18 376.107C426.332 375.929 426.598 375.899 426.791 375.96C427.8 376.284 428.775 375.782 429.771 375.85C432.686 376.064 435.597 375.868 438.508 375.782C438.975 375.77 439.446 375.801 439.889 375.587C439.983 375.538 440.106 375.501 440.205 375.525C442.123 375.997 443.935 375.036 445.829 375.06C446.596 375.066 447.35 374.718 448.158 374.987C448.465 375.091 448.777 375.085 448.986 375.403C449.06 375.513 449.232 375.629 449.347 375.617C450.38 375.476 451.409 375.923 452.434 375.629C452.798 375.525 453.139 375.55 453.495 375.666C453.848 375.782 454.221 375.795 454.541 375.562C455.07 375.183 455.549 375.317 456.025 375.66C456.664 375.623 457.308 375.672 457.943 375.458C458.62 375.226 459.358 375.427 460.034 375.458C460.214 375.464 460.395 375.458 460.571 375.458C460.571 375.458 460.571 375.452 460.567 375.446C460.559 375.238 460.551 375.024 460.546 374.816C460.382 374.583 460.395 374.204 460.37 373.855C460.321 373.751 460.272 373.647 460.227 373.543C460.026 373.329 459.866 373.023 459.763 372.588C459.755 372.49 459.747 372.392 459.751 372.288C459.669 372.178 459.665 372.062 459.751 371.952C459.796 371.829 459.85 371.725 459.895 371.609C459.87 370.385 459.837 369.174 459.608 368.023C459.374 366.861 459.792 365.723 459.657 364.554C460.075 363.018 460.067 361.158 460.481 359.61C460.436 357.97 460.341 356.324 460.325 354.702C460.305 352.61 460.276 350.388 460.698 348.412C461.153 346.277 461.083 344.178 460.784 342.048C460.706 341.485 460.678 341.02 460.825 340.531C460.866 340.421 460.907 340.304 460.948 340.194C460.948 340.09 460.948 339.98 460.956 339.876C461.235 337.318 460.92 334.901 460.526 332.533C460.276 331.01 460.497 329.786 460.813 328.434C461.083 327.271 461.006 325.857 460.784 324.689C460.526 323.318 460.6 322.094 460.829 320.821C460.829 320.711 460.829 320.601 460.833 320.491C460.879 320.381 460.924 320.265 460.965 320.148C460.965 319.94 460.965 319.732 460.965 319.524C460.965 319.414 460.956 319.304 460.952 319.194C460.879 318.888 460.78 318.6 460.784 318.233C460.608 318.001 460.633 317.627 460.628 317.266C460.62 317.162 460.62 317.058 460.62 316.954C460.612 316.685 460.637 316.44 460.751 316.287C460.751 316.183 460.751 316.085 460.76 315.981C460.739 315.614 460.825 315.314 460.887 314.996C460.887 314.782 460.887 314.562 460.887 314.348C460.92 313.589 460.727 312.781 460.993 312.071C460.989 310.756 461.116 309.52 461.51 308.473C461.752 307.825 461.698 307.323 461.428 306.809C461.165 306.307 460.842 305.861 460.674 305.23C460.186 303.388 459.735 301.51 459.567 299.356C459.444 297.771 459.419 296.223 459.477 294.638C459.501 294.008 459.284 293.439 459.19 292.833C458.985 291.487 458.64 290.147 459.021 288.685C459.128 288.275 459.046 287.932 458.862 287.754C458.439 287.344 458.419 286.684 458.57 285.882C458.579 285.833 458.583 285.778 458.591 285.729C458.78 284.407 458.898 283.128 458.73 281.691C458.591 280.51 458.714 279.237 459.058 278.166C459.272 277.493 459.255 276.746 459.247 275.994C459.272 275.449 459.116 274.849 459.37 274.384C459.415 274.262 459.464 274.152 459.513 274.048C459.558 273.932 459.608 273.809 459.653 273.693C459.653 273.589 459.653 273.485 459.665 273.387C459.71 273.277 459.755 273.161 459.8 273.038C459.796 272.934 459.796 272.836 459.8 272.732C459.624 272.041 459.558 271.227 459.296 270.621C459.075 270.113 459.173 269.557 459.251 268.981C459.382 267.959 459.476 266.913 459.099 265.989C459.099 265.885 459.079 265.763 459.091 265.671C459.284 264.404 459.349 263.101 459.341 261.773C459.321 260.482 459.304 259.191 459.284 257.9C459.284 257.79 459.284 257.686 459.28 257.576C459.28 257.117 459.202 256.633 459.399 256.26C459.399 256.168 459.394 256.07 459.399 255.978C459.214 255.654 459.202 255.324 459.382 254.969C459.39 254.651 459.362 254.308 459.411 254.014C459.706 252.117 459.522 250.098 459.743 248.183C459.325 246.102 459.813 244.236 460.054 242.315C460.12 241.782 460.095 241.256 460.1 240.724C459.911 240.161 459.87 239.494 459.932 238.876C460.05 237.683 459.645 236.526 459.575 235.278C459.567 235.143 459.62 234.96 459.669 234.85C460.182 233.736 459.067 232.426 459.517 231.203H459.554C459.624 229.795 459.53 228.296 459.427 226.834C459.341 225.61 459.378 224.27 459.53 223.077C459.645 222.183 459.71 221.333 459.71 220.427C459.964 219.16 459.759 217.839 459.8 216.548C459.8 216.327 459.792 216.113 459.788 215.893C459.829 215.183 459.661 214.43 459.858 213.757C459.866 213.708 459.878 213.666 459.899 213.617C459.895 213.188 459.886 212.766 459.882 212.338C459.882 212.228 459.882 212.124 459.878 212.013C459.878 211.903 459.878 211.799 459.878 211.689C459.743 210.331 459.747 208.978 459.784 207.583C459.841 205.497 459.743 203.392 459.722 201.293C459.714 200.491 459.657 199.684 459.792 198.894C459.866 198.472 459.747 198.056 459.731 197.64C459.628 195.131 459.489 192.622 459.698 190.101C459.768 189.263 459.915 188.431 460.202 187.99C461.018 186.742 461.104 184.9 461.301 183.064C461.469 181.467 461.432 179.76 461.821 178.273C462.17 176.223 462.26 174.076 462.354 171.922C462.387 171.206 462.408 170.453 462.617 169.823C462.567 169.009 462.637 168.22 462.777 167.473C462.904 166.794 462.875 166.115 462.859 165.423L462.854 165.497Z" fill="white"/>
<path d="M0.348458 18.2493C0.401751 18.2187 0.459144 18.182 0.520637 18.1269C0.434547 18.1024 0.385353 18.1575 0.348458 18.2493Z" fill="white"/>
<path d="M3.83304 377.795C3.79614 377.887 3.77154 377.973 3.75105 378.052C3.81254 378.004 3.84943 377.924 3.83304 377.795Z" fill="white"/>
<path d="M153.875 4.5978C153.912 4.51214 153.936 4.43259 153.957 4.35304C153.895 4.402 153.858 4.47542 153.875 4.5978Z" fill="white"/>
</svg>
