<svg width="325" height="269" viewBox="0 0 325 269" fill="none" xmlns="http://www.w3.org/2000/svg">
<path d="M218.529 265.264C218.503 265.328 218.486 265.388 218.471 265.444C218.514 265.41 218.54 265.354 218.529 265.264Z" fill="white"/>
<path d="M322.782 154.826C322.825 154.864 322.865 154.89 322.903 154.912C322.88 154.847 322.842 154.808 322.782 154.826Z" fill="white"/>
<path d="M324.987 116.201C324.981 116.012 324.969 115.772 324.88 115.72C324.371 115.445 324.368 114.435 324.195 113.671C324.045 113.374 324.043 113.065 324.181 112.747C324.181 112.678 324.181 112.609 324.181 112.536C324.002 112.167 324.071 111.686 324.068 111.252C324.063 110.397 323.971 109.602 323.735 108.919C323.568 108.442 323.562 107.866 323.467 107.351C323.461 107.278 323.461 107.205 323.461 107.132C323.369 106.977 323.352 106.754 323.349 106.522C323.34 105.211 323.248 103.914 323.286 102.599C323.311 101.735 323.461 100.928 323.493 100.051C323.524 99.149 323.539 98.2553 323.527 97.3531C323.513 95.9954 323.493 94.6378 323.476 93.2801C323.47 93.2071 323.467 93.1298 323.47 93.0567C323.3 92.0041 323.34 90.8742 323.214 89.8044C323.182 89.5337 323.173 89.2072 323.3 88.9795C323.297 88.8291 323.294 88.683 323.291 88.5327C323.208 88.4381 323.188 88.2706 323.182 88.0858C323.07 87.9526 322.934 87.8882 322.851 87.6562C322.814 87.5875 322.779 87.5187 322.742 87.4457C322.707 87.3683 322.675 87.2781 322.635 87.2137C322.629 87.1406 322.626 87.0676 322.626 86.9946C322.272 85.9248 322.246 84.7819 322.33 83.4973C322.408 82.2857 322.379 81.014 322.255 79.7895C322.235 79.5876 322.221 79.4287 322.298 79.2783C322.298 79.0549 322.298 78.8315 322.295 78.608C322.295 78.4577 322.29 78.3073 322.287 78.1569C322.105 77.4824 322.103 76.7993 322.252 76.1033C322.218 73.6973 322.166 71.2913 322.16 68.8897C322.16 67.7254 322.117 66.5739 322.097 65.4139C322.091 64.9628 322.103 64.5031 321.941 64.1293C321.907 64.052 321.875 63.9274 321.875 63.8285C321.898 62.5697 321.63 61.3023 321.904 60.052C321.933 59.9146 321.985 59.747 321.97 59.631C321.797 58.3421 322.111 57.1993 322.229 56.0135C322.336 54.948 322.393 53.861 322.526 52.8084C322.572 52.4518 322.526 52.1338 322.405 51.8718C322.114 51.2617 322.042 50.5012 322.079 49.6849C322.149 48.1812 321.892 46.7891 321.74 45.3671C321.677 44.7656 321.688 44.2629 321.815 43.7344C321.878 43.4681 321.933 43.1845 321.976 42.8966C322.048 42.4197 322.056 41.9042 322.408 41.8612C322.549 41.844 322.695 41.4015 322.69 40.9848C322.675 40.1169 322.71 39.2576 322.762 38.3983C322.79 37.8957 322.638 37.4617 322.575 36.9977C322.445 36.0654 322.399 35.0644 322.025 34.3555C321.941 34.1965 321.927 33.9172 321.956 33.7153C322.108 32.6584 321.872 31.6359 321.904 30.5918C322.005 27.5371 321.913 24.4867 321.872 21.4363C321.867 20.9465 321.881 20.4524 321.78 19.9884C321.757 19.8896 321.74 19.7607 321.751 19.6576C321.973 17.6469 321.521 15.7479 321.533 13.763C321.536 12.9596 321.371 12.169 321.498 11.3226C321.547 11.0004 321.544 10.6739 321.694 10.4548C321.746 10.3774 321.8 10.197 321.795 10.0767C321.728 8.99401 321.938 7.91562 321.8 6.84153C321.751 6.45915 321.763 6.10255 321.818 5.72877C321.872 5.35928 321.878 4.96831 321.769 4.63319C321.596 4.10044 321.651 3.62355 321.795 3.14235C321.777 3.14235 321.76 3.14235 321.743 3.14235C321.409 3.10369 321.055 3.27125 320.738 3.07361C320.715 3.06502 320.695 3.05213 320.672 3.03065C320.47 3.03495 320.272 3.03924 320.07 3.04783C320.019 3.04783 319.97 3.04783 319.918 3.05213C319.866 3.05213 319.817 3.05213 319.765 3.05213C319.126 3.18961 318.49 3.18532 317.834 3.14665C316.852 3.0908 315.862 3.18961 314.875 3.2111C314.498 3.21969 314.118 3.27984 313.747 3.13806C313.548 3.06502 313.352 3.18102 313.156 3.19821C311.976 3.30132 310.796 3.4431 309.61 3.23258C309.216 3.16384 308.824 3.01346 308.617 2.72561C308.03 1.905 307.164 1.81907 306.3 1.62144C305.549 1.45388 304.746 1.48825 304.046 1.09728C303.082 0.744982 302.072 0.654758 301.059 0.560238C300.722 0.530163 300.368 0.504385 300.071 0.29816C299.688 0.349716 299.317 0.276678 298.966 0.139194C298.646 0.0145994 298.327 0.0403776 298.002 0.057563C297.875 0.0618594 297.714 0.0790449 297.679 0.207936C297.495 0.934022 296.819 0.938318 296.306 1.18751C296.108 1.40233 295.9 1.40662 295.687 1.20899C295.641 1.20899 295.595 1.20899 295.546 1.20899C295.299 1.46248 294.976 1.36796 294.686 1.37225C294.113 1.38084 293.58 1.50974 293.123 1.84915C292.803 2.08545 292.418 2.09404 292.072 2.23152C292.023 2.23582 291.974 2.24012 291.925 2.24012C291.822 2.3733 291.672 2.39908 291.517 2.39908C290.639 2.41197 289.769 2.54516 288.889 2.48931C288.31 2.45494 287.769 2.23582 287.182 2.19286C286.577 2.1456 285.979 2.12841 285.374 2.1413C284.464 2.16278 283.555 2.18856 282.645 2.21434C282.596 2.22293 282.545 2.22293 282.496 2.22293C281.79 2.46353 281.033 2.40768 280.317 2.58812C280.135 2.63538 279.917 2.64398 279.764 2.46783C279.663 2.47212 279.565 2.47642 279.465 2.48071C279.401 2.60101 279.289 2.63109 279.165 2.63968C279.076 2.80294 279.033 2.99198 278.877 3.11228C278.831 3.16384 278.785 3.21539 278.736 3.26695C278.685 3.31851 278.624 3.36147 278.581 3.41732C278.532 3.42591 278.483 3.43021 278.434 3.43021C277.717 3.93718 276.952 3.97585 276.091 3.85555C275.279 3.74385 274.427 3.78251 273.607 3.96296C273.472 3.99304 273.365 4.01022 273.265 3.90281C273.115 3.90281 272.965 3.90281 272.816 3.90711C272.715 3.90711 272.614 3.9157 272.513 3.92C272.064 4.17778 271.604 4.18208 271.137 3.96726C269.526 4.01452 267.914 4.09185 266.305 4.10044C265.525 4.10044 264.753 4.16489 263.976 4.19067C263.674 4.19926 263.366 4.18208 263.115 4.40978C263.063 4.45704 262.98 4.5043 262.914 4.5043C262.07 4.46993 261.221 4.85661 260.384 4.46134C260.292 4.41838 260.179 4.34534 260.102 4.36682C259.238 4.61601 258.472 4.16489 257.678 3.99733C256.964 3.84696 256.236 3.76103 255.531 3.57199C255.292 3.50755 255.079 3.57199 254.903 3.74385C254.494 4.1563 253.985 4.26371 253.438 4.20785C252.431 4.10904 251.498 4.47852 250.545 4.69334C250.142 4.78357 249.806 4.76638 249.452 4.58593C249.273 4.49571 249.083 4.41838 248.89 4.35823C248.571 4.25511 248.225 4.24222 248.197 3.74385C248.185 3.54192 247.889 3.33139 247.609 3.33999C247.028 3.35717 246.452 3.30991 245.877 3.23687C245.54 3.19391 245.249 3.41303 244.938 3.50325C244.314 3.68799 243.643 3.75674 243.168 4.28948C243.061 4.40978 242.874 4.43126 242.739 4.3883C242.031 4.16919 241.346 4.5086 240.646 4.46134C238.6 4.31956 236.556 4.44845 234.513 4.5086C234.184 4.51719 233.853 4.49571 233.543 4.63749C233.476 4.66756 233.39 4.69764 233.321 4.68045C231.974 4.36252 230.702 5.00698 229.372 4.99409C228.833 4.98979 228.304 5.22609 227.737 5.04565C227.521 4.9769 227.302 4.9812 227.155 4.76209C227.104 4.68905 226.983 4.60742 226.902 4.6203C226.177 4.71483 225.454 4.41408 224.735 4.61171C224.478 4.68045 224.24 4.66327 223.989 4.58593C223.742 4.5086 223.48 4.50001 223.255 4.65468C222.884 4.91246 222.547 4.81794 222.213 4.59023C221.764 4.61601 221.312 4.58164 220.866 4.72771C220.391 4.88238 219.873 4.7492 219.398 4.72771C218.503 4.68905 217.616 4.95972 216.721 4.75349C216.117 4.61601 215.529 4.75349 214.951 4.93394C214.764 4.99409 214.577 5.1015 214.367 5.01127C214.321 4.99409 214.266 4.99839 214.217 4.98979C213.797 4.91675 213.635 5.63854 213.247 5.39795C212.893 5.17454 212.617 5.16594 212.268 5.30772C212.075 5.38506 211.871 5.41084 211.759 5.15305C211.629 4.85231 211.347 4.84801 211.077 4.77068C209.968 4.45275 208.788 4.25082 207.882 3.49895C207.361 3.06502 206.825 2.86309 206.201 2.77716C205.947 2.78576 205.694 2.79435 205.441 2.80294C205.343 2.80294 205.242 2.80724 205.144 2.81153C205.041 2.81583 204.94 2.82442 204.836 2.82872C204.784 2.83302 204.735 2.83731 204.684 2.82872C204.43 2.83731 204.177 2.84161 203.927 2.8502C203.875 2.8502 203.826 2.8545 203.774 2.85879C203.601 2.88028 203.46 2.78146 203.314 2.71701C203.147 2.72131 202.971 2.75998 202.853 2.58383C202.318 2.16708 201.768 2.1413 201.086 2.25301C199.96 2.43775 198.82 2.77287 197.655 2.46783C197.56 2.44205 197.444 2.43345 197.355 2.45923C196.155 2.83731 194.972 2.36471 193.78 2.40338C192.974 1.98663 192.111 2.33464 191.276 2.25301C190.72 2.20145 190.323 1.98663 189.935 1.70737C189.29 1.24766 188.636 1.23047 187.937 1.49685C187.75 1.56988 187.563 1.64292 187.384 1.73744C187.223 1.82337 187.056 1.86204 186.875 1.86204C186.607 2.06826 186.331 2.07686 186.055 1.93937C186.02 1.93078 185.985 1.91789 185.951 1.89211C185.85 1.84056 185.749 1.789 185.652 1.73744C185.6 1.69018 185.551 1.64292 185.505 1.59566H185.499C185.447 1.54411 185.398 1.49685 185.349 1.44959C185.231 1.28203 185.056 1.3164 184.889 1.3121C184.82 1.4324 184.71 1.46677 184.584 1.47107C184.538 1.47966 184.492 1.47966 184.443 1.47966C184.388 1.52692 184.336 1.57418 184.287 1.62144C184.138 1.63003 183.991 1.64292 183.841 1.65152C183.674 1.85774 183.438 1.789 183.222 1.80618C183.124 1.81478 183.029 1.82337 182.931 1.82767C182.667 2.09404 182.324 1.95226 182.019 1.99522C181.967 1.99522 181.913 1.99522 181.861 1.99952C181.812 2.00811 181.763 2.00811 181.711 2.00811C181.613 2.01241 181.518 2.021 181.42 2.0253C181.363 2.07256 181.305 2.11552 181.259 2.17138C181.213 2.17997 181.164 2.18426 181.118 2.18426C181.063 2.23152 181.006 2.27449 180.963 2.33034C180.865 2.33893 180.764 2.34323 180.666 2.35182C180.557 2.51938 180.378 2.50649 180.214 2.53227C180.165 2.57953 180.116 2.63109 180.067 2.67835C179.967 2.88028 179.823 3.03924 179.618 3.14235C179.572 3.15095 179.526 3.15524 179.477 3.15524C179.426 3.23687 179.371 3.24547 179.319 3.15524H179.316C179.264 3.10369 179.213 3.05643 179.158 3.00917C178.582 3.03495 178.012 3.06502 177.471 3.29702C176.924 3.52903 176.389 3.11228 175.839 3.24547C175.117 2.82442 174.242 2.83302 173.513 2.41627C172.742 2.45923 171.968 2.55375 171.205 2.57094C170.22 2.59242 169.176 2.6182 168.246 2.19715C167.241 1.74174 166.254 1.81048 165.252 2.11123C164.987 2.18856 164.769 2.21864 164.538 2.07256C164.487 2.0296 164.432 1.99093 164.38 1.94796C164.331 1.94796 164.279 1.94796 164.23 1.93937C163.027 1.66011 161.89 1.97804 160.776 2.36901C160.06 2.62249 159.484 2.39908 158.848 2.08115C158.301 1.80618 157.636 1.88782 157.086 2.11123C156.441 2.37331 155.866 2.29597 155.267 2.06397C155.215 2.06397 155.163 2.06397 155.112 2.05967C155.06 2.01671 155.005 1.96945 154.95 1.92648C154.853 1.92648 154.755 1.92648 154.657 1.92648C154.605 1.92648 154.553 1.93508 154.501 1.93937C154.358 2.01241 154.222 2.11123 154.05 2.10693C153.94 2.28308 153.765 2.2616 153.595 2.2659C153.546 2.27449 153.497 2.27449 153.448 2.27019C153.321 2.27878 153.206 2.25301 153.134 2.137C153.085 2.137 153.039 2.137 152.99 2.12841C152.818 2.14989 152.677 2.05967 152.527 1.99952C152.426 1.99952 152.323 1.99952 152.222 1.99952C151.865 1.96515 151.485 2.15849 151.151 1.89211C150.532 1.89641 149.951 1.76752 149.458 1.37225C149.153 1.12736 148.917 1.18321 148.676 1.45388C148.44 1.72026 148.229 2.04248 147.933 2.21004C147.067 2.69983 146.183 3.15095 145.17 3.3228C144.424 3.4474 143.696 3.46888 142.95 3.41303C142.654 3.39154 142.386 3.60636 142.101 3.70088C141.468 3.90711 140.838 4.25082 140.15 3.86844C139.957 3.76103 139.796 3.84266 139.712 4.02741C139.519 4.44845 139.208 4.47423 138.831 4.31956C138.808 4.31097 138.782 4.30667 138.759 4.30237C138.138 4.11333 137.536 3.99304 136.86 4.16489C136.304 4.30237 135.705 4.18208 135.202 3.83837C134.885 3.62355 134.534 3.64073 134.18 3.64933C133.924 3.62784 133.642 3.77822 133.423 3.52473H133.42C133.368 3.47747 133.316 3.43021 133.265 3.37865C133.21 3.33139 133.152 3.28413 133.098 3.23687C133.049 3.23687 133 3.23687 132.954 3.22828C132.902 3.18102 132.847 3.13806 132.79 3.09509C132.741 3.09939 132.695 3.09939 132.646 3.09509C132.32 3.27125 131.938 3.33569 131.653 3.59777C131.414 3.81688 131.152 3.71807 130.881 3.64503C130.401 3.51184 129.908 3.41732 129.474 3.7954C129.425 3.7954 129.367 3.81688 129.324 3.804C128.728 3.61066 128.115 3.54621 127.49 3.55481C126.883 3.57199 126.276 3.59347 125.668 3.61066C125.617 3.61066 125.568 3.61066 125.516 3.61495C125.3 3.61495 125.073 3.69229 124.897 3.49466C124.854 3.49466 124.808 3.49895 124.765 3.49466C124.612 3.6794 124.457 3.69229 124.29 3.51184C124.14 3.50325 123.979 3.52903 123.841 3.48606C122.948 3.18961 121.998 3.37436 121.098 3.15095C120.119 3.57199 119.241 3.07791 118.337 2.84161C118.087 2.77287 117.839 2.80294 117.589 2.79435C117.324 2.98339 117.01 3.02206 116.719 2.96191C116.158 2.84161 115.614 3.24976 115.027 3.31851C114.964 3.3271 114.877 3.27554 114.825 3.22399C114.302 2.71272 113.686 3.82977 113.11 3.37436V3.33999C112.448 3.27125 111.743 3.36147 111.055 3.46458C110.479 3.55051 109.849 3.51184 109.287 3.36147C108.867 3.24547 108.467 3.18102 108.041 3.18102C107.445 2.92324 106.823 3.13376 106.216 3.0865C106.113 3.0865 106.012 3.09509 105.908 3.09939C105.574 3.06072 105.22 3.22828 104.904 3.03065C104.881 3.02206 104.86 3.00917 104.837 2.98769C104.636 2.99198 104.437 2.99628 104.236 3.00487C104.184 3.00487 104.135 3.00487 104.083 3.00917C104.031 3.00917 103.983 3.00917 103.931 3.00917C103.292 3.14665 102.656 3.14235 101.999 3.10369C101.018 3.04783 100.028 3.14665 99.0403 3.16813C98.6632 3.17673 98.2833 3.23687 97.9119 3.09509C97.7133 3.02206 97.5176 3.13806 97.3219 3.15524C96.1417 3.25836 94.9616 3.40014 93.7757 3.18961C93.3813 3.12087 92.9899 2.9705 92.7826 2.68264C92.1954 1.86204 91.329 1.77611 90.4655 1.57848C89.7142 1.41092 88.9112 1.44529 88.2117 1.05432C87.2474 0.702018 86.2371 0.611794 85.2239 0.517274C84.8871 0.4872 84.5331 0.461422 84.2366 0.255196C83.8538 0.306752 83.4825 0.233714 83.1313 0.0962303C82.8118 -0.0283643 82.4923 -0.00258609 82.167 0.0145994C82.0404 0.0188957 81.8792 0.0360812 81.8447 0.164972C81.6604 0.891058 80.984 0.895355 80.4717 1.14454C80.2731 1.35936 80.0658 1.36366 79.8528 1.16603C79.8068 1.16603 79.7607 1.16603 79.7118 1.16603C79.4642 1.41951 79.1418 1.32499 78.8511 1.32929C78.2783 1.33788 77.7458 1.46677 77.2881 1.80618C76.9686 2.04248 76.5829 2.05108 76.2375 2.18856C76.1886 2.19286 76.1397 2.19715 76.0907 2.19715C75.9871 2.33034 75.8374 2.35612 75.682 2.35612C74.8041 2.36901 73.9348 2.5022 73.054 2.44634C72.4754 2.41197 71.9343 2.19286 71.3471 2.14989C70.7426 2.10263 70.1439 2.08545 69.5395 2.09834C68.6299 2.11982 67.7203 2.1456 66.8107 2.17138C66.7618 2.17997 66.71 2.17997 66.6611 2.17997C65.9558 2.42057 65.1988 2.36471 64.4821 2.54516C64.3008 2.59242 64.082 2.60101 63.9295 2.42486C63.8287 2.42916 63.7308 2.43345 63.6301 2.43775C63.5668 2.55805 63.4545 2.58812 63.3307 2.59672C63.2415 2.75998 63.1983 2.94902 63.0429 3.06932C62.9968 3.12087 62.9508 3.17243 62.9019 3.22399C62.85 3.27554 62.7896 3.31851 62.7464 3.37436C62.6975 3.38295 62.6486 3.38725 62.5996 3.38725C61.8829 3.89422 61.1172 3.93289 60.2566 3.81259C59.4449 3.70088 58.5929 3.73955 57.7725 3.92C57.6373 3.95007 57.5308 3.96726 57.43 3.85985C57.2803 3.85985 57.1307 3.85985 56.981 3.86414C56.8802 3.86414 56.7795 3.87274 56.6787 3.87703C56.2297 4.13482 55.7692 4.13911 55.3029 3.92429C53.691 3.97155 52.079 4.04889 50.47 4.05748C49.69 4.05748 48.9186 4.12193 48.1414 4.1477C47.8391 4.1563 47.5312 4.13911 47.2807 4.36682C47.2289 4.41408 47.1455 4.46134 47.0792 4.46134C46.2359 4.42697 45.3867 4.81364 44.5491 4.41838C44.457 4.37541 44.3448 4.30237 44.267 4.32386C43.4035 4.57305 42.6379 4.12193 41.8434 3.95437C41.1296 3.804 40.4013 3.71807 39.6961 3.52903C39.4572 3.46458 39.2442 3.52903 39.0686 3.70088C38.6599 4.11333 38.1504 4.22074 37.6035 4.16489C36.5961 4.06607 35.6635 4.43556 34.7107 4.65038C34.3077 4.7406 33.971 4.72342 33.6169 4.54297C33.4385 4.45275 33.2485 4.37541 33.0556 4.31526C32.7361 4.21215 32.3907 4.19926 32.3619 3.70088C32.3504 3.49895 32.054 3.28843 31.7748 3.29702C31.1933 3.31421 30.6176 3.26695 30.0419 3.19391C29.7052 3.15095 29.4145 3.37006 29.1036 3.46029C28.479 3.64503 27.8083 3.71377 27.3334 4.24652C27.2269 4.36682 27.0398 4.3883 26.9045 4.34534C26.1964 4.12622 25.5113 4.46564 24.8119 4.41838C22.7653 4.2766 20.7217 4.40549 18.678 4.46564C18.3499 4.47423 18.0188 4.45275 17.708 4.59453C17.6418 4.6246 17.5554 4.65468 17.4863 4.63749C16.1392 4.31956 14.867 4.96401 13.5372 4.95113C12.9989 4.94683 12.4693 5.18313 11.9022 5.00268C11.6863 4.93394 11.4676 4.93824 11.3208 4.71912C11.269 4.64608 11.1481 4.56445 11.0675 4.57734C10.3421 4.67186 9.61964 4.37112 8.90004 4.56875C8.64386 4.63749 8.40495 4.6203 8.15453 4.54297C7.90699 4.46564 7.64505 4.45704 7.42054 4.61171C7.04922 4.86949 6.71245 4.77497 6.37855 4.54727C5.92952 4.57304 5.47761 4.53867 5.03146 4.68475C4.55652 4.83942 4.03841 4.70623 3.56347 4.68475C2.66828 4.64608 1.78173 4.91675 0.88655 4.71053C0.699453 4.66756 0.512357 4.65468 0.328139 4.65468C0.328139 5.28195 0.310868 5.90062 0.247543 6.5193C0.247543 6.59663 0.247543 6.66967 0.247543 6.74701C0.247543 6.82434 0.247543 6.89738 0.244665 6.97471C0.241786 7.27546 0.236029 7.57191 0.233151 7.87265C0.244665 7.90273 0.256178 7.9371 0.261935 7.97147C0.400099 8.44407 0.282084 8.97682 0.310868 9.4709C0.310868 9.62557 0.305111 9.77594 0.302233 9.93061C0.333895 10.8371 0.187097 11.7652 0.365558 12.6545C0.365558 13.2861 0.411612 13.8876 0.492208 14.5148C0.598709 15.3526 0.624615 16.2935 0.564168 17.1528C0.492208 18.1753 0.428883 19.228 0.474937 20.2204H0.500843C0.817468 21.0754 0.0345409 21.9991 0.394342 22.7768C0.428883 22.8541 0.463424 22.983 0.460545 23.0775C0.414491 23.9583 0.12665 24.7703 0.210124 25.6038C0.2533 26.0334 0.224516 26.506 0.0921091 26.9013C0.0949875 27.275 0.077717 27.6445 0.123772 28.0183C0.290719 29.3674 0.636128 30.6778 0.342531 32.1385C0.500843 33.4833 0.368436 34.9011 0.575682 36.233C0.607344 36.4392 0.590074 36.6798 0.595831 36.9032C0.725359 37.1481 0.713845 37.3844 0.584317 37.6121C0.584317 37.6809 0.584317 37.7453 0.584317 37.8097C0.722481 38.0718 0.670669 38.4155 0.667791 38.7335C0.667791 38.8108 0.667791 38.8838 0.664912 38.9612C0.65052 39.8677 0.639007 40.7742 0.624615 41.6808C0.618858 42.6088 0.664912 43.5239 0.800198 44.4176C0.808833 44.4863 0.797319 44.5679 0.794441 44.641C0.529627 45.2897 0.595831 46.0201 0.68794 46.7419C0.739751 47.15 0.808833 47.5367 0.656277 47.8933C0.472059 48.3187 0.428883 48.8901 0.302233 49.3756C0.302233 49.4486 0.302233 49.5173 0.302233 49.5904C0.331017 49.672 0.362679 49.7536 0.39722 49.8353C0.402977 49.9083 0.402977 49.9813 0.405856 50.0501C0.437518 50.1317 0.472059 50.2177 0.503721 50.2993C0.538262 50.3766 0.569925 50.454 0.604466 50.5313C0.782927 50.8621 0.676426 51.2874 0.690818 51.6655C0.685061 52.194 0.673548 52.7181 0.823225 53.1907C1.06213 53.9426 1.14848 54.8362 1.0535 55.6654C0.935483 56.6708 1.01896 57.573 1.15136 58.501C1.15712 58.5354 1.15712 58.5741 1.16576 58.6085C1.27513 59.1713 1.25786 59.631 0.961388 59.9231C0.83186 60.0477 0.774292 60.2883 0.849131 60.5762C1.11682 61.603 0.875036 62.5439 0.731116 63.4891C0.667791 63.9145 0.515235 64.314 0.529627 64.7566C0.569925 65.8693 0.555533 66.9563 0.466302 68.0691C0.385707 69.1045 0.210124 70.0497 0 70.9605V111.209C0.135285 112.085 0.187097 113.031 0.408734 113.843C0.313747 114.663 0.607344 115.462 0.443275 116.279C0.282084 117.091 0.259057 117.941 0.241786 118.796C0.273449 118.878 0.30799 118.955 0.342531 119.033C0.405856 119.114 0.400099 119.196 0.342531 119.273C0.342531 119.342 0.339652 119.415 0.333895 119.484C0.261935 119.789 0.149677 120.004 0.00863522 120.154C0.00575681 120.163 0.00287841 120.167 0 120.175V154.319C0.0431761 154.478 0.0287841 154.675 0.0259057 154.86C0.0719602 155.083 0.138164 155.29 0.123772 155.547C0.123772 155.625 0.120893 155.698 0.118015 155.775C0.112258 156.153 0.10938 156.531 0.103623 156.905C0.103623 156.982 0.103623 157.055 0.103623 157.133C0.100744 157.287 0.0949875 157.438 0.0921091 157.592C0.0921091 157.739 0.0863523 157.889 0.0863523 158.035C0.0805954 158.413 0.0748386 158.791 0.0690818 159.169C0.12665 160.106 0.27057 160.901 0.572803 161.678C1.09955 163.027 1.24059 164.793 1.46223 166.447C1.51692 166.851 1.5198 167.272 1.72992 167.466C1.90838 167.629 1.89399 167.938 1.8393 168.226C1.74144 168.746 1.74719 169.154 1.90263 169.687C2.07245 170.267 1.56873 170.507 1.61767 171.135C1.62342 171.208 1.61767 171.289 1.63206 171.358C1.69538 171.672 1.62054 171.951 1.57737 172.23C1.44784 173.094 1.35285 173.97 1.45072 174.872C1.59464 176.204 1.40466 177.528 1.43057 178.868C1.44496 179.577 1.53707 180.35 1.43057 181.059C1.32982 181.725 1.35285 182.395 1.33558 183.07C1.49389 183.568 1.5601 184.071 1.38164 184.625C1.27513 184.956 1.28089 185.347 1.3327 185.721C1.38739 186.095 1.39891 186.451 1.34997 186.834C1.21181 187.908 1.41906 188.99 1.35573 190.069C1.34997 190.185 1.40466 190.369 1.45647 190.447C1.60615 190.666 1.60615 190.992 1.65221 191.315C1.77886 192.161 1.61191 192.952 1.61479 193.755C1.6263 195.74 1.17439 197.639 1.39603 199.65C1.40754 199.748 1.38739 199.882 1.36724 199.98C1.2665 200.444 1.28377 200.943 1.27513 201.428C1.23484 204.479 1.14273 207.533 1.24347 210.584C1.27801 211.628 1.03911 212.646 1.19166 213.707C1.22045 213.914 1.20605 214.193 1.12258 214.347C0.748386 215.056 0.702332 216.057 0.572803 216.99C0.5066 217.458 0.356923 217.892 0.385707 218.39C0.43464 219.25 0.469181 220.109 0.457667 220.977C0.45191 221.398 0.601587 221.836 0.739751 221.853C1.09092 221.896 1.09667 222.412 1.17151 222.889C1.21469 223.177 1.2665 223.456 1.3327 223.726C1.45935 224.255 1.47087 224.758 1.40754 225.359C1.25786 226.781 0.998808 228.169 1.06789 229.677C1.10531 230.493 1.03335 231.254 0.742629 231.864C0.618858 232.126 0.575682 232.444 0.621736 232.8C0.754143 233.853 0.81459 234.94 0.918212 236.005C1.03623 237.191 1.34997 238.334 1.17727 239.623C1.16 239.743 1.21181 239.911 1.24347 240.044C1.5198 241.294 1.24923 242.562 1.27226 243.821C1.27226 243.919 1.24059 244.044 1.20605 244.121C1.04486 244.495 1.05925 244.955 1.05062 245.406C1.03335 246.566 0.990173 247.717 0.990173 248.882C0.984416 251.288 0.932604 253.694 0.898063 256.095C1.04774 256.791 1.04486 257.479 0.863523 258.149C0.863523 258.299 0.857766 258.45 0.854887 258.604C0.854887 258.828 0.854887 259.051 0.852009 259.275C0.926848 259.421 0.915334 259.584 0.895185 259.786C0.771413 261.01 0.742629 262.282 0.820346 263.494C0.852009 263.979 0.866401 264.439 0.854887 264.886C1.05638 264.911 1.25786 264.946 1.44784 265.002C1.86809 265.122 2.26819 265.191 2.69419 265.191C3.29002 265.457 3.91176 265.242 4.5191 265.285C4.62272 265.285 4.72347 265.277 4.82709 265.272C5.16099 265.315 5.51503 265.139 5.83166 265.345C5.85468 265.354 5.87483 265.367 5.89786 265.388C6.09935 265.384 6.29796 265.375 6.49945 265.371C6.55126 265.371 6.60019 265.371 6.652 265.367C6.70381 265.367 6.75275 265.367 6.80456 265.367C7.44356 265.225 8.07969 265.229 8.73597 265.268C9.71751 265.328 10.7077 265.225 11.695 265.204C12.072 265.195 12.452 265.135 12.8233 265.277C13.0219 265.354 13.2177 265.229 13.4134 265.212C14.5935 265.105 15.7737 264.959 16.9596 265.178C17.3539 265.251 17.7454 265.405 17.9526 265.706C18.5398 266.561 19.4062 266.651 20.2698 266.858C21.021 267.034 21.8241 266.995 22.5235 267.403C23.4878 267.768 24.4981 267.863 25.5113 267.962C25.8481 267.996 26.2022 268.018 26.4986 268.237C26.8815 268.185 27.2528 268.258 27.6039 268.404C27.9234 268.538 28.2429 268.507 28.5682 268.49C28.6949 268.482 28.856 268.464 28.8906 268.331C29.0748 267.571 29.7512 267.567 30.2636 267.309C30.4622 267.085 30.6694 267.081 30.8824 267.287C30.9285 267.287 30.9746 267.287 31.0235 267.287C31.271 267.021 31.5934 267.124 31.8841 267.12C32.4569 267.111 32.9894 266.974 33.4471 266.621C33.7666 266.372 34.1523 266.364 34.4977 266.222C34.5467 266.218 34.5956 266.213 34.6445 266.213C34.7481 266.076 34.8978 266.05 35.0533 266.046C35.9312 266.033 36.8005 265.895 37.6812 265.951C38.2598 265.99 38.8009 266.213 39.3881 266.26C39.9926 266.308 40.5913 266.329 41.1958 266.312C42.1054 266.291 43.0149 266.26 43.9245 266.235C43.9734 266.226 44.0253 266.222 44.0742 266.226C44.7794 265.973 45.5364 266.033 46.2531 265.844C46.4345 265.796 46.6532 265.784 46.8058 265.973C46.9065 265.968 47.0044 265.964 47.1052 265.96C47.1685 265.835 47.2807 265.805 47.4045 265.796C47.4937 265.629 47.5369 265.427 47.6924 265.302C47.7384 265.247 47.7845 265.195 47.8334 265.139C47.8852 265.088 47.9456 265.04 47.9888 264.98C48.0378 264.972 48.0867 264.967 48.1356 264.967C48.8523 264.439 49.618 264.4 50.4786 264.525C51.2904 264.641 52.1424 264.598 52.9627 264.413C53.098 264.383 53.2045 264.361 53.3052 264.477C53.4549 264.477 53.6046 264.477 53.7543 264.473C53.855 264.473 53.9558 264.465 54.0565 264.46C54.5055 264.19 54.9661 264.185 55.4324 264.409C57.0443 264.357 58.6562 264.28 60.2652 264.271C61.0453 264.271 61.8167 264.207 62.5939 264.181C62.8961 264.172 63.2041 264.19 63.4545 263.949C63.5063 263.897 63.5898 263.85 63.656 263.85C64.4994 263.885 65.3485 263.485 66.1861 263.893C66.2782 263.936 66.3905 264.013 66.4682 263.992C67.3317 263.734 68.0974 264.202 68.8918 264.379C69.6057 264.538 70.3339 264.624 71.0391 264.821C71.278 264.89 71.491 264.821 71.6666 264.641C72.0753 264.207 72.5848 264.099 73.1317 264.155C74.1392 264.258 75.0718 263.876 76.0245 263.648C76.4275 263.554 76.7643 263.571 77.1183 263.76C77.2968 263.855 77.4868 263.936 77.6796 264.001C77.9991 264.108 78.3445 264.121 78.3733 264.645C78.3848 264.856 78.6813 265.075 78.9605 265.066C79.5419 265.045 80.1176 265.096 80.6933 265.173C81.0301 265.216 81.3208 264.989 81.6317 264.894C82.2563 264.701 82.9269 264.632 83.4019 264.074C83.5084 263.949 83.6955 263.928 83.8308 263.971C84.5389 264.198 85.2239 263.846 85.9234 263.893C87.9699 264.044 90.0136 263.906 92.0573 263.846C92.3854 263.837 92.7164 263.859 93.0273 263.708C93.0935 263.674 93.1798 263.648 93.2489 263.665C94.596 263.996 95.8683 263.322 97.1981 263.339C97.7364 263.343 98.266 263.098 98.833 263.287C99.0489 263.36 99.2677 263.356 99.4145 263.58C99.4663 263.657 99.5872 263.739 99.6678 263.73C100.393 263.631 101.116 263.945 101.835 263.738C102.091 263.665 102.33 263.683 102.581 263.764C102.828 263.846 103.09 263.855 103.315 263.691C103.686 263.425 104.023 263.519 104.357 263.76C104.806 263.734 105.258 263.769 105.704 263.618C106.179 263.455 106.697 263.597 107.172 263.618C108.067 263.661 108.954 263.373 109.849 263.588C110.453 263.734 111.04 263.588 111.619 263.399C111.806 263.339 111.993 263.227 112.203 263.317C112.249 263.339 112.304 263.33 112.353 263.339C112.773 263.416 112.934 262.66 113.323 262.914C113.677 263.146 113.953 263.154 114.302 263.008C114.494 262.927 114.699 262.901 114.811 263.171C114.941 263.485 115.223 263.489 115.493 263.571C116.601 263.902 117.782 264.112 118.688 264.899C119.209 265.35 119.745 265.564 120.369 265.65C120.623 265.642 120.876 265.633 121.129 265.625C121.227 265.625 121.328 265.616 121.426 265.616C121.529 265.612 121.63 265.603 121.734 265.599C121.785 265.595 121.834 265.59 121.886 265.599C122.14 265.59 122.393 265.586 122.643 265.577C122.695 265.577 122.744 265.573 122.796 265.569C122.968 265.547 123.11 265.65 123.256 265.715C123.423 265.711 123.599 265.672 123.717 265.852C124.252 266.286 124.802 266.312 125.484 266.196C126.61 266.003 127.75 265.655 128.915 265.973C129.01 265.998 129.125 266.011 129.215 265.981C130.415 265.586 131.598 266.08 132.79 266.037C133.596 266.471 134.459 266.11 135.294 266.192C135.849 266.248 136.247 266.471 136.635 266.763C137.28 267.244 137.933 267.262 138.633 266.982C138.82 266.909 139.007 266.828 139.185 266.733C139.347 266.647 139.514 266.604 139.695 266.604C139.963 266.389 140.239 266.381 140.515 266.523C140.55 266.531 140.584 266.548 140.619 266.574C140.72 266.63 140.82 266.682 140.918 266.737C140.97 266.785 141.019 266.836 141.065 266.888H141.071C141.123 266.939 141.172 266.991 141.22 267.038C141.338 267.21 141.514 267.18 141.681 267.18C141.75 267.055 141.859 267.021 141.986 267.012C142.032 267.004 142.078 267.004 142.127 267.004C142.182 266.956 142.234 266.905 142.283 266.853C142.432 266.84 142.579 266.832 142.729 266.819C142.896 266.604 143.132 266.673 143.348 266.656C143.445 266.647 143.54 266.639 143.638 266.63C143.903 266.355 144.246 266.501 144.551 266.454C144.603 266.454 144.657 266.454 144.709 266.449C144.758 266.441 144.807 266.441 144.859 266.441C144.957 266.432 145.052 266.428 145.149 266.419C145.207 266.372 145.265 266.325 145.311 266.265C145.357 266.256 145.406 266.252 145.452 266.252C145.506 266.2 145.564 266.157 145.607 266.097C145.705 266.089 145.806 266.08 145.904 266.076C146.013 265.904 146.191 265.917 146.356 265.891C146.404 265.839 146.453 265.788 146.502 265.741C146.603 265.53 146.747 265.363 146.951 265.255C146.997 265.247 147.043 265.238 147.092 265.242C147.144 265.156 147.199 265.152 147.251 265.242H147.254C147.305 265.294 147.357 265.345 147.412 265.393C147.988 265.363 148.558 265.332 149.099 265.088C149.646 264.843 150.181 265.281 150.731 265.139C151.453 265.577 152.328 265.569 153.056 266.003C153.828 265.955 154.602 265.857 155.365 265.839C156.349 265.818 157.394 265.788 158.324 266.23C159.329 266.707 160.316 266.634 161.318 266.321C161.582 266.239 161.801 266.209 162.031 266.364C162.083 266.407 162.138 266.45 162.19 266.492C162.239 266.492 162.29 266.492 162.339 266.501C163.543 266.793 164.68 266.462 165.793 266.05C166.51 265.788 167.086 266.02 167.722 266.351C168.269 266.634 168.934 266.553 169.484 266.321C170.128 266.05 170.704 266.127 171.303 266.368C171.355 266.368 171.406 266.368 171.458 266.372C171.51 266.419 171.565 266.467 171.619 266.51C171.717 266.51 171.815 266.51 171.913 266.51C171.965 266.51 172.017 266.501 172.068 266.497C172.212 266.419 172.348 266.316 172.52 266.321C172.63 266.136 172.805 266.162 172.975 266.157C173.024 266.149 173.073 266.149 173.122 266.149C173.249 266.14 173.364 266.166 173.436 266.286C173.485 266.286 173.531 266.286 173.58 266.295C173.752 266.273 173.893 266.364 174.043 266.428C174.144 266.428 174.247 266.428 174.348 266.428C174.705 266.462 175.085 266.26 175.419 266.54C176.038 266.535 176.619 266.669 177.111 267.081C177.416 267.335 177.652 267.279 177.894 266.995C178.13 266.72 178.34 266.381 178.637 266.205C179.503 265.693 180.387 265.225 181.4 265.045C182.146 264.916 182.874 264.89 183.619 264.95C183.916 264.976 184.184 264.748 184.469 264.649C185.102 264.435 185.732 264.074 186.42 264.473C186.613 264.585 186.774 264.499 186.858 264.306C187.05 263.863 187.361 263.842 187.738 264.001C187.761 264.009 187.787 264.013 187.81 264.022C188.432 264.22 189.034 264.344 189.71 264.168C190.266 264.022 190.864 264.151 191.368 264.512C191.685 264.735 192.036 264.718 192.39 264.709C192.646 264.735 192.928 264.572 193.147 264.838H193.15C193.202 264.89 193.253 264.937 193.305 264.989C193.36 265.036 193.418 265.088 193.472 265.135C193.521 265.135 193.57 265.135 193.616 265.148C193.668 265.195 193.723 265.242 193.78 265.29C193.829 265.285 193.875 265.285 193.924 265.29C194.249 265.105 194.632 265.036 194.917 264.761C195.156 264.529 195.418 264.632 195.689 264.714C196.169 264.851 196.661 264.95 197.096 264.555C197.145 264.555 197.203 264.533 197.246 264.546C197.842 264.748 198.455 264.817 199.079 264.808C199.687 264.787 200.294 264.77 200.901 264.748C200.953 264.748 201.002 264.748 201.054 264.744C201.27 264.744 201.497 264.662 201.673 264.868C201.716 264.868 201.762 264.864 201.805 264.868C201.958 264.675 202.113 264.662 202.28 264.851C202.43 264.86 202.591 264.83 202.729 264.881C203.621 265.191 204.571 264.997 205.472 265.229C206.451 264.791 207.329 265.302 208.233 265.556C208.483 265.625 208.731 265.599 208.981 265.603C209.246 265.405 209.56 265.363 209.85 265.427C210.412 265.552 210.956 265.126 211.543 265.053C211.606 265.045 211.693 265.1 211.744 265.152C212.268 265.689 212.884 264.52 213.46 264.993V265.032C214.122 265.105 214.827 265.006 215.515 264.899C216.091 264.808 216.721 264.847 217.282 265.006C217.703 265.126 218.103 265.195 218.529 265.195C219.125 265.461 219.746 265.247 220.354 265.29C220.457 265.29 220.558 265.281 220.662 265.277C220.996 265.32 221.35 265.143 221.666 265.35C221.689 265.358 221.709 265.371 221.732 265.393C221.934 265.388 222.133 265.38 222.334 265.375C222.386 265.375 222.435 265.375 222.487 265.371C222.538 265.371 222.587 265.371 222.639 265.371C223.278 265.229 223.914 265.234 224.571 265.272C225.552 265.332 226.542 265.229 227.53 265.208C227.907 265.199 228.287 265.139 228.658 265.281C228.857 265.358 229.052 265.234 229.248 265.216C230.428 265.109 231.608 264.963 232.794 265.182C233.189 265.255 233.58 265.41 233.787 265.711C234.374 266.566 235.241 266.656 236.104 266.862C236.856 267.038 237.659 266.999 238.358 267.408C239.322 267.773 240.333 267.867 241.346 267.966C241.683 268.001 242.037 268.022 242.333 268.241C242.716 268.19 243.087 268.263 243.439 268.409C243.758 268.542 244.078 268.512 244.403 268.495C244.529 268.486 244.691 268.469 244.725 268.336C244.909 267.575 245.586 267.571 246.098 267.313C246.297 267.09 246.504 267.085 246.717 267.292C246.763 267.292 246.809 267.292 246.858 267.292C247.106 267.025 247.428 267.128 247.719 267.124C248.292 267.115 248.824 266.978 249.282 266.626C249.601 266.376 249.987 266.368 250.332 266.226C250.381 266.222 250.43 266.218 250.479 266.218C250.583 266.08 250.732 266.054 250.888 266.05C251.766 266.037 252.635 265.9 253.516 265.955C254.094 265.994 254.636 266.217 255.223 266.265C255.827 266.312 256.426 266.333 257.03 266.316C257.94 266.295 258.85 266.265 259.759 266.239C259.808 266.23 259.86 266.226 259.909 266.23C260.614 265.977 261.371 266.037 262.088 265.848C262.269 265.801 262.488 265.788 262.64 265.977C262.741 265.973 262.839 265.968 262.94 265.964C263.003 265.839 263.115 265.809 263.239 265.801C263.328 265.633 263.372 265.431 263.527 265.307C263.573 265.251 263.619 265.199 263.668 265.143C263.72 265.092 263.78 265.045 263.823 264.984C263.872 264.976 263.921 264.972 263.97 264.972C264.687 264.443 265.453 264.404 266.313 264.529C267.125 264.645 267.977 264.602 268.797 264.417C268.933 264.387 269.039 264.366 269.14 264.482C269.29 264.482 269.439 264.482 269.589 264.477C269.69 264.477 269.79 264.469 269.891 264.465C270.34 264.194 270.801 264.19 271.267 264.413C272.879 264.361 274.491 264.284 276.1 264.276C276.88 264.276 277.651 264.211 278.428 264.185C278.731 264.177 279.039 264.194 279.289 263.953C279.341 263.902 279.424 263.855 279.491 263.855C280.334 263.889 281.183 263.489 282.021 263.897C282.113 263.94 282.225 264.018 282.303 263.996C283.166 263.739 283.932 264.207 284.726 264.383C285.44 264.542 286.168 264.628 286.874 264.825C287.113 264.894 287.326 264.825 287.501 264.645C287.91 264.211 288.419 264.104 288.966 264.16C289.974 264.263 290.906 263.88 291.859 263.653C292.262 263.558 292.599 263.575 292.953 263.764C293.131 263.859 293.321 263.94 293.514 264.005C293.834 264.112 294.179 264.125 294.208 264.649C294.219 264.86 294.516 265.079 294.795 265.07C295.377 265.049 295.952 265.1 296.528 265.178C296.865 265.221 297.155 264.993 297.466 264.899C298.091 264.705 298.762 264.636 299.236 264.078C299.343 263.953 299.53 263.932 299.665 263.975C300.373 264.203 301.058 263.85 301.758 263.897C303.804 264.048 305.848 263.91 307.892 263.85C308.22 263.842 308.551 263.863 308.862 263.713C308.928 263.678 309.014 263.653 309.084 263.67C310.431 264.001 311.703 263.326 313.033 263.343C313.571 263.348 314.101 263.103 314.668 263.292C314.883 263.365 315.102 263.36 315.249 263.584C315.301 263.661 315.422 263.743 315.502 263.734C316.228 263.635 316.95 263.949 317.67 263.743C317.926 263.67 318.165 263.687 318.415 263.769C318.663 263.85 318.925 263.859 319.149 263.696C319.521 263.429 319.857 263.524 320.191 263.764C320.64 263.738 321.092 263.773 321.538 263.623C322.013 263.459 322.531 263.601 323.006 263.623C323.133 263.627 323.26 263.623 323.383 263.623C323.383 263.623 323.383 263.618 323.381 263.614C323.375 263.468 323.369 263.317 323.366 263.171C323.251 263.008 323.26 262.742 323.242 262.497C323.208 262.424 323.173 262.351 323.142 262.278C323.001 262.127 322.888 261.913 322.816 261.608C322.811 261.539 322.805 261.47 322.808 261.397C322.75 261.32 322.747 261.238 322.808 261.161C322.839 261.075 322.877 261.002 322.908 260.92C322.891 260.061 322.868 259.21 322.707 258.402C322.543 257.586 322.837 256.787 322.742 255.966C323.035 254.888 323.029 253.582 323.32 252.495C323.288 251.343 323.222 250.188 323.211 249.049C323.196 247.58 323.176 246.02 323.473 244.633C323.792 243.133 323.743 241.659 323.533 240.164C323.478 239.769 323.458 239.443 323.562 239.099C323.591 239.022 323.619 238.94 323.648 238.863C323.648 238.79 323.648 238.712 323.654 238.639C323.85 236.843 323.628 235.146 323.352 233.483C323.176 232.414 323.332 231.554 323.553 230.605C323.743 229.789 323.689 228.796 323.533 227.976C323.352 227.013 323.404 226.154 323.565 225.26C323.565 225.183 323.565 225.106 323.568 225.028C323.599 224.951 323.631 224.869 323.66 224.788C323.66 224.642 323.66 224.495 323.66 224.349C323.66 224.272 323.654 224.195 323.651 224.117C323.599 223.903 323.53 223.701 323.533 223.443C323.409 223.28 323.427 223.018 323.424 222.764C323.418 222.691 323.418 222.618 323.418 222.545C323.412 222.356 323.429 222.184 323.51 222.077C323.51 222.004 323.51 221.935 323.516 221.862C323.501 221.604 323.562 221.394 323.605 221.17C323.605 221.02 323.605 220.865 323.605 220.715C323.628 220.182 323.493 219.615 323.68 219.116C323.677 218.193 323.766 217.325 324.043 216.59C324.212 216.135 324.175 215.782 323.985 215.422C323.801 215.069 323.573 214.756 323.455 214.313C323.113 213.02 322.796 211.701 322.678 210.189C322.592 209.076 322.575 207.989 322.615 206.876C322.632 206.434 322.48 206.034 322.413 205.609C322.269 204.663 322.028 203.723 322.295 202.696C322.37 202.408 322.313 202.167 322.183 202.043C321.887 201.755 321.872 201.291 321.979 200.728C321.985 200.694 321.987 200.655 321.993 200.621C322.126 199.693 322.209 198.795 322.091 197.785C321.993 196.956 322.08 196.062 322.321 195.31C322.471 194.838 322.459 194.314 322.454 193.785C322.471 193.403 322.362 192.982 322.54 192.655C322.572 192.569 322.606 192.492 322.641 192.419C322.672 192.337 322.707 192.251 322.739 192.17C322.739 192.097 322.739 192.024 322.747 191.955C322.779 191.877 322.811 191.796 322.842 191.71C322.839 191.637 322.839 191.568 322.842 191.495C322.719 191.01 322.672 190.438 322.488 190.013C322.333 189.656 322.402 189.265 322.457 188.861C322.549 188.144 322.615 187.409 322.35 186.76C322.35 186.687 322.336 186.602 322.344 186.537C322.48 185.648 322.526 184.733 322.52 183.8C322.506 182.894 322.494 181.987 322.48 181.081C322.48 181.003 322.48 180.93 322.477 180.853C322.477 180.531 322.422 180.191 322.56 179.929C322.56 179.865 322.557 179.796 322.56 179.732C322.431 179.504 322.422 179.272 322.549 179.023C322.554 178.799 322.534 178.559 322.569 178.352C322.776 177.021 322.647 175.603 322.802 174.258C322.508 172.797 322.851 171.487 323.021 170.138C323.067 169.764 323.05 169.395 323.052 169.021C322.92 168.626 322.891 168.157 322.934 167.723C323.018 166.885 322.733 166.073 322.684 165.197C322.678 165.103 322.716 164.974 322.75 164.896C323.11 164.114 322.327 163.195 322.644 162.336H322.67C322.719 161.347 322.652 160.295 322.58 159.268C322.52 158.409 322.546 157.468 322.652 156.63C322.733 156.003 322.779 155.406 322.779 154.77C322.957 153.88 322.813 152.952 322.842 152.046C322.842 151.891 322.837 151.741 322.834 151.586C322.862 151.088 322.744 150.559 322.883 150.087C322.888 150.052 322.897 150.022 322.911 149.988C322.908 149.687 322.903 149.391 322.9 149.09C322.9 149.013 322.9 148.94 322.897 148.862C322.897 148.785 322.897 148.712 322.897 148.635C322.802 147.681 322.805 146.731 322.831 145.752C322.871 144.287 322.802 142.809 322.788 141.335C322.782 140.772 322.742 140.205 322.837 139.651C322.888 139.354 322.805 139.062 322.793 138.77C322.721 137.009 322.624 135.247 322.77 133.477C322.819 132.888 322.923 132.304 323.124 131.995C323.697 131.118 323.758 129.825 323.896 128.536C324.014 127.415 323.988 126.216 324.261 125.172C324.506 123.733 324.569 122.225 324.636 120.712C324.659 120.21 324.673 119.681 324.82 119.239C324.785 118.667 324.834 118.113 324.932 117.589C325.021 117.112 325.001 116.635 324.99 116.15L324.987 116.201Z" fill="white"/>
<path d="M0.244665 12.8135C0.282084 12.792 0.322382 12.7662 0.365558 12.7276C0.305111 12.7104 0.27057 12.749 0.244665 12.8135Z" fill="white"/>
<path d="M2.69131 265.264C2.66541 265.328 2.64814 265.388 2.63374 265.444C2.67692 265.41 2.70283 265.354 2.69131 265.264Z" fill="white"/>
<path d="M108.041 3.22828C108.067 3.16813 108.084 3.11228 108.099 3.05643C108.055 3.0908 108.03 3.14235 108.041 3.22828Z" fill="white"/>
</svg>
