<?xml version="1.0" encoding="utf-8"?>
<!-- Generator: Adobe Illustrator 23.0.1, SVG Export Plug-In . SVG Version: 6.00 Build 0)  -->
<svg version="1.1" id="Layer_1" xmlns="http://www.w3.org/2000/svg" xmlns:xlink="http://www.w3.org/1999/xlink" x="0px" y="0px"
	 viewBox="0 0 367 312.8" style="enable-background:new 0 0 367 312.8;" xml:space="preserve">
<style type="text/css">
	.st0{fill:#171717;}
</style>
<g>
	<path class="st0" d="M362.8,284.8c-1-0.2-1-0.9-1.4-1.4c-0.3-0.2-0.3-0.4,0-0.7v-0.1c-0.4-0.3-0.2-0.6-0.2-0.9
		c0-0.6-0.2-1.2-0.7-1.6c-0.3-0.3-0.3-0.7-0.5-1.1c0-0.1,0-0.1,0-0.2c-0.2-0.1-0.2-0.3-0.2-0.4c0-0.9-0.2-1.8-0.1-2.8
		c0.1-0.6,0.3-1.2,0.4-1.8c0.1-0.6,0.1-1.3,0.1-1.9c0-1-0.1-1.9-0.1-2.9c0-0.1,0-0.1,0-0.2c-0.3-0.7-0.3-1.5-0.5-2.3
		c-0.1-0.2-0.1-0.4,0.2-0.6c0-0.1,0-0.2,0-0.3c-0.2-0.1-0.2-0.2-0.2-0.3c-0.2-0.1-0.5-0.1-0.7-0.3c-0.1,0-0.1-0.1-0.2-0.1
		c-0.1-0.1-0.1-0.1-0.2-0.2c0-0.1,0-0.1,0-0.2c-0.7-0.8-0.8-1.6-0.6-2.5c0.2-0.9,0.1-1.7-0.1-2.6c0-0.1-0.1-0.3,0.1-0.4
		c0-0.2,0-0.3,0-0.5c0-0.1,0-0.2,0-0.3c-0.4-0.5-0.4-1-0.1-1.4c-0.1-1.7-0.2-3.4-0.2-5.1c0-0.8-0.1-1.6-0.1-2.4c0-0.3,0-0.6-0.3-0.9
		c-0.1-0.1-0.1-0.1-0.1-0.2c0-0.9-0.5-1.8,0.1-2.7c0.1-0.1,0.2-0.2,0.1-0.3c-0.3-0.9,0.3-1.7,0.5-2.5c0.2-0.7,0.3-1.5,0.6-2.3
		c0.1-0.3,0-0.5-0.2-0.7c-0.6-0.4-0.7-1-0.6-1.5c0.1-1.1-0.4-2-0.7-3c-0.1-0.4-0.1-0.8,0.1-1.1c0.1-0.2,0.2-0.4,0.3-0.6
		c0.1-0.3,0.2-0.7,0.9-0.7c0.3,0,0.6-0.3,0.6-0.6c0-0.6,0-1.2,0.1-1.8c0.1-0.4-0.2-0.7-0.4-1c-0.3-0.7-0.4-1.4-1.1-1.9
		c-0.2-0.1-0.2-0.3-0.1-0.5c0.3-0.7-0.2-1.5-0.1-2.2c0.2-2.1,0-4.3-0.1-6.4c0-0.3,0-0.7-0.2-1c0-0.1-0.1-0.2-0.1-0.2
		c0.4-1.4-0.5-2.7-0.4-4.1c0-0.6-0.3-1.1-0.1-1.7c0.1-0.2,0.1-0.5,0.4-0.6c0.1-0.1,0.2-0.2,0.2-0.3c-0.1-0.8,0.3-1.5,0-2.3
		c-0.1-0.3-0.1-0.5,0-0.8c0.1-0.3,0.1-0.5-0.1-0.8c-0.4-0.4-0.2-0.7,0.1-1.1c0-0.5,0-0.9-0.2-1.4c-0.2-0.5,0-1,0-1.5
		c0.1-0.9-0.3-1.9,0-2.8c0.2-0.6,0-1.2-0.3-1.9c-0.1-0.2-0.2-0.4-0.1-0.6c0,0,0-0.1,0-0.2c0.1-0.4-0.9-0.6-0.6-1
		c0.3-0.4,0.3-0.7,0.1-1c-0.1-0.2-0.1-0.4,0.2-0.5c0.4-0.1,0.4-0.4,0.5-0.7c0.4-1.2,0.7-2.4,1.8-3.4c0.6-0.5,0.9-1.1,1-1.8
		c0-0.3,0-0.5,0-0.8c0-0.1,0-0.2,0-0.3c0-0.1,0-0.2,0-0.3c0-0.1,0-0.1,0-0.2c0-0.3,0-0.5,0-0.8c0-0.1,0-0.1,0-0.2
		c0-0.2,0.1-0.3,0.2-0.5c0-0.2-0.1-0.4,0.2-0.5c0.6-0.6,0.6-1.1,0.5-1.9c-0.3-1.2-0.7-2.4-0.3-3.6c0-0.1,0.1-0.2,0-0.3
		c-0.5-1.3,0.1-2.5,0.1-3.8c0.6-0.8,0.1-1.8,0.2-2.6c0.1-0.6,0.4-1,0.8-1.4c0.6-0.7,0.7-1.4,0.3-2.1c-0.1-0.2-0.2-0.4-0.3-0.6
		c-0.1-0.2-0.2-0.3-0.2-0.5c-0.3-0.3-0.3-0.6-0.1-0.9c0,0,0-0.1,0.1-0.1c0.1-0.1,0.1-0.2,0.2-0.3c0.1-0.1,0.1-0.1,0.2-0.2v0
		c0.1-0.1,0.1-0.1,0.2-0.2c0.2-0.1,0.2-0.3,0.2-0.5c-0.2-0.1-0.2-0.2-0.2-0.3c0,0,0-0.1,0-0.1c-0.1-0.1-0.1-0.1-0.2-0.2
		c0-0.2,0-0.3,0-0.5c-0.3-0.2-0.2-0.4-0.2-0.7c0-0.1,0-0.2,0-0.3c-0.4-0.3-0.2-0.6-0.2-1c0-0.1,0-0.1,0-0.2c0-0.1,0-0.1,0-0.2
		c0-0.1,0-0.2,0-0.3c-0.1-0.1-0.1-0.1-0.2-0.2c0,0,0-0.1,0-0.1c-0.1-0.1-0.1-0.1-0.2-0.2c0-0.1,0-0.2,0-0.3
		c-0.2-0.1-0.2-0.3-0.2-0.5c-0.1-0.1-0.1-0.1-0.2-0.2c-0.3-0.1-0.5-0.3-0.6-0.5c0,0,0-0.1,0-0.1c-0.1-0.1-0.1-0.1,0-0.2v0
		c0.1-0.1,0.1-0.1,0.2-0.2c0-0.6-0.1-1.2-0.4-1.8c-0.3-0.6,0.3-1.1,0.1-1.7c0.6-0.8,0.6-1.7,1.2-2.4c-0.1-0.8-0.2-1.6-0.2-2.4
		c0-1-0.1-2.1,0.5-3.1c0.6-1.1,0.5-2.1,0.1-3.1c-0.1-0.3-0.1-0.5,0.1-0.7c0.1-0.1,0.1-0.1,0.2-0.2c0-0.1,0-0.1,0-0.2
		c0.4-1.3-0.1-2.5-0.6-3.6c-0.4-0.8,0-1.4,0.4-2c0.4-0.6,0.3-1.3,0-1.8c-0.4-0.7-0.3-1.3,0.1-1.9c0-0.1,0-0.1,0-0.2
		c0.1-0.1,0.1-0.1,0.2-0.2v-0.3c0-0.1,0-0.1,0-0.2c-0.1-0.2-0.2-0.3-0.2-0.5c-0.2-0.1-0.2-0.3-0.2-0.5c0-0.1,0-0.1,0-0.2
		c0-0.1,0-0.3,0.2-0.3c0-0.1,0-0.1,0-0.2c0-0.2,0.1-0.3,0.2-0.5v-0.3c0-0.4-0.2-0.8,0.2-1.1c0-0.6,0.2-1.3,0.7-1.8
		c0.3-0.3,0.3-0.6-0.1-0.8c-0.4-0.2-0.8-0.5-1.1-0.8c-0.7-0.9-1.3-1.8-1.6-2.9c-0.2-0.8-0.2-1.5-0.1-2.3c0-0.3-0.3-0.6-0.4-0.9
		c-0.3-0.7-0.8-1.3-0.2-2c0.1-0.2,0-0.4-0.2-0.5c-0.6-0.2-0.6-0.5-0.4-0.9c0,0,0-0.1,0-0.1c0.3-0.7,0.4-1.3,0.2-2
		c-0.2-0.6,0-1.2,0.5-1.7c0.3-0.3,0.3-0.7,0.3-1.1c0-0.3-0.2-0.6,0.2-0.8v0c0.1-0.1,0.1-0.1,0.2-0.2c0.1-0.1,0.1-0.1,0.2-0.2
		c0-0.1,0-0.1,0-0.2c0.1-0.1,0.1-0.1,0.2-0.2c0-0.1,0-0.1,0-0.2c-0.2-0.3-0.3-0.7-0.7-1c-0.3-0.3-0.2-0.5-0.1-0.8
		c0.2-0.5,0.3-1-0.2-1.5c0-0.1,0-0.1,0-0.2c0.3-0.6,0.4-1.3,0.4-1.9c0-0.6-0.1-1.3-0.1-1.9c0-0.1,0-0.1,0-0.2c0-0.2-0.1-0.5,0.2-0.6
		c0,0,0-0.1,0-0.1c-0.3-0.2-0.3-0.3,0-0.5c0-0.2,0-0.3,0-0.5c0.4-0.9,0.2-1.9,0.5-2.9c-0.6-1,0.1-1.9,0.4-2.9
		c0.1-0.3,0.1-0.5,0.1-0.8c-0.3-0.3-0.3-0.6-0.2-0.9c0.2-0.6-0.4-1.2-0.5-1.8c0-0.1,0.1-0.2,0.1-0.2c0.7-0.5-0.8-1.2-0.2-1.8h0.1
		c0.1-0.7,0-1.4-0.2-2.2c-0.1-0.6-0.1-1.3,0.1-1.9c0.2-0.4,0.3-0.9,0.3-1.3c0.4-0.6,0.1-1.3,0.1-1.9c0-0.1,0-0.2,0-0.3
		c0.1-0.3-0.2-0.7,0.1-1.1c0,0,0,0,0.1-0.1c0-0.2,0-0.4,0-0.6c0-0.1,0-0.1,0-0.2v-0.2c-0.2-0.7-0.2-1.3-0.1-2c0.1-1-0.1-2.1-0.1-3.1
		c0-0.4-0.1-0.8,0.1-1.2c0.1-0.2-0.1-0.4-0.1-0.6c-0.1-1.2-0.3-2.5,0-3.7c0.1-0.4,0.3-0.8,0.7-1c1.1-0.6,1.3-1.5,1.5-2.4
		c0.2-0.8,0.2-1.6,0.7-2.4c0.5-1,0.6-2.1,0.7-3.1c0-0.4,0.1-0.7,0.4-1c-0.1-0.4,0-0.8,0.2-1.2c0.2-0.3,0.1-0.7,0.1-1
		c0-0.1,0-0.3-0.2-0.3c-1-0.2-1-0.9-1.4-1.4c-0.3-0.2-0.3-0.4,0-0.6v-0.1c-0.4-0.3-0.2-0.6-0.2-0.9c0-0.6-0.2-1.2-0.7-1.6
		c-0.3-0.3-0.3-0.7-0.5-1.1c0-0.1,0-0.1,0-0.2c-0.2-0.1-0.2-0.3-0.2-0.4c0-0.9-0.2-1.8-0.1-2.8c0.1-0.6,0.4-1.2,0.4-1.8
		c0.1-0.6,0.1-1.3,0.1-1.9c0-1-0.1-1.9-0.1-2.9c0-0.1,0-0.1,0-0.2c-0.3-0.7-0.3-1.5-0.5-2.3c-0.1-0.2-0.1-0.4,0.2-0.6
		c0-0.1,0-0.2,0-0.3c-0.2-0.1-0.2-0.2-0.2-0.3c-0.2-0.1-0.5-0.1-0.7-0.3c-0.1,0-0.1-0.1-0.2-0.1c-0.1-0.1-0.1-0.1-0.2-0.2
		c0-0.1,0-0.1,0-0.2c-0.7-0.8-0.8-1.6-0.6-2.5c0.2-0.9,0.1-1.7-0.1-2.6c0-0.1-0.1-0.3,0.1-0.4c0-0.2,0-0.3,0-0.5c0-0.1,0-0.2,0-0.3
		c-0.4-0.5-0.4-1-0.1-1.4c-0.1-1.7-0.2-3.4-0.2-5.1c0-0.8-0.1-1.6-0.1-2.4c0-0.3,0-0.6-0.3-0.9c-0.1-0.1-0.1-0.1-0.1-0.2
		c0-0.9-0.5-1.8,0.1-2.7c0.1-0.1,0.2-0.2,0.1-0.3c-0.3-0.9,0.3-1.7,0.5-2.5c0.2-0.7,0.3-1.5,0.6-2.3c0.1-0.3,0-0.5-0.2-0.7
		c-0.6-0.4-0.7-1-0.6-1.5c0.1-1.1-0.4-2-0.7-3c-0.1-0.4-0.1-0.8,0.2-1.1c0.1-0.2,0.2-0.4,0.3-0.6c0.1-0.3,0.2-0.7,0.9-0.7
		c0.3,0,0.6-0.3,0.6-0.6c0-0.6,0-1.2,0.1-1.8c0.1-0.4-0.2-0.7-0.4-1c-0.3-0.7,0.2-1.3-0.5-1.8c-0.2-0.1,0.1-0.3,0.2-0.4
		c0.1-0.2,0.6-0.2,0.7-0.8H10.4c0.1,1.3,1,4.1-0.1,5.2c-0.1,0.1-0.2,0.1-0.2,0.2c0,0-0.1,0.1-0.1,0.1C9.4,6,8.7,6.3,8.2,6.8
		C8,7,7.8,7.4,7.8,7.8C7.9,8,8,8.2,8.1,8.4C8.4,9,8.7,9.7,8.7,10.5c0.1,1.6-1.2,2.8-1.8,4.2c0,0.1-0.1,0.1-0.1,0.1
		c0,0.3,0,0.6,0,0.8c0,1,0.1,1.9,0.1,2.9c0,0.1,0,0.1,0,0.2c0.3,0.7,0.2,1.5,0.5,2.3c0.1,0.2,0.1,0.4-0.2,0.6c0,0.1,0,0.2,0,0.3
		c0.2,0.1,0.2,0.2,0.2,0.3c0.2,0.1,0.5,0.1,0.6,0.3c0.1,0,0.1,0.1,0.2,0.1c0.1,0.1,0.1,0.1,0.2,0.2c0,0.1,0,0.1,0,0.2
		c0.7,0.8,0.7,1.6,0.6,2.5C9,26.3,9.1,27.2,9.3,28c0,0.1,0.1,0.3-0.1,0.4c0,0.2,0,0.3,0,0.5c0,0.1,0,0.2,0,0.3
		c0.3,0.5,0.4,1,0.1,1.4c0.1,1.7,0.2,3.4,0.2,5.1c0,0.8,0.1,1.6,0.1,2.4c0,0.3,0,0.6,0.3,0.9c0.1,0.1,0.1,0.1,0.1,0.2
		c0,0.9,0.5,1.8-0.1,2.7c-0.1,0.1-0.2,0.2-0.1,0.3c0.3,0.9-0.3,1.7-0.5,2.5C9.1,45.5,9,46.3,8.8,47c-0.1,0.3,0,0.5,0.2,0.7
		c0.6,0.4,0.7,1,0.6,1.5c-0.1,1.1,0.4,2,0.6,3c0.1,0.4,0.1,0.8-0.1,1.1C10,53.6,9.9,53.8,9.8,54c-0.1,0.3-0.2,0.7-0.8,0.7
		c-0.3,0-0.6,0.3-0.5,0.6c0,0.6,0,1.2-0.1,1.8c-0.1,0.4,0.2,0.7,0.4,1C8.9,58.8,9,59.5,9.7,60c0.2,0.1,0.2,0.3,0.1,0.4
		c-0.3,0.7,0.2,1.5,0.1,2.2c-0.2,2.1,0,4.3,0.1,6.4c0,0.3,0,0.7,0.2,1c0,0.1,0.1,0.2,0.1,0.2c-0.4,1.4,0.4,2.7,0.4,4.1
		c0,0.6,0.3,1.1,0.1,1.7c-0.1,0.2-0.1,0.5-0.4,0.6c-0.1,0.1-0.2,0.2-0.2,0.3c0.1,0.8-0.3,1.5,0,2.3c0.1,0.3,0.1,0.5,0,0.8
		c-0.1,0.3-0.1,0.5,0.1,0.8c0.3,0.4,0.2,0.7-0.1,1.1c0,0.5,0,0.9,0.2,1.4c0.2,0.5,0,1,0,1.5c-0.1,0.9,0.3,1.9,0,2.8
		c-0.2,0.6,0,1.2,0.2,1.9c0.1,0.2,0.2,0.4,0.1,0.6c0,0,0,0.1,0,0.2c-0.1,0.4,0.9,0.6,0.5,1c-0.3,0.4-0.3,0.7-0.1,1
		c0.1,0.2,0.1,0.4-0.2,0.5c-0.4,0.1-0.4,0.4-0.5,0.7C10,94.8,9.7,96,8.7,97c-0.6,0.5-0.9,1.1-1,1.8c0,0.3,0,0.5,0,0.8
		c0,0.1,0,0.2,0,0.3c0,0.1,0,0.2,0,0.3c0,0.1,0,0.1,0,0.2c0,0.3,0,0.5,0,0.8c0,0.1,0,0.1,0,0.2c0,0.2-0.1,0.3-0.2,0.5
		c0,0.2,0.1,0.4-0.2,0.5c-0.6,0.6-0.6,1.1-0.4,1.9c0.2,1.2,0.7,2.4,0.3,3.6c0,0.1,0,0.2,0,0.3c0.5,1.3-0.1,2.5-0.1,3.8
		c-0.6,0.8-0.1,1.8-0.2,2.6c-0.1,0.6-0.4,1-0.7,1.4c-0.6,0.7-0.6,1.4-0.3,2.1c0.1,0.2,0.2,0.4,0.3,0.6c0.1,0.2,0.2,0.3,0.2,0.5
		c0.3,0.3,0.3,0.6,0.1,0.9c0,0,0,0.1-0.1,0.1c-0.1,0.1-0.1,0.2-0.2,0.3c-0.1,0.1-0.1,0.1-0.2,0.2v0c-0.1,0.1-0.1,0.1-0.2,0.2
		c-0.2,0.1-0.2,0.3-0.2,0.5c0.2,0.1,0.2,0.2,0.2,0.3c0,0,0,0.1,0,0.1c0.1,0.1,0.1,0.1,0.2,0.2c0,0.2,0,0.3,0,0.5
		c0.3,0.2,0.2,0.4,0.2,0.7c0,0.1,0,0.2,0,0.3c0.4,0.3,0.2,0.6,0.2,1c0,0.1,0,0.1,0,0.2c0,0.1,0,0.1,0,0.2c0,0.1,0,0.2,0,0.3
		c0.1,0.1,0.1,0.1,0.2,0.2c0,0,0,0.1,0,0.1c0.1,0.1,0.1,0.1,0.2,0.2c0,0.1,0,0.2,0,0.3c0.2,0.1,0.2,0.3,0.2,0.5
		c0.1,0.1,0.1,0.1,0.2,0.2c0.3,0.1,0.5,0.3,0.6,0.5c0,0,0,0.1,0,0.1c0.1,0.1,0.1,0.1,0,0.2v0c-0.1,0.1-0.1,0.1-0.2,0.2
		c0,0.6,0.1,1.2,0.4,1.8c0.3,0.6-0.2,1.1-0.1,1.7c-0.6,0.8-0.6,1.7-1.1,2.4c0.1,0.8,0.2,1.6,0.2,2.4c0,1,0.1,2.1-0.5,3.1
		c-0.6,1.1-0.5,2.1-0.1,3.1c0.1,0.3,0.1,0.5-0.1,0.7c-0.1,0.1-0.1,0.1-0.2,0.2c0,0.1,0,0.1,0,0.2c-0.4,1.3,0.1,2.5,0.6,3.6
		c0.3,0.8,0,1.4-0.4,2c-0.4,0.6-0.3,1.3,0,1.8c0.4,0.7,0.2,1.3-0.1,1.9c0,0.1,0,0.1,0,0.2c-0.1,0.1-0.1,0.1-0.2,0.2v0.3
		c0,0.1,0,0.1,0,0.2c0.1,0.2,0.2,0.3,0.2,0.5c0.2,0.1,0.2,0.3,0.2,0.5c0,0.1,0,0.1,0,0.2c0,0.1,0,0.3-0.2,0.3c0,0.1,0,0.1,0,0.2
		c0,0.2-0.1,0.3-0.2,0.5v0.3c0,0.4,0.2,0.8-0.1,1.1c0,0.6-0.2,1.3-0.7,1.8c-0.3,0.3-0.3,0.6,0.1,0.8c0.4,0.2,0.8,0.5,1,0.8
		c0.7,0.9,1.3,1.8,1.5,2.9c0.2,0.8,0.2,1.5,0.1,2.3c0,0.3,0.3,0.6,0.4,0.9c0.3,0.7,0.7,1.3,0.2,2c-0.1,0.2,0,0.4,0.2,0.5
		c0.6,0.2,0.6,0.5,0.4,0.9c0,0,0,0.1,0,0.1c-0.3,0.7-0.4,1.3-0.2,2c0.2,0.6,0,1.2-0.4,1.7c-0.3,0.3-0.3,0.7-0.3,1.1
		c0,0.3,0.2,0.6-0.2,0.8v0c-0.1,0.1-0.1,0.1-0.2,0.2c-0.1,0.1-0.1,0.1-0.2,0.2c0,0.1,0,0.1,0,0.2c-0.1,0.1-0.1,0.1-0.2,0.2
		c0,0.1,0,0.1,0,0.2c0.2,0.3,0.3,0.7,0.7,1c0.3,0.3,0.2,0.5,0.1,0.8c-0.2,0.5-0.3,1,0.2,1.5c0,0.1,0,0.1,0,0.2
		c-0.3,0.6-0.3,1.3-0.3,1.9c0,0.6,0.1,1.3,0.1,1.9c0,0.1,0,0.1,0,0.2c0,0.2,0.1,0.5-0.2,0.6c0,0,0,0.1,0,0.1c0.2,0.2,0.3,0.3,0,0.5
		c0,0.2,0,0.3,0,0.5c-0.4,0.9-0.1,1.9-0.4,2.9c0.6,1-0.1,1.9-0.4,2.9c-0.1,0.3-0.1,0.5-0.1,0.8C8,192,8,192.3,8,192.6
		c-0.2,0.6,0.4,1.2,0.5,1.8c0,0.1-0.1,0.2-0.1,0.2c-0.7,0.5,0.8,1.2,0.2,1.8h0c-0.1,0.7,0,1.4,0.2,2.2c0.1,0.6,0.1,1.3-0.1,1.9
		c-0.2,0.4-0.2,0.9-0.2,1.3c-0.3,0.6-0.1,1.3-0.1,1.9c0,0.1,0,0.2,0,0.3c-0.1,0.3,0.2,0.7-0.1,1.1c0,0,0,0-0.1,0.1
		c0,0.2,0,0.4,0,0.6c0,0.1,0,0.1,0,0.2v0.2c0.2,0.7,0.2,1.3,0.1,2c-0.1,1,0.1,2.1,0.1,3.1c0,0.4,0.1,0.8-0.1,1.2
		c-0.1,0.2,0.1,0.4,0.1,0.6c0.1,1.2,0.3,2.5,0,3.7c-0.1,0.4-0.3,0.8-0.7,1c-1.1,0.6-1.2,1.5-1.5,2.4c-0.2,0.8-0.2,1.6-0.7,2.4
		c-0.5,1-0.6,2.1-0.7,3.1c0,0.4-0.1,0.7-0.4,1c0.1,0.4,0,0.8-0.2,1.2c-0.2,0.3-0.1,0.7-0.1,1c0,0.1,0,0.3,0.2,0.3
		c1,0.2,1,0.9,1.3,1.4c0.3,0.2,0.3,0.4,0,0.6v0.1c0.3,0.3,0.2,0.6,0.2,0.9c0,0.6,0.2,1.2,0.6,1.6c0.3,0.3,0.3,0.7,0.5,1.1
		c0,0.1,0,0.1,0,0.2c0.2,0.1,0.2,0.3,0.2,0.4c0,0.9,0.2,1.8,0.1,2.8c0,0.6-0.3,1.2-0.4,1.8c-0.1,0.6-0.1,1.3-0.1,1.9
		c0,1,0.1,1.9,0.1,2.9c0,0.1,0,0.1,0,0.2c0.3,0.7,0.2,1.5,0.5,2.3c0.1,0.2,0.1,0.4-0.2,0.6c0,0.1,0,0.2,0,0.3
		c0.2,0.1,0.2,0.2,0.2,0.3c0.2,0.1,0.5,0.1,0.6,0.3c0.1,0,0.1,0.1,0.2,0.1c0.1,0.1,0.1,0.1,0.2,0.2c0,0.1,0,0.1,0,0.2
		c0.7,0.8,0.7,1.6,0.6,2.5c-0.1,0.9-0.1,1.7,0.1,2.6c0,0.1,0.1,0.3-0.1,0.4c0,0.2,0,0.3,0,0.5c0,0.1,0,0.2,0,0.3
		c0.3,0.5,0.4,1,0.1,1.4c0.1,1.7,0.2,3.4,0.2,5.1c0,0.8,0.1,1.6,0.1,2.4c0,0.3,0,0.6,0.3,0.9c0.1,0.1,0.1,0.1,0.1,0.2
		c0,0.9,0.5,1.8-0.1,2.7c-0.1,0.1-0.2,0.2-0.1,0.3c0.3,0.9-0.3,1.7-0.5,2.5c-0.2,0.7-0.3,1.5-0.6,2.3c-0.1,0.2,0,0.5,0.2,0.7
		c0.6,0.4,0.7,1,0.6,1.5c-0.1,1.1,0.4,2,0.6,3c0.1,0.4,0.1,0.8-0.1,1.1c-0.1,0.2-0.2,0.4-0.3,0.6c-0.1,0.3-0.2,0.7-0.8,0.7
		c-0.3,0-0.6,0.3-0.5,0.6c0,0.6,0,1.2-0.1,1.8c-0.1,0.4,0.2,0.7,0.4,1c0.2,0.7,0.3,1.4,1.1,1.9c0.2,0.1,0.2,0.3,0.1,0.5
		c-0.3,0.7,0.2,1.5,0.1,2.2c-0.2,2.1,0,4.3,0.1,6.4c0,0.3,0,0.7,0.2,1c0,0.1,0.1,0.2,0.1,0.2c-0.4,1.4,0.4,2.7,0.4,4.1
		c0,0.6,0.3,1.1,0.1,1.7c-0.1,0.2-0.1,0.5-0.4,0.6c-0.1,0.1-0.2,0.2-0.2,0.3c0.1,0.8-0.3,1.5,0,2.3c0.1,0.3,0.1,0.5,0,0.8
		c-0.1,0.3-0.1,0.5,0.1,0.8c0.3,0.4,0.2,0.7-0.1,1.1c0,0.5,0,0.9,0.2,1.4c0.2,0.5,0,1,0,1.5c0,0.5,0.1,1,0.1,1.5h348.1
		c0-0.2,0.1-0.4,0.1-0.5c0.4-0.6,0.1-1.3,0.1-1.9c0-0.1,0-0.2,0-0.3c0.1-0.4-0.2-0.7,0.1-1.1c0,0,0,0,0.1-0.1c0-0.2,0-0.4,0-0.6
		c0-0.1,0-0.1,0-0.2V308c-0.2-0.7-0.2-1.3-0.1-2c0.1-1-0.1-2.1-0.1-3.1c0-0.4-0.1-0.8,0.1-1.2c0.1-0.2-0.1-0.4-0.1-0.6
		c-0.1-1.2-0.3-2.5,0-3.7c0.1-0.4,0.3-0.8,0.7-1c1.1-0.6,1.3-1.5,1.5-2.4c0.2-0.8,0.2-1.6,0.7-2.4c0.5-1,0.6-2.1,0.7-3.1
		c0-0.4,0.1-0.7,0.4-1c-0.1-0.4,0-0.8,0.2-1.2c0.2-0.3,0.1-0.7,0.1-1C363,285,362.9,284.8,362.8,284.8z"/>
</g>
</svg>
