<svg width="1420" height="62" viewBox="0 0 1420 62" fill="none" xmlns="http://www.w3.org/2000/svg">
<path fill-rule="evenodd" clip-rule="evenodd" d="M1420 19.9873C1419.1 19.8604 1418.21 19.5762 1417.32 19.2891C1416.55 19.044 1415.78 18.7979 1415 18.6485C1410.33 17.6738 1405.66 19.2539 1400.99 20.833C1396.56 22.332 1392.13 23.8301 1387.7 23.1485C1387.1 23.0283 1386.5 23.0166 1385.9 23.0049C1385.5 22.9971 1385.1 22.9893 1384.7 22.9492C1384.68 22.9238 1384.65 22.8994 1384.61 22.875C1384.58 22.8496 1384.54 22.8242 1384.5 22.7988C1384.43 22.749 1384.35 22.6992 1384.3 22.6485C1383.8 22.9492 1383.1 23.0488 1382.4 22.9492C1378.2 22.4492 1373.9 21.9492 1369.7 21.6485C1368.4 21.5488 1367.2 21.0488 1367 19.5488V19.3486H1366.2C1366.15 19.3262 1366.1 19.3037 1366.05 19.2813C1365.99 19.2539 1365.92 19.2266 1365.85 19.1992L1365.82 19.1865C1365.7 19.1406 1365.59 19.0947 1365.5 19.0488C1364.65 19.1143 1363.8 19.1367 1362.96 19.1445C1362.5 19.1485 1362.05 19.1485 1361.6 19.1485C1361.6 19.249 1361.5 19.249 1361.5 19.249C1361.2 19.3486 1360.9 19.3486 1360.6 19.3486C1360.55 19.3486 1360.5 19.3242 1360.45 19.2988C1360.4 19.2735 1360.35 19.249 1360.3 19.249H1359.9C1359.73 19.249 1359.6 19.2188 1359.48 19.1914C1359.38 19.169 1359.29 19.1485 1359.2 19.1485C1358.65 19.2988 1358.08 19.4238 1357.5 19.5488C1357.2 19.6133 1356.9 19.6777 1356.61 19.7461C1356.34 19.8096 1356.07 19.877 1355.8 19.9492C1355.17 20.1201 1354.53 20.1777 1353.87 20.1875C1353.42 20.1944 1352.97 20.1797 1352.52 20.1651C1351.96 20.1465 1351.4 20.1279 1350.84 20.1514C1350.22 20.1777 1349.6 20.2578 1349 20.4492C1347.9 20.249 1346.78 20.0488 1345.65 19.8486L1345.21 19.7695C1344.23 19.5957 1343.26 19.4229 1342.3 19.249C1340.6 18.3486 1338.8 17.749 1337 17.249C1334.2 17.3486 1331.4 17.0488 1328.6 16.249C1314.2 15.0488 1299.7 15.4492 1285.2 15.9492C1284.99 15.7363 1284.77 15.5596 1284.56 15.4111C1284.27 15.2119 1283.99 15.0635 1283.7 14.9492C1282.9 14.9492 1282.2 14.9492 1281.5 15.1485C1277.9 15.249 1274.4 15.1485 1270.8 14.5488C1270 14.3486 1269.3 14.1485 1268.6 13.749L1265 11.9492C1264.85 11.9981 1264.73 12.0225 1264.62 12.0469C1264.5 12.0723 1264.4 12.0977 1264.3 12.1485C1263.1 12.5488 1261.9 12.249 1260.8 11.749C1252.8 9.74904 1244.7 8.44923 1236.6 7.54884L1236.42 7.53419C1236.27 7.52541 1236.12 7.51955 1235.96 7.51369C1235.04 7.47755 1234.09 7.44142 1233.6 6.54884H1233.4C1232.9 6.54884 1232.4 6.44923 1232 6.24904C1231.6 6.14845 1231.4 6.04884 1231.1 5.84865C1231 5.44923 1230.7 5.14845 1230.5 4.94923C1229.5 4.84865 1228.6 4.64845 1227.7 4.24904C1222.6 1.94923 1217.2 0.848648 1211.6 0.749038L1211.26 0.751968C1210.48 0.76271 1209.7 0.773452 1209 0.249038C1207.09 0.330093 1205.18 0.261734 1203.27 0.193374H1203.23C1200.45 0.093765 1197.68 -0.00584438 1194.9 0.348648C1194.53 0.406265 1194.15 0.465835 1193.77 0.526382C1191.52 0.882827 1189.21 1.24904 1186.9 1.24904C1183.9 1.34865 1181.1 1.44923 1178.2 2.14845C1177.2 2.34865 1176.1 2.44923 1175.2 2.24904C1172.1 1.44923 1169.2 2.24904 1166.5 3.74904L1165.8 4.44923C1165.71 4.44923 1165.61 4.45216 1165.51 4.45607C1165.29 4.46486 1165.07 4.48146 1164.85 4.49904C1164.71 4.50978 1164.58 4.52052 1164.44 4.52834C1164.26 4.54005 1164.07 4.54884 1163.9 4.54884C1163.6 4.94923 1163.4 5.24904 1163.1 5.64845C1162.66 6.14259 1162.1 6.12501 1161.54 6.10744C1161.07 6.09279 1160.61 6.07814 1160.2 6.34865C1160 6.24904 1159.8 6.34865 1159.7 6.44923C1159.3 6.74904 1158.9 6.74904 1158.5 6.74904C1158.6 7.04884 1158.5 7.04884 1158.1 7.04884H1157.1C1157.03 6.97853 1156.95 6.92091 1156.86 6.87501C1156.7 6.79103 1156.53 6.74904 1156.4 6.74904C1155.96 6.88185 1155.55 7.07423 1155.15 7.26466C1154.65 7.50294 1154.16 7.73732 1153.6 7.84865C1152.55 8.39845 1151.38 8.52345 1150.2 8.64845C1149.77 8.69337 1149.35 8.7383 1148.93 8.80373C1148.19 8.91994 1147.47 9.09767 1146.8 9.44923C1145.01 9.91408 1143.24 10.3535 1141.46 10.7764C1138.28 11.5361 1135.11 12.2422 1131.9 12.9492C1131.71 12.8555 1131.55 12.7832 1131.39 12.7236C1131.22 12.6553 1131.06 12.6016 1130.9 12.5488C1130.36 12.669 1129.82 12.6807 1129.28 12.6924H1129.25C1128.9 12.7012 1128.55 12.71 1128.2 12.749C1125 13.0488 1121.9 13.6485 1119.1 15.249C1118.9 15.5488 1118.6 15.749 1118.2 15.8486C1118 15.749 1117.9 15.8486 1117.8 15.9492C1116.8 16.3486 1115.9 16.3486 1114.9 16.1485C1114.8 16.1485 1114.7 16.1377 1114.6 16.124L1114.39 16.0889C1114.26 16.0674 1114.13 16.0488 1114 16.0488H1113.7C1113.3 16.3486 1112.8 16.3486 1112.4 16.0488C1112.35 16.0488 1112.3 16.0742 1112.25 16.0986C1112.22 16.1113 1112.2 16.124 1112.17 16.1338C1112.15 16.1426 1112.12 16.1485 1112.1 16.1485L1111.5 16.4492C1111.3 16.6485 1111.1 16.749 1110.9 16.8486L1110.3 17.0488C1110.1 17.1485 1109.9 17.249 1109.7 17.249H1109.1L1108.8 17.1485C1108.1 17.0488 1107.3 16.8486 1106.5 16.6485C1104.3 17.5654 1102.02 17.5576 1099.73 17.5498L1099.1 17.5488C1098.68 17.5488 1098.27 17.5459 1097.85 17.543H1097.84C1095.81 17.5293 1093.88 17.5166 1091.8 17.8486C1089.1 18.3486 1086.1 18.3486 1083.3 17.5488C1081.9 17.1485 1080.4 16.749 1079 17.1485C1077.52 17.5069 1076.05 17.6045 1074.58 17.7012C1072.77 17.8213 1070.97 17.9404 1069.2 18.5488C1068.4 18.0694 1067.54 18.1006 1066.66 18.1328C1066.44 18.1406 1066.22 18.1485 1066 18.1485H1064.7C1064.46 18.1885 1064.22 18.2285 1063.98 18.2617C1063.62 18.3125 1063.26 18.3486 1062.9 18.3486C1056.59 17.4912 1050.39 18.1524 1044.18 18.8164L1044.17 18.8194L1044.05 18.8311C1042.34 19.0147 1040.62 19.1983 1038.9 19.3486C1038.5 19.3486 1038.2 19.3486 1037.8 19.249C1026.6 17.3486 1015.3 16.6485 1004 16.249C996.5 16.0488 989 15.8486 981.6 15.3486C981.125 15.5274 980.613 15.5996 980.109 15.6709L980.093 15.6738C979.754 15.7217 979.419 15.7686 979.1 15.8486C978.958 15.8848 978.828 15.9082 978.706 15.9229C978.486 15.9492 978.293 15.9492 978.1 15.9492C977.3 15.749 976.5 15.6485 975.7 15.6485C975.4 15.249 975.1 14.9492 974.7 14.749C973.4 14.749 972.1 14.6485 970.9 14.249C970.732 14.2695 970.563 14.2949 970.395 14.3223L970.1 14.3711C969.567 14.46 969.034 14.5488 968.5 14.5488C965.341 13.4258 962.133 12.9922 958.91 12.5567C957.542 12.3721 956.171 12.1875 954.8 11.9492C953.784 12.1631 952.825 11.8906 951.878 11.6211L951.866 11.6182C951.045 11.3858 950.234 11.1553 949.4 11.249C947.4 11.6485 945.489 11.3379 943.578 11.0264C942.623 10.8711 941.667 10.7158 940.7 10.6485C940.622 10.6221 940.544 10.6035 940.466 10.5869C940.394 10.5723 940.322 10.5606 940.25 10.5488C940.1 10.5235 939.95 10.499 939.8 10.4492C939.5 10.3486 939.2 10.2735 938.9 10.1992C938.751 10.1621 938.602 10.125 938.453 10.084C938.302 10.043 938.151 9.99904 938 9.94923C936.19 9.37697 934.29 9.07814 932.471 8.79201L932.2 8.74904C932.05 8.69923 931.9 8.67384 931.75 8.64845C931.6 8.62404 931.45 8.59865 931.3 8.54884C931.003 8.45021 930.683 8.32619 930.362 8.20216L930.35 8.19923C930.025 8.07423 929.7 7.94923 929.4 7.84865C926.1 6.94923 922.8 6.24904 919.4 6.94923C918.5 7.14845 917.6 6.94923 916.8 6.44923L915.9 5.54884C915 5.94923 914.1 6.14845 913.1 6.34865C912.692 6.70607 912.207 6.93361 911.709 7.04298C911.23 7.14845 910.741 7.1465 910.3 7.04884L910.076 7.01076C909.572 6.92482 909.124 6.84865 908.6 6.84865H906.2L905.668 6.91603L905.619 6.92189C904.234 7.09572 902.917 7.26076 901.6 7.34865V7.44923C901.4 7.94923 901 8.34865 900.4 8.54884C897.9 8.84865 895.4 8.74904 892.9 8.34865C890.294 7.97658 887.688 8.10451 885.106 8.23146C883.526 8.30959 881.956 8.38673 880.4 8.34865C879.9 8.34865 879.3 8.14845 879 7.74904C878.861 7.67873 878.77 7.56056 878.694 7.46193C878.661 7.41896 878.63 7.37892 878.6 7.34865C878.185 7.45216 877.77 7.55568 877.341 7.63185C876.943 7.70216 876.533 7.74904 876.1 7.75001L876.095 7.76173C875.997 8.05763 875.898 8.35548 875.8 8.74904C874.089 9.39845 872.342 9.24611 870.603 9.09474C869.394 8.98927 868.189 8.88478 867 9.04884C866.686 9.01369 866.371 8.99123 866.057 8.97658C865.471 8.94923 864.886 8.94923 864.3 8.94923C862.18 9.14845 860.06 9.22072 857.94 9.29298C854.76 9.40041 851.58 9.5088 848.4 10.0488C848 10.0488 847.7 10.1485 847.4 10.249C847.26 10.2686 847.12 10.2852 846.98 10.3008C846.42 10.3652 845.86 10.4287 845.3 10.749C845.1 10.8486 844.8 10.9492 844.5 10.9492H842.4C842.2 10.9492 841.9 10.9492 841.6 10.8486C841.4 10.7988 841.175 10.7735 840.95 10.749C840.725 10.7236 840.5 10.6992 840.3 10.6485H840.2C839.938 10.7236 839.647 10.7149 839.355 10.7051C838.868 10.6895 838.375 10.6738 838 11.0488C837.585 11.4121 837.062 11.3985 836.544 11.3848C836.063 11.3721 835.585 11.3604 835.2 11.6485C835.15 11.6485 835.1 11.624 835.05 11.5986L835.043 11.5957C834.995 11.5723 834.948 11.5488 834.9 11.5488C832.818 12.084 830.735 11.9473 828.674 11.8115C827.271 11.7188 825.877 11.627 824.5 11.749L823.751 12.2637C821.813 13.6016 819.893 14.9287 817.5 15.5488C815.9 15.9492 814.3 16.3486 812.8 15.9492C810.073 15.2051 807.277 15.417 804.526 15.626L803.772 15.6836C803.447 15.707 803.123 15.7295 802.8 15.749C802.741 15.8086 802.61 15.8682 802.472 15.8858C802.378 15.8975 802.281 15.8897 802.2 15.8486C801.95 15.9492 801.725 16.0488 801.5 16.1485C801.275 16.249 801.05 16.3486 800.8 16.4492C798.5 17.3486 796.1 17.249 793.7 17.1485C792.602 17.086 791.503 17.0928 790.405 17.0996H790.359C787.973 17.1152 785.586 17.1309 783.2 16.4492C781.1 17.5488 779 17.249 777.1 15.8486C775.923 15.8262 774.747 15.7871 773.569 15.7481C769.646 15.6172 765.723 15.4873 761.8 15.9492C759.939 16.1885 758.006 16.2129 756.066 16.2363H756.006C754.734 16.2529 753.46 16.2695 752.2 16.3486C751.4 16.3486 750.6 16.249 749.9 15.9492C746.6 14.6485 743.3 14.6485 740 15.4492C739.1 15.6485 738.2 15.8486 737.3 15.6485C735.8 15.9492 734.2 16.249 732.6 16.249C731.2 17.1485 729.6 17.0488 728.1 16.6485C726.8 16.3486 725.6 16.3486 724.5 16.9492C723.937 17.0195 723.386 17.1143 722.843 17.208C721.844 17.3809 720.872 17.5488 719.9 17.5488C719.75 17.4736 719.657 17.4551 719.536 17.4082C719.495 17.3926 719.451 17.374 719.4 17.3486C719.1 17.5488 718.9 17.5488 718.6 17.4492C718.44 17.3887 718.277 17.416 718.111 17.4971C717.851 17.625 717.585 17.8838 717.319 18.1416C716.904 18.544 716.49 18.9463 716.1 18.8486C712.934 18.3526 709.845 18.8194 706.713 19.292C704.8 19.5811 702.872 19.8731 700.9 19.9492C699.658 20.0108 698.416 19.6104 697.15 19.2022C696.377 18.9522 695.596 18.7002 694.8 18.5488C690.13 17.5733 685.459 19.1533 680.789 20.7334C676.359 22.2315 671.93 23.7305 667.5 23.0488C666.9 22.9287 666.3 22.917 665.7 22.9043C665.3 22.8965 664.9 22.8887 664.5 22.8486C664.45 22.7988 664.375 22.749 664.3 22.6992L664.284 22.6875C664.214 22.6406 664.146 22.5947 664.1 22.5488C663.6 22.8486 662.9 22.9492 662.2 22.8486C658 22.3486 653.7 21.8486 649.5 21.5488C648.2 21.4492 647 20.9492 646.8 19.4492V19.249H646C645.957 19.2276 645.909 19.2061 645.858 19.1846L645.65 19.0986L645.47 19.0254C645.409 19 645.351 18.9746 645.3 18.9492C644 19.0488 642.7 19.0488 641.4 19.0488C641.4 19.0928 641.38 19.1172 641.359 19.1309C641.331 19.1485 641.3 19.1485 641.3 19.1485C641 19.249 640.7 19.249 640.4 19.249C640.327 19.249 640.254 19.1953 640.181 19.167C640.154 19.1563 640.127 19.1485 640.1 19.1485H639.7C639.535 19.1485 639.4 19.1182 639.279 19.0908C639.18 19.0694 639.09 19.0488 639 19.0488C638.45 19.1992 637.875 19.3242 637.3 19.4492L636.847 19.5488C636.424 19.6416 636.005 19.7383 635.6 19.8486C634.538 20.1387 633.43 20.1016 632.319 20.0654C631.13 20.0264 629.938 19.9863 628.8 20.3486C627.866 20.1787 626.915 20.0098 625.96 19.8399L625.45 19.749L624.237 19.5322C623.519 19.4043 622.805 19.2764 622.1 19.1485C621.608 18.8877 621.107 18.6524 620.601 18.4375C619.358 17.9102 618.079 17.5039 616.8 17.1485C614 17.249 611.2 16.9492 608.4 16.1485C594 14.9492 579.5 15.3486 565 15.8486C564.796 15.6445 564.592 15.4736 564.388 15.3291C564.092 15.1201 563.796 14.9668 563.5 14.8486C562.8 14.8486 562 14.8486 561.3 15.0488C557.7 15.1485 554.1 15.0488 550.6 14.4492C549.8 14.249 549.1 14.0488 548.4 13.6485C547.756 13.2979 547.079 12.9473 546.387 12.5957C545.896 12.3467 545.398 12.0977 544.9 11.8486C544.772 11.8916 544.662 11.9151 544.563 11.9365L544.555 11.9395C544.425 11.9678 544.312 11.9922 544.2 12.0488C543 12.4492 541.8 12.1485 540.7 11.6485C532.7 9.64845 524.6 8.34865 516.5 7.44923C516.308 7.43068 516.109 7.42384 515.909 7.41603L515.864 7.4131C514.936 7.37794 513.987 7.34181 513.5 6.44923H513.3C512.8 6.44923 512.3 6.34865 511.9 6.14845C511.6 6.04884 511.4 5.94923 511.1 5.74904C511 5.34865 510.7 5.04884 510.5 4.84865C509.5 4.74904 508.6 4.54884 507.7 4.14845C502.6 1.84865 497.2 0.749038 491.6 0.648452C491.487 0.648452 491.375 0.650406 491.262 0.652359C490.476 0.663101 489.7 0.673843 489 0.148452C488.232 0.181656 487.465 0.190445 486.697 0.184585C485.542 0.175796 484.387 0.134781 483.232 0.0927884C481.918 0.0459134 480.605 -0.000961564 479.292 1.49986e-05C477.828 0.000991561 476.364 0.062515 474.9 0.249038L473.771 0.425796C471.522 0.782242 469.211 1.14845 466.9 1.14845C463.9 1.24904 461.1 1.34865 458.2 2.04884C457.666 2.15529 457.104 2.23341 456.558 2.25294C456.083 2.26955 455.62 2.2422 455.2 2.14845C452 1.34865 449.2 2.14845 446.5 3.64845L445.8 4.34865C445.512 4.34865 445.202 4.37209 444.89 4.39552L444.85 4.39845C444.683 4.41115 444.516 4.42384 444.352 4.43361C444.197 4.44337 444.045 4.44923 443.9 4.44923C443.75 4.64845 443.625 4.82423 443.5 4.99904C443.375 5.17384 443.25 5.34865 443.1 5.54884C442.662 6.04201 442.103 6.02443 441.539 6.00685C441.075 5.9922 440.606 5.97755 440.2 6.24904C440 6.14845 439.8 6.24904 439.7 6.34865C439.3 6.64845 438.9 6.64845 438.5 6.64845C438.5 6.94923 438.4 6.94923 438 6.94923H437C436.8 6.74904 436.5 6.64845 436.3 6.64845C435.861 6.78126 435.46 6.97072 435.065 7.15822L435.052 7.16408C434.55 7.40236 434.056 7.63771 433.5 7.74904C432.45 8.29884 431.275 8.42384 430.1 8.54884C428.925 8.67384 427.75 8.79884 426.7 9.34865C421.7 10.6485 416.8 11.749 411.8 12.8486C411.682 12.7901 411.573 12.7393 411.47 12.6953C411.224 12.5899 411.012 12.5195 410.801 12.4492C410.514 12.5127 410.227 12.5459 409.94 12.5645C409.687 12.5811 409.434 12.5869 409.18 12.5928C408.82 12.6006 408.46 12.6084 408.1 12.6485C404.9 12.9492 401.8 13.5488 399 15.1485C398.919 15.2705 398.822 15.376 398.708 15.4649C398.541 15.5947 398.338 15.6895 398.1 15.749C397.9 15.6485 397.8 15.749 397.7 15.8486C397.196 16.0508 396.717 16.1504 396.238 16.1748C395.767 16.1983 395.296 16.1485 394.8 16.0488C394.65 16.0488 394.5 16.0235 394.35 15.999C394.2 15.9736 394.05 15.9492 393.9 15.9492H393.6C393.361 16.1289 393.085 16.2012 392.817 16.166C392.637 16.1416 392.46 16.0694 392.3 15.9492C392.25 15.9492 392.2 15.9736 392.15 15.999C392.1 16.0235 392.05 16.0488 392 16.0488L391.4 16.3486C391.2 16.5488 391 16.6485 390.8 16.749L390.2 16.9492C390 17.0488 389.8 17.1485 389.6 17.1485H389L388.7 17.0488C388 16.9492 387.2 16.749 386.4 16.5488C384.2 17.4658 381.916 17.458 379.625 17.4502L379 17.4492C378.58 17.4492 378.165 17.4463 377.754 17.4434H377.744C375.714 17.4297 373.776 17.417 371.7 17.749C369 18.249 366 18.249 363.2 17.4492C361.8 17.0488 360.3 16.6485 358.9 17.0488C357.428 17.4053 355.955 17.5039 354.492 17.6016H354.481C352.668 17.7217 350.869 17.8408 349.1 18.4492C348.925 18.3438 348.746 18.2627 348.565 18.2012C347.921 17.9824 347.245 18.0078 346.562 18.0322C346.342 18.041 346.121 18.0488 345.9 18.0488H344.6L344.583 18.0518C343.988 18.1504 343.394 18.249 342.8 18.249C336.481 17.3906 330.284 18.0537 324.066 18.7197C322.313 18.9072 320.559 19.0947 318.8 19.249C318.4 19.249 318.1 19.249 317.7 19.1485C306.5 17.249 295.2 16.5488 283.898 16.1485L283.826 16.1455C276.351 15.9463 268.876 15.7471 261.5 15.249C261.029 15.4248 260.522 15.4971 260.022 15.5684L260.009 15.5713C259.665 15.6192 259.324 15.668 259 15.749C258.6 15.8486 258.3 15.8486 258 15.8486C257.2 15.6485 256.4 15.5488 255.6 15.5488C255.3 15.1485 255 14.8486 254.6 14.6485C253.859 14.6485 253.119 14.6162 252.397 14.5147C251.852 14.4375 251.316 14.3203 250.8 14.1485C250.533 14.1817 250.267 14.2266 250 14.2705C249.467 14.3604 248.934 14.4492 248.4 14.4492C245.245 13.3262 242.041 12.8945 238.821 12.46L238.81 12.457C237.441 12.2725 236.071 12.0869 234.7 11.8486C233.694 12.0606 232.771 11.7959 231.844 11.5293C231.021 11.292 230.194 11.0547 229.3 11.1485C227.3 11.5488 225.389 11.2373 223.478 10.9268L223.445 10.9209C222.5 10.7676 221.556 10.6143 220.6 10.5488C220.45 10.499 220.3 10.4736 220.15 10.4492C220 10.4238 219.85 10.3985 219.7 10.3486C219.4 10.249 219.1 10.1738 218.8 10.0986L218.768 10.0899C218.479 10.0176 218.189 9.94533 217.9 9.84865C216 9.24904 214.1 8.94923 212.1 8.64845C211.956 8.6006 211.812 8.57619 211.667 8.55177L211.65 8.54884L211.634 8.54591C211.489 8.5215 211.345 8.49709 211.2 8.44923C211.062 8.40236 210.917 8.3506 210.771 8.29689C210.6 8.23341 210.425 8.16603 210.25 8.09865L210.238 8.09572C209.917 7.97169 209.597 7.84767 209.3 7.74904C206 6.84865 202.7 6.14845 199.3 6.84865C198.4 7.04884 197.5 6.84865 196.7 6.34865L195.8 5.44923C194.9 5.84865 194 6.04884 193 6.24904C192.2 6.94923 191.1 7.14845 190.2 6.94923L189.976 6.91115C189.472 6.82521 189.024 6.74904 188.5 6.74904H186.1L185.568 6.81544C184.165 6.9922 182.833 7.16017 181.5 7.24904V7.34865C181.3 7.84865 180.9 8.24904 180.3 8.44923C178.952 8.61037 177.604 8.65529 176.257 8.6006C175.104 8.55373 173.952 8.43361 172.8 8.24904C170.194 7.87697 167.588 8.0049 165.006 8.13185C163.426 8.20998 161.856 8.28712 160.3 8.24904C159.8 8.24904 159.2 8.04884 158.9 7.64845C158.884 7.63283 158.868 7.61427 158.852 7.59376C158.818 7.5508 158.784 7.50001 158.75 7.44923C158.7 7.37404 158.65 7.29884 158.6 7.24904C157.8 7.44923 157 7.64845 156.1 7.64845L156.097 7.65724C155.998 7.95509 155.899 8.25294 155.8 8.64845C154.027 9.29884 152.254 9.14552 150.501 8.99416H150.489C149.281 8.88966 148.082 8.78615 146.9 8.94923C146.499 8.90431 146.098 8.8799 145.697 8.86623C145.198 8.84865 144.699 8.84865 144.2 8.84865C143.333 8.93068 142.466 8.99123 141.599 9.03908C140.346 9.10744 139.093 9.15041 137.84 9.1924C134.66 9.3008 131.48 9.40919 128.3 9.94923C128.129 9.94923 127.977 9.96779 127.835 9.99611C127.644 10.0352 127.472 10.0918 127.3 10.1485C127.16 10.169 127.02 10.1846 126.88 10.2012C126.32 10.2647 125.76 10.3291 125.2 10.6485C125 10.749 124.7 10.8486 124.4 10.8486H122.3C122.1 10.8486 121.8 10.8486 121.5 10.749C121.3 10.6992 121.075 10.6738 120.85 10.6485C120.625 10.624 120.4 10.5986 120.2 10.5488H120.1C119.841 10.6231 119.554 10.6143 119.265 10.6055H119.255C118.768 10.5899 118.275 10.5733 117.9 10.9492C117.485 11.3115 116.991 11.2979 116.484 11.2852C116.325 11.2813 116.164 11.2774 116.005 11.2842C115.694 11.2988 115.387 11.3574 115.1 11.5488C115.05 11.5488 115 11.5235 114.95 11.499C114.9 11.4736 114.85 11.4492 114.8 11.4492C112.723 11.9824 110.682 11.8477 108.633 11.7129C107.23 11.6201 105.823 11.5264 104.4 11.6485L103.797 12.0635L103.651 12.1641C101.714 13.502 99.7925 14.8281 97.3999 15.4492C95.8999 15.8486 94.2998 16.249 92.7998 15.8486C90.0728 15.1045 87.2773 15.3174 84.5259 15.5264C83.9482 15.5703 83.3726 15.6143 82.7998 15.6485C82.7002 15.749 82.3999 15.8486 82.2002 15.749C81.9692 15.8408 81.7593 15.9336 81.5513 16.0254L81.5 16.0488L81.4487 16.0723C81.2407 16.1641 81.0308 16.2569 80.7998 16.3486C78.5024 17.2481 76.105 17.1485 73.7075 17.0488H73.7002C72.5864 16.9854 71.4727 16.9922 70.3589 17C67.9727 17.0147 65.5864 17.0303 63.2002 16.3486C61.1001 17.4492 59 17.1485 57.1001 15.749C55.9229 15.7256 54.7461 15.6865 53.5693 15.6475C49.646 15.5176 45.7231 15.3877 41.7998 15.8486C39.9395 16.0889 38.0063 16.1133 36.0664 16.1367C34.7744 16.1524 33.479 16.169 32.2002 16.249C31.3999 16.249 30.6001 16.1485 29.8999 15.8486C26.6001 14.5488 23.2998 14.5488 20 15.3486C19.2002 15.5488 18.2998 15.749 17.3999 15.5488C15.8999 15.8486 14.2998 16.1485 12.7002 16.1485C11.2998 17.0488 9.7002 16.9492 8.2002 16.5488C6.8999 16.249 5.7998 16.249 4.6001 16.8486C4.11426 16.9131 3.62842 16.999 3.13965 17.086L3.11914 17.0889C2.10352 17.2676 1.07471 17.4492 0 17.4492V61.0488H1420V19.9873Z" fill="#E7E0D4"/>
</svg>
